<mxfile host="app.diagrams.net" modified="2021-07-19T14:53:22.538Z" agent="5.0 (Windows NT 10.0; Win64; x64) AppleWebKit/537.36 (KHTML, like Gecko) Chrome/91.0.4472.124 Safari/537.36" etag="tMjGH1KY6Soyrx2QcygK" version="14.9.0" type="github">
  <diagram id="qwzrwVzCshn7VJIUS8uA" name="Page-1">
    <mxGraphModel dx="1955" dy="2270" grid="1" gridSize="10" guides="1" tooltips="1" connect="1" arrows="1" fold="1" page="1" pageScale="1" pageWidth="850" pageHeight="1100" math="0" shadow="0">
      <root>
        <mxCell id="0" />
        <mxCell id="1" parent="0" />
        <mxCell id="u3QtzKqVrMGiRj0KE6UX-3" value="" style="shape=image;verticalLabelPosition=bottom;labelBackgroundColor=#ffffff;verticalAlign=top;aspect=fixed;imageAspect=0;image=data:image/jpeg,/9j/4AAQSkZJRgABAgAAZABkAAD/2wBDAAEBAQEBAQEBAQEBAQEBAQEBAQEBAQEBAQEBAQEBAQEBAQEBAQEBAQEBAQECAgICAgICAgICAgMDAwMDAwMDAwP/2wBDAQEBAQEBAQIBAQICAgECAgMDAwMDAwMDAwMDAwMDAwMDAwMDAwMDAwMDAwMDAwMDAwMDAwMDAwMDAwMDAwMDAwP/wgARCARiAyADAREAAhEBAxEB/8QAHgABAAEFAQEBAQAAAAAAAAAAAAcFBggJCgQDAgH/xAAUAQEAAAAAAAAAAAAAAAAAAAAA/9oADAMBAAIQAxAAAAHf4AAAAAAAAAAAAAAAAAAAAAAAAAAAAAAAAAAAAAAAAAAAAAAAAAAAAAAAAAAAAAAAAAAAAAAAAAAAAAAAAAAAAAAAAAAAAAAAAAAAAAAAAAAAAAAAAAAAAAAAAAAAAAAAAAAAAAAAAAAAAAAAAAAAAAAAAAAAAAAAAAAAAAAAAAAAAAAAAAAAAAAAAAAAAAAAAAAAAAAAAAAAAAAAAAAAAAAAAAAAAAAAAAAAAAAAAAAAAAAAAAAAAAAAAAAAAAAAAAAAAAAAAAAAAAAAAAAAAAAAAAAAAAAAAAAAAAAAAAAAAAAAAAAAAAAAAAAAAAAAAAAAAAAAAAAAAAAAAAAAAAAAAAAAAAAAAAAAAAAAAAAAAAAAAAAAAAAAAAAAAAAAAAAAAAAAAAAAAAAAAAAAAAAAAAAAAAAAAAAAAAAAAAAAAAAAAAAAAAAAAAAAAAAAAAAAAAAAAAAAAAAAAAAAAAAAAAAAAAAAAAAAAAAAAAAAAAAAAAAAAAAAAAAAAAAAAAAAAAAAAAAAAAAAAAAAAAAAAAAAAAAAAAAAAAAAAAAAAAAAAAAAAAAAAAAAAAAAAAAAAAAAAAAAAAAAAAAAAAAAAAAAAAAAAAAAAAAAAAAAAAAAAAAAAAAAAAAAAAAAAAAAAAAAAAAAAAAAAAAAAAAAAAAAAAAAAAAAAAAAAAAAAAAAAAAAAAAAAAAAAAAAAAAAAAAAAAAAAAAAAAAAAAACICvAAAAAskncAAAAAAAAAAAAAAAAAAAAAAAAAAAAAAAAAAAAAAAAAAAEUkrAAAAAiMlwAAAAAAAAAAAAAAAAAAAAAAAAAAAAAAAAAAAAAAAAAAAEUkrAAAAAiMlwAAAAAAAAAAAAAAAAAAAAAAAAAAAAAAAAAAAAAAAAAAAEMH1AAAABbJkQAAAAAAAAAAAAAAAAAAAAAAAAAAAAAAAAAAAAAAAAAAACKSVgAAAARGS4AAAAAAAAAAAAAAAAAAAAAAAAAAAAAAAAAAAAAAAAAAACKSVgAAAARGS4AAAAAAAAAAAAAAAAAAAAAAAAAAAAAAAAAAAAAAAAAAACKSVgAAAARGS4AAAAAAAAAAAAAAAAAAAAAAAAeE4wj+AAAAkw6qQAAAAAAADB856gAAAAeM3lGzcAAAEVHKke0AHT2T0AAWMXyAD8nIgfMAAG/s2ogAAAAAAAAAAAFNOBUAAAAlk7KT+AAAAAAAA16nMQAAAAAdJpuvAAABBZw7gAHXiZIAA/pHJIoAP4cQZ8wAAdMZuZAAAAAAAAAAAAKacCpkadX5bRd5+wU0FUPkfwqgAAAAAB4yTypHjAAAMFDk4NsJ0onMKdXJ6wAACJyPCUQAe4/RB5WwAeUts9hVCYzwH8ABpBNBZ0xm5kAAAAAAAAAAAAppwKmS52HlunmLwB4Dwk3AiQlsAAAAAAETksAAAAwAOQI29nUCcqB1SHrAAAIlP4S2AADFokEA+ZY5J5QQTeAADQ6c8p0xm5kAAAAAAAAAAAAppwKmS52HnhPQS4ARGS4CKCVwAAAAAARSSsAAADAA5Ajb2dQJyoHVIesAAAiQEtgAAxPMsAAYoH8LnKkTuAADQ6c8p0xm5kAAAAAAAAAAAAppwKmS52HnhPUS0ARMSyCIyXAAAAAAARSSsAAADAA5Ajb2dQJyoHVIesAAAh4+xLYAAMTzLA/hjoZEFlmP5ehWiagAAaHTnlOmM3MgAAAAAAAAAAAFNOBUyXOw8ppVSUwCMCTwRQSuAAAAAACKSVgAAAYAHIEbezqBOVA6pD1gAAiMlAjAlsAAGJ5lgCFCaj+lEI6LSMjQAAaHTnlOmM3MgAAAAAAAAAAAFNOBUyXOw8solgvMAiUloERkuAAAAAAAiklYAAAGAByBG3s6gTlQOqQ9YABQixyVSJCWwAAYnmWAAABiyZTAAA0OnPKdMZuZAAAAAAAAAAAAKacCpkudh5aJJZfIBFRKoIoJXAAAAAABFJKwAAAMADkCNvZ1AnKgdUh6wAeAhwnIESEtgAAxLLtP2AAfAppk6AADQ6c8p0xm5kAAAAAAAAAAAAppwKmS52HlOKyScARmSYCJSWgAAAAAARSSsAAADAA5Ajb2dQJyoHVIesAtEsImsAi88QAAPAUcAAAr56AAAaSjQqdMZuZAAAAAAAAAAAAKacCpkudh54C0itn7I+JBJ0LHKmXKAAAAAACKSVgAAAYAHIEbezqBOVA6pD1lrFgFzEhAAAAAAAAAAAAAgYj4kAnoAAAAAAAAAAAAppwKmS52HnhKaX2f0vIigl8iQlsAAAAAAAiklYAAAGAByBG3s6gTTWbNz+lyF8AAAAAAAAAAAAAAi88wJZAAAAAAAAAAAAKacCpkudh54T1EtAEREukUErgAAAAAAEUkrAAAAwAOQI29nUCAAAAAAAAAAAAAAAAReeYEsgAAAAAAAAAAAFNOBUyXOw88J6CXACKSViJiWQAAAAAACKSVgAAAYAHIEbezqBAAAAAAAAAAAAAAAAIvPMCWQAAAAAAAAAAACmnAqZLnYeUUuYkoAi0lIislQAAAAAAAiklYAAAGAByBG1k6Ey8QCnH0KcTaVAAsshUoR9D9EdGRBFRc5bJWj1lnHrMgSLjJU/QABF55gSyAAAAAAAAAAAAU04FTJc7DyxSYS7wCJCWyLCUwAAAAAACKSVgAAAYAHIEbezolPseI9x8DyFBKKZPgFOObY3+mtA2xGqIqpsaPwaeSiGfpGpkgamTZqZ1AAAi88wJZAAAAAAAAAAAAKacCpkudh5bhe5IQBFpKRhmekyPMXCViLCYD8EdGXhj6VgkwxeMmCLy4SyzIoAAAwAOQI29nRKUsv4hwyHPAYqF3mTIBbZz+GSJRzdEaZDKUqxOZrPKkT0XWUElg1kG+8AAEXnmBLIAAAAAAAAAAABTTgVMlzsPKcVQlMAislQ0mGQhdhg6bSDCU9BF5cBkMVMgEsk3Vmnkw6NrpiobqAAADAA5Ajb2dEpWSMjIUhg9x9SyDJYAoZiCZBEMF2EilEIjL7LpMbzKkxwLvJ7I6JyAABF55gSyAAAAAAAAAAAAU04FTJc61ixirHkPuW8XyX2atDMQwzBmoYTFRI9PUZflnkPFlG3I1dn2KqVY3FAAAGAByBG3s6JTzkyENlJP6eQpJk0ADXgZgGCBiEZKFXNihp4N4RrxM9jS8UIymPsbKwAAReeYEsgAAAAAAAAAAAFNOBUyXOyc9wAPCX8CHyyjwH1KAWSZKlplvFNL9LPMnTAoybKIX6WyTkAAAYAHIEbezolLdJMLbLcPUVEscyWABhsXuRgekrZRi7yOzMg12mWJjeTcWqewzEAABF55gSyAAAAAAAAAAAAU04FTJc7Ny7gAWcXiAUk1YmbJraLPJ0M8jGorZmgaziSy0zEYuI3lH7AAABgAcgRtcOhIvEtku8AtYl0uAAAAAAAAAAAAAi88wJZAAAAAAAAAAAAKacCpkudm5dwALOLxALdMRCUjGYlkg4zWIpInM0CBynFGLfLANlZWgAAAYAHIEbJTorAAAMETaESwAAAAAAAAAAACLzzAlkAAAAAAAAAAAAppwKmS52bl3AAs4vEAAAAAAAAAAAAAwAOQI2lnViAAAaFDckSyAAAAAAAAAAACLzzAlkAAAAAAAAAAAAppwKmS52bl3AAs4vEAAAAAAAAAAAAAwAOQI2lnViAAAaFDe2VAAAAAAAAAAAAEXnmBLIAAAAAAAAAAABTTgVMlzsgKmACmEigAAAAAAAAAAAAGAByBG0s6sQAADQ0bzyrAAAAAAAAAAAAi88wJZAAAAAAAAAAAAKacCpkudsoAAAAAAAAAAAAAAABgAcgRtLOrEAAA0Om8orAAAAAAAAAAAAIvPMCWQAAAAAAAAAAACmnAqZLnbKAAAAAAAAAAAAACmkan6NZRtuMITkCNpZ1YgAAGh03lFYAAAAAAAAAAABF55gSyAAAAAAAAAAAAU04FTJc7ZQCwC6CwyUwAAfAjYqZcpWAAAAAUgisrRKIOX46RTDw5AjaWdWIAAPGaJjeUVsAAAAAAAAAAAEDEfEgE9AAAAAAAAAAAAFNOBUyXO2Utojgv0x6MiyPS9y9ACJjxHpPme0phMZ9AAACwy3iXQAcvx0imHhyBGyM6KAAAY1GE50FFUAAAAAAAAAAABodOeU6YzcyAAAAAAAAAAAAU04FTI069C4iRgY9GQoLHLPKwUIlsqR4yDifT8ENldJdAALEPGSOAAcvx0imHhyBG3s6gQAAAAAAAAAAAAAAADQ6c8p0xm5kAAAAAAAAAAAAppwKmRh2EFxH1B/D+gAjUrpdh/Qfw/oBHxkEAClkbkuAAA5fjpFMPDkCNvZ1AgAAAAAAAAAAAAAAAGh055TpjNzIAAAAAAAAAAABTTgVMlzsMP2fUEhH5I5JEKmRiRKZGlvlIL1K6QuTKRqSaACFyaAAADl+OkUw8OQI29nUCAAAAAAAAAAAAAAAAaHTnlOmM3MgAAAAAAAAAAAFNOBUyROus/p+D+knkanxBKhGpExlGRYfk/ZKRCxdR8ycQDwkdEpgAAHL8dIph4cgRt7OoEAAAAAAAAAAAAAAAA0OnPKdMZuZAAAAAAAAAAAAKacCpkkddZ+S4SwScSLz8H8JUMeCvE0kVn2PmXMegtAqBOABERLh/QAADl+OkUw8OQI29nUCAAAAAAAAAAAAAAAAaHTnlOmM3MgAAAAAAAAAAAFNOBUyXOww/ZKxi6ZREfFFP0SyYsEnksEZniK2UIlsig9RJoBE5LAAAAOX46RTDw5Ajb2dQIAAAAAABiEVMA/ZlOAAAAAAaHTnlOmM3MgAAAAAAAAAtI/gAKecIJkidhh6i5z+H9B8wfQgUlUuUH8P6fI+p8yOySACPybgAAAcvx0NmIhySG3s6gQAAAAAADHcu4AoBPIAAAAABodOeUzgOxwAAAAAAAAAHAQfIAAAAAAAAAAAAAA37HQMAAACxTg9ANvZ1AgAAAAAj8oR8inFWAKIVstwnY9QAAAANDpzyn1O/cAAAAAAAAAHAQe8yHAAAAAAAAAAAAImI9JrN7Ru3AAABQzi6ANoR0PgAAAAoJiIV8vUtwyaIOLYKgT+RcRke4ynAAAABodOeU+p37gAAAAAAAAA4CCdDuDAAAAAAAAMPzQ2AAAS0ZLGyoyKAAAAAAAAAAABDhqLPgXmZgmIhmgYhlWJ0IrPcVcyHJYJXAAABodOeU2xHU0AAAAAAAAADgIJ0O4MAAAAAAAAiMkUAAA9Z7AAAAAAAAAAAAARIafypFyGYpIJrwKyZgkFFgn1KYZ7kiEtAAAA0OnPKdMZuZAAAAAAAAABwEE6HcGAAAAAAAAW6UcvoAAAAAAAAAAAAAAAHnMQSFSWC7ioEuEaEYkmEjH0MXC4zwE2kxgAAA0OnPKdMZuZAAAAAAAAABgeXQSUAAAATSVUAAAENkyAAAAAAAAAAAAAAAAtk1UFPKgQ2XYboTWCZME5GFJnAatSFSxTekS0AAADQ6c8p0xm5kAAAAAAAAAGOZaBkWY3lAAAPsZMmNBmuCID9lzl6gEfFVLsAAAAAAAAAAAAAAAI/MRCNSMzIwi42VmMhEhk8QyXQWcYoHoNoRK4AAANDpzynTGbmQAAAAAAAAAY5lplTJCJfBgGfYyhMVyskIH4IpNqRiIQ0ZBkwkdk1mGJe56TL0w3M3y7QAAAAAAAAAAAAACJiWQAAAR8XiVAAAAAGh055TpjNzIAAAAAAAAAMcy0z6lOMxAahyslpFjHzM/TDAppmoYiEOEjHmN3RzXGzghQ9hTDDw6Sz9gAAAAAAAAAAAAAFhlJPiUsrQBb5cBbxNJ6gAAAAaHTnlOmM3MgAAAAAAAAAxzLTPqU4zEBqVLmKEZAmBRm2YWE4GwY1knnKYTiTEReYzn4LwIELlN1ZfYAAAAAAAAAAAAAAAIBL0ALWJzAAAAAANDpzynTGbmQAAAAAAAAAY5lpn1KcZiAxaJRJUBigUQyqKIX2ARAS+DVMQUV8+R5Cvm1o0CGqQ6dzZKAAAAAAAAAAAAAAYjlUAP6ZRgAAAAAGh055TpjNzIAAAAAAAAAMcy0z6lOMxDFklIlQAxQKIZlGMxkmfYi8EoA0Jm7YvYA55zoIOb40qHVwbRAAAAAAAAAAAAAAAAAAAAAAADQ6c8p0xm5kAAAAAAAAAHFaXedOBkKU8pJKgAMUCiGZRFJYp4T5GUYP4c/JvvKwAaQzacaHDSodXBtEAAAAAAAAAAAAAAAAAAAAAAANDpzynTGbmQAAAAAAAAAcBBIx1/kbkylAKYASOWcUYyOLLJFLkItKQTUW8ajDaGWqWeZVmpEzQNKRpUOrg2iAAAAAAAAAAAAAAAAAAAAAAAGh055TpjNzIAAAAAAAAAOAgkY7biAypgAHnL9IsJoJiKWYeGa5/CIyomm8ywJRKcW2QGZ1mk80qHVwbRAAAAAAAAAAAAAAAAAAAAAAADQ6c8p0MG+QAAAAAAAAAHAQVw3GAAAAFjEgF2AAFpn3IGJrABYpcxhgYam0g3RGxIAAAFOOfU/gMyTamAAAAAAAAAAAAAAAAaHTnlPqd+4AAAAAAAAAOAg+QAAAAAAAAAAAAABv2OgYAAAFunBKAbezqBAAAAAAAAAAAAAAAANDpzyn1O/cAAAAAAAAAGqI/AAPMcthMh0SnpPUAAAR2X0eoAAAs8vAAnMztAAABoaJfMfzQSbezqBAAAAAAAAAAAAAAAANDpzyl0nemAAAAAAAAAAAAU04FTJc7DD8ktkLE0ltlvn9JDMWSTCWi0DwlYKCSGR6eQk0AiYlkAAAHL8dIph4cgRt7OoEAAAAAAAAAAAAAAAA0OnPKdMpuXAAAAAAAAAAAAKacCpkudhwL7ICMmSJz8H7JYMXiQiXyJD9n8KiXqR2eok0AiQlsAAAHL8dIph4cgRt7OoEAAAAAAAAAAAAAAAA0OnPKdMZuZAAAAAAAAAAAAKacCpkadaB+z5H2JMIwP4CUCLSwjI8i0+h/CTSLz7nvMiwC1ynl8AAAHL8dIph4cgRscOiMAAArBlKAAAAAAAAAAAAaHTnlOmM3MgAAAAAAAAAAAFNOBUyXOws+h8z9EkFJLLLsLuIxIbMpyOj5lwF6ECE2FgkmgAhkmYAAA5fjpFMPDkCNpZvGLpAABAxs7AAAAAAAAABgYXsADSKaejpjNzIAAAAAAAAAAABTTgVMlzsjLjPefIqR+yjlYBGJ4ySD3FJK0CkFXIyJNABZp5i+wAAcvx0imHhyBG0s32GYoAAMNDMsAAAAAAAAAGGpmUADlqNTB0xm5kAAAAAAAAAAAAppwKmQR1cktnrBFpKQPyQ6fouAkIH8IpJXBZ5bZleAARKX0XAAAcvx0imHhyBG0s32GYoAAMNDMsAAAAAAAAAx4McyVjI0vAHLUamDpjNzIAAAAAAAAAAABTTgVMlztlIeP2S8YlGWpF5RiYz7FrEeEhlvFvkokWl4F9gAAEPF4l4AA5fjpFMPDkCNpZvsMxQAAYaGZYAAAAAAAABiWZaH5MciNTNk5ajUwdMZuZAAAAAAAAAAAAKacCpkudsoPERAXGWaS+VwAAj4tEqx9iUwAAAAR2WwS8e0HL8dIph4cgRtLN9hmKAADDQzLAALAPCAD9ElgAAAxLMtADFEyuNMBbZncZqgAAAAAAAAAAAFNOBUyXO2UAAAAAAAAAAAAAEVHlPoaDzoYMMzkCNpZvsMxQARyfMxnJnKmXAWYeIuE+RJZjwZGEBFQMiCKTyEwGLBkeR8RMSiTGDFEyuNfhlUCWQAAAAAAAAAAACmnAqZLnbKAAAAAAAAAAAAAAAAYAHIEbSzfYZigAwlLiLKILIsMxiCSaTC0z2MQTZ+R6Y4kIE4FhFYMfjc0anDEg21mv03xAxRMrjX4ZVAlkAAAAAAAAAAAAppwKmS52YH2AB8i9AAAAAAAAAAAAADAA5AjaWbniSgAYqFcIjJWPWSWRSTwW4YkHlNl5Dpa5hYbQTFIu0w+N8xp5JhNYhnUbiAYomVxr8MqgSyAAAAAAAAAAAAU04FTJc7Ny7gAWcXiAAAAAAAAAAAAAYAHIEbSzfYZigAicxzIpMwyXSPSiFinqJYPEYmmXZDxf5QSjnsJsMZzKAjcgokoyeBiiZXGvwyqBLIAAAAAAAAAAABTTgVMlzs3LuABZxeIAAAAAAAAAAAABgAcgRtLN9hmKAADDQzLLTNXZkWQyYmkoG5M1YmUJfRhoSSUsw+Kwbyj9AxLMtCIyHD7GXJr8MqgSyAAAAAAAAAAAAU04FTJc7Ny7gAWcXiAAAAAAAAAAAAAYAHIEbSzfYZigAAw0MyywDF4/RaZZBGZsZMZyLTLst4jcuUgkqxs8PWCGjCozXJjANfhlUCWQAAAAAAAAAAACmnAqZLnZuXcACzi8QAAAAAAAAAAAADAA5AjaWb7DMUAAGGhmWAAAAAAAAADDUzKABr8MqgSyAAAAAAAAAAAAU04FTJc7HivgAoBI4NbJcpIZieZemHpeZcBapnMYin7JSKae8xRNpxrMNr4AABgAcgRtLN9hmKAADDQzLAAAAAAAAABhmVQAHiJsBLIAAAAAAAAAAABTTgVMlzr8LSL7Pme8pAKwaqyUSmmPZsQMLyUDDguEynJFMYCIzd8aaSFjZiQybgwAADAA5AjaWb7DMUAAGGhmWAAAAAAAAAAAAReeYEsgAAAAAAAAAAAFNOBUyXOw8oJTS/iln4PgTMasCYCiGPZluYlElFVJDPuRqe0v49p9y2iPy3TaqAAAYAHIEbSzeOXQAACBzZ0AAAAAAAAAAAAReeYEsgAAAAAAAAAAAFNOBUyXOw8o5cpJIBGJJxExIZgcZxGBZ5CdySjE0mMyAMRjIggQj4ugyPJoAAABgAcgRsfOiwAAA9plIAAAAAAAAAAAAReeYEsgAAAAAAAAAAAFNOBUyXOw8sYl8vAAiYlkiok41jmRxgEXMWIbSSKyFzZUa0T1nxMaC2zc6SmAAADAA5Ajb2dQIAAAAAAAAAAAAAAABF55gSyAAAAAAAAAAAAU04FTJc7Dy2S/S/wCKSViKS+yIC9y2yonxLpLOKOSEW6VApJ+zznzJrAAABgAcgRt7OoEAAAAAAAAAAAAAAAAi88wJZAAAAAAAAAAAAKacCpkudh54T7kugEWEpkVEqgAAAAAAEUkrAAAAwAOQI29nUCAAAAAAAAAAAAAAAAReeYEsgAAAAAAAAAAAFNOBUyXOw88J7CWACJCWyJSWgAAAAAACKSVgAAAYAHIEbezqBAAAAAAAAAAAAAPIRgDX0bXj+kXnmBLIAAAAAAAAAAABTTgVMlzsPPCfYl4AiEl4iYlkAAAAAAAiklYAAAGAByBG3s6gQAAAAAAAAAAAC1CxD3kqH7OUU6tz9kXnmBLIAAAAAAAAAAABTTgVMlzsPPCR4U89JTSTiciLyQj3AAAAAAAiklYAAAGAByBG3s6gQAAAAAAAAAAAQ4XESCADlFOrc/ZF55gSyAAAAAAAAAAAAU04FTJc7DynlUJSAItJSP4RMS0AAAAAACKSVgAAAYAHIEbezqBAMSTFwyQAABjsZEgAAgsyCMuwCBiZypAAHKKdW5+zTSaSDfibXAAAAAAAAAAAACmnAqZLnYeW4XuSEARaSkCJyWAAAAAAARSSsAAADAA5Ajb2dQIBioW+ZlgAAxKMtQAAYqFAMygQmTCesAAHKKdW5+zQ6c8p0xm5kAAAAAAAAAAAAppwKmS52Hlikwl3gESktAiQlsAAAAAAEUkrAAAAwAOQI29nUCAYqFvmZYAAMSjLUAAGKhQDMojwrBdYAAByinVufs0OnPKdMZuZAAAAAAAAAAAAKacCpkudh5Ri5SSgCLSUgRQSuAAAAAACKSVgAAAYAHIEbezqBAMVC3zMsAAGJRlqAADFQoBmUQyTMAAADlFOrc/ZodOeU6YzcyAAAAAAAAAAAAU04FTJc7DzwnoJcAIpJWBEZLgAAAAAAIpJWAAABgAcgRt7OoEAxULfMywAAYlGWoAAMVCgGQpdRWwAAAcop1bn7NDpzynTGbmQAAAAAAAAAAACmnAqZLnYeeE9RLQBERLoIoJXAAAAAABFJKwAAAMADkCNvZ1AgGKhb5mWAADEoy1AABioUAm0l0AAAA5RTq3P2aHTnlOmM3MgAAAAAAAAAAAFNOBUyXOw8phSSQgXiRWTACJiWQAAAAAARSSsAAADAA5Ajb2dQIBioW+ZlgAAxKMtQAAYqFAJyJYAAAAOUU6tz9mh055TpjNzIAAAAAAAAAAABTTgVMlzrpLEL/PYfwjQusvwpBRy7wAAAAACnF5l3gAAAwAOQI29nUCAYqFrlUAABaJdwAAPoeAm8lsAAAA5RTq3P2aHTnlOmM3MgAAAAAAAAAAAFNOBUuYzdAAAJDOmMAAAAAAAAw2NEQAABH5h4TAZRgEcHTaXKAC2SrnvABHxziAFEOmozbAAAANaZoyBApjsdMZuZAAAAAAAAAAAAKacCoAAABLh2on8AAAAAAABroOWoAAAAAAHbuXqACyS4SqgAiA4sgAdehsIAAAAIgOGIAHTGbmQAAAAAAAAAAAD8kGgAAAH0LlAAAAAAAAPIUEAAAjc+J+QU8qh8y5z9HjPYD8nkPaAeI9RbIPmfwlwrp6ChlUB+T4HpBTCHgCkEvE+gAAAAAAAAAAAAAAAAAAAAAAAAAAAAAEWHnJbBYRZBOgBigZXgGJ5lgAYpmVgBjcZAFRBEx6CUQRKesk8EUHpJOBD59yWQAAAAAAAAAAAAAAAAAAAAAAAAAAAAACLDzktgsIsgnQAxQMrwDE8ywAMUzKwAxuMgCogiY9BKIIlPWSeCKD0knAh8+5LIAAAAAAAAAAAAAAAAAAAAAAAAAAAAABFh5yWwWEWQToAYoGV4BieZYAGKZlYAY3GQBUQRMeglEESnrJPBFB6STgQ+fclkAAAAAAAAAAAAAAAAAAAAAAAAAAAAAAiwj4t4FML9LVAKyUYAqxSQCqlLP4C4i2D6gu0j8qYKuUs/AP0VgooKSTkSyAAAAAAAAAAAAAAAAAAAAAAAAAAAAAARYeclsFhFkE6AGKBleAYnkuFuk6Gs82MEAEyEQlsktHqICMgCUgRKesk8EUHpJOBD59yWQAAAAAAAAAAAAAAAAAAAAAAAAAAAAACLDzktgsIsgnQAxQMrwDE8gkxnI7Nl5h4fEsQG6kwzIUI0Nr5KIIlPWSeCKD0knAh8+5LIAAAAAAAAAAAAAAAAAAAAAAAAAAAAABFh5yWwWEWQToAYoGV4BieQYXYYwGbRhGR+S4Y/G+UxsMOCPjbESiCJT1kngig9JJwIfPuSyAAAAAAAAAAAAAAAAAAAAAAAAAAAAAARYR4W6Cml/FpgFaKKAVggEu0uwgglwg4uwl8xBMhCgH3JMKoCrlLPwD9lXKKCkk6ksgAAAAAAAAAAAAAAAAAAAAAAAAAAAAAEWHnJbBYRZBOgBigZXgGJ5lgAYpmVgBjeZAFQBEx6CUQRKewk4EUHpJOBEB9iWQAAAAAAAAAAAAAAAAAAAAAAAAAAAAACLDzktgsIsgnQAxQMrwDE8ywAMUzKwAxuMgCogiY9BKIIlPWSeCKD0knAh8+5LIAAAAAAAAAAAAAAAAAAAAAAAAAAAAABFh5yWwWEWQToAYoGV4BieZYAGKZlYAY3GQBUQRMeglEESnrJPBFB6STgQ+fclkAAAAAAAAAAAAAAAAAAAAAAAAAAAAAAiw8J9jwlslePiD+FPKiAU0qQBTCpgHzPwfcHtLWK4D8nkPaDwHuPWVItwuUlkAAAAAAAAAAAAAAAAAAAAAAAAAAAAAA5EiDwdExmIUYlEAx4MhwDHYyJAMejIUAhMl094LFPASSCPT9l/gjg9BYZysA+J2xgAAAAAAAAAAAAAAAAAAAAAAAAAAAAAHEmY3g6tzYQWQToAYoGV4BieZYAGKZlYAY3GQBUQRMeglEESnrJPBFB6CLjijB9Tv3AAAAAAAAAAAAAAAAAAAAAAAAAAAAAAOJMxvB1Rmax/S7QCJSWgCJSWgCJiWj+Ajsvg9gKCUUvgFrH4LsBZx9SPjjFB9Tv3AAAAAAAAAAAAAAAAAAAAAAAAAAAAAAMMy3AZDF0AAAAAAAAAAAAAAAHkMXAfoztAAAAAAAAAAAAAAAAAAAAAAAAAAAAAAAAAAAAAAAAAAAAAAAAAAAAAAAAAAAAAAAAAAAAAAAAAAAAAAAAAAAAAAAAAAAAAAAAAAAAAAAAAAAAAAAAAAAAAAAAAAAAAAAAAAAAAAAAAAAAAAAAAAAAAAAAAAAAAAAAAAAAAAAAAAAAAAAAAAAAAAAAAAAAAAAAAAAAAAAAAAAAAAAAAAAAAAAAAAAAAAAAAAAAAAAAAAAAAAAAAAAAAAAAAAAAAAAAAAAAAAAAAAAAAAAAAAAAAAAAAAAAAAAAAAAAAAAAAAAAAAAAAAAAAAAAAAAAAAAAAAAAAAAAAAAAAAAAAAAAAAAAAAAAAAAAAAAAAAAAAAAAAAAAAAAAAAAAAAAAAAAAAAAAAAAAAAAAAAAAAAAAAAAAAAAAAAAAAAAAAAAAAAAAAAAAAAAAAAAAAAAAAAAAAAAAAAAAAAAAAAAAAAAAAAAAAAAAAAAAAAAAAAAAAAAAAAAAAAAAAAAAAAAAAAAAAAAAAAAAAAAAAAAAAAAAAAAAAAAAAAAAAAAAAAAAAAAAAAAAAAAAAAAAAAAAAAAAAAAAAAAAAAAAAAAAAAAAAAAAAAAAAAAAAAAAAAAAAAAAAAAAAAAAAAAAAAAAAAAAAAAAAAAAAAAAAAAAAAAAAAAAAAAAAAAAAAAAAAAAAAAAAAAAAAAAAAAAAAAAAAAAB//8QAPBAAAAUCBAMGBQMCBgMBAQAAAAQFBgcCAwEIFjcQFzYVIDA0NUASFBgzUBETMjhHISQlJkRgIigxoCf/2gAIAQEAAQUC/wDzXPOzaMEtJtgaTbA0m2BpNsDSbYGk2wNJtgaTbA0m2BpNsAkmp6Y+P+sOz7HhY9ef9Ydn2PCx68/6w97t+yn9uugduugduugduugduugduugduugduugduugduugJZ1SOPj/rDs+x4WPXn/WHZ9jwsevP+sOz7HhY9efkTNWNBbnrMA56zAOeswDnrMA56zAOeswDnrMA56zAOeswBlzLKys8dJFxpIuNJFxpIuNJFxpIuNJFxpIuNJFxpIuNJFxpIuNJFxpIuNJFxpIuNJFxmHqV2LGPPWYBz1mAc9ZgHPWYBz1mAc9ZgHPWYBz1mAc9ZgHPWYBem2WjGGV1VcUjNPSRcaSLjSRcaSLjSRcaSLjSRcaSLh9olaKyOdks/Mc9ZgHPWYBz1mAc9ZgEXJhhxx1pIuNJFxpIuNJFxpIuGy3u0G9pIuNJFxpIuNJFxi0i/wClc6TBhVz1mAc9ZgHPWYBz1mAc9ZgHPWYBlMd7neTI9yc8p4LCos3X1plgDTLAGmWANMsAaZYA0ywBplgDTLAGmWANMsAaZYA0ywBplgDTLAGmWANMsAaZYAzQIjTIxH4eSm/YtMXwJQ207sPt9lmIt0ywBplgDTLAGmWANMsANFuMW419MsAaZYA0ywBplgDFssD9K/597JNt77k55QRBYsmZT7CLHlC/SjpCrg0jdQ0gaGkDQONkwSJk2yYOk8GibwxOoSuVJkkc6oE9Nqg02qDTaoNNqg02qDTaoNNqg02qDTaoNNqg02qDTaoNNqgupBxPoIorOUydTUa9eGjGeNGM8aMZ40YzxoxnjRjPGjGeMyzabifCgydpqcqSZoxnjNiRIpkt2Psd99Vfoz0xpNSp0aMZ40YzxoxnjRjPGDWbFOGl2yCzZsuK7y8sjl5ZHLyyOXdgXmGSLWtONoWGohGrpZBIoy1pdtDRrQGjGeNGM8aMZ40YzxnSRUZJThkm299yc8oIZ3ZbfqFRS3XJqSXVHUSxQljAYISxVhUzCZihFL0oTi4Mz9LKV4zQw+Ap4GaLYwZLN0xm/wB4rH2O+8vhupiV1b3k42e7I0bQNG0DRtAraJi1QXMl3WoHSDKTQ526gUtw1crvK3ezx+mjJNt77k55QQzuy2/UP7gsX9cGxx/xrfnBIwqsOfxmn9jwM0WxgyWbpjN/vFY+x31HH552pXVveQ/Odw6UOED5RWQK1KwUvko4u+o97PH6aMk23vuTnlBDO7Lb9Q/uCx6vjbfFH/W45+GGOND78Zp/Y8DNFsYMlm6Yzf7xWPsd9qY9o1pXVveQ/OcNQuipHpqwrpXUWlYLljKgQVlhfMn0U9ZxLLPezx+mjJNt77k55QQzuy2/UKqsKH+yLWNpo8UP1jhd648Zp/Y8DNFsYMlm6Yzf7xWPsd51mL1+2XsWSthK6t7yH5zhiySv7XBQTU9VLaVME6bKlfVlDvZ4/TRkm299yc8oIZ3ZbfqC3Xjbc7co/bb3FF/8XLw/8q354zT+x4GaLYwZLN0xm/3isfY7qkok0gg3E83jWErq3vIfnO+mee72eP00ZJtvfcnPKCGd2W36grWsTDsbFz91tcU+n4HfwTavmHb4zT+x4GaLYwZLN0xm/wB4rH2O4aNFiJZPsGHSe4JXVvet/J2rNLnWMKdUKw1QrDVCsNUKw1QrC441q9SmUJ9xY72eP00ZJtvfcnPKCGd2W36hj1+yukOJPD/d3Bof5gt4zT+x4GaLYwZLN0xm/wB4rH2OKwuJyHYLpCg4DPE616DSlpY0NLGhpY0NLGhpY0NLGgYZeBunl0mjl0mjl0mjl0mjl0mjl0mjl0mi00Lli3pY0NLGhpY0NLGhpY0NLGhnOSrqanDJNt77k55QQzuy2/UP7g43FBnU4LTjNi6oOCxSqOw5YKsn5c8XDkUq0hCRk6hHSfGaf2PAzRbGDJZumM3+8Vj7AVFtIRbWKs4loJLbJJl/3TkQ0RedFEeR/rJopCSiLPuTnlBDO7Lb9Q/uCyU4iZQbjXbN0W2u2bQt2rVmmin9h+Bx/wCaU/Haf2PAzRbGDJZumJxy2OeUX1btPmrDTiqbwTW2hJFz3h3rCjrlF6k9yc8oIZ3ZbfqH9wWRT8Dc42MPmHyKfiMPfx2n9jwM0WxgyWbp/gTvWFHXKL1J7k55QQzuy2/UP7gsX9cWvxRKf1Xwi041uTx2n9jwM0WxgyWbp/gTvWFHXKL1J7k55QQzuy2/UDF3Cw+Wba/YaXFCqw7bDdx/VR8dp/Y8DNFsYMn9hSMSV/vTt/sp5Dsp5Dsp5AyWc5K3YJuk1bN3HUimixsqco4r61Q30yPpZbUm0pEzttcdL5mdqx2pLsyNtuny2YtlHFJjSE3pCT7k2to0cb8utFzKrdm5quhzP+YWvGl5yyuitBvlpvRjpQzODRLNFpuxBeyCtyikIDmwx/XDunesKOuUXqT3Jzyghndlt+oL3+Dkb+GGCDxR/wDxdIQPhpVvHaf2PAzRbGDJZunh14rH1UypmktzkLZlz2sWuns9MthSadiwFVTtLSVF1mzYTOJzykByhdSGWy2UisRGzW+sUoqbStxd/VLmqVtER+xW0SZzPMtAhferIe7ZZGYbM/JrJe7XzRbGNqdWS1IkcdgnZhdnnFzLcZdRssfl/vHesKOuUXqT3Jzyghndlt+oHrPzL0aVz95q8SOH6PAL8kMuOHXZn2Irt5TcCSkJNjMTDpmltSixniXozDw/cMNWTGE9rrxktlsAEZ5iRQNBelFlN5Wakhs963VNUTUUhz2jXCzeWU60lMyTWNIVTT+w3ZXYLtV+/mi2MGSzdPDrwycsN10q68lohW8mqKaySxkucLqaiTSCCqRqT2XGPpnFYOk09MguMmpLcIRLO5lurWaxXSsVa2YsXbMVqqXczR5lI4UZHjiLJtZzra6U/E5xrkMqyZczH5zD5Ohp5nlVLuwYwnzGlyK1F9IbkiNpIrdfUMR213nHs69471hR1yi9Se5OeUEM7stv1DHH/wDoDHrouM7iRvWq3iM6hWu21JUl+HD8b5cER0N+Hcq0msJmxzHay2Htcy7bqZqmcXLNnMQ5cXjlsnp4sZwxAcWXRE2WzLM37CXFeamm+zKnw4bcsT2YKljZXLgsm27ILdN34lkh4uBRSGflJSyyGu9/NFsYMlm6eHXi4uJRAFzCI3rli/YNWTiETQwnIRRQvO4Rp6dxUExNVy6q/oOjZx1MhjG8XIchxvnl59RsxSVhlM0rfbchNB3qMknIYbt1ReTAbTLSWuyLlC1JEAGXfdZzQv2TxqDE9WWF+KEtYKJyG3CbUd7KkW13jvWFHXKL1J7k55QQzuySciOhLF9VrUH0ZOR/VfpPsj9fnI1/VWvxteTW06WOjIuv2kM3bnQ1mMniuwgrtXKk6jCZHOUZ2t1EjRBkCNkJfgR2N1OkzMdJqM825mArbyPl8kAoltCp4u5kzTD+XOSEKzHOZJxpMlB73UFhThfk1ilk+A76ddfRRHSZJhDLLbWXzhleroreXfzRbGDJZunh14yrWBhNCJZoSHA2UkqsFltMKN2/I9wvaTIx9M7mYG0oJ8cMpQRlZoQ3atr59uoVyTYIZsnLyzEOWVJKIBhzoCO6W/BilWtukTI1UY5H1iz8gnsexZVcpLzbixJTWoflMwsbKZs13jvWFHXKL1J7k55QQzuzR2mcNfJqw+TVh8mrD5NWH6qRQ/wcDAZTrM2YbiixcKOuJZAuclYlDZtQsUUUxn5d1pbsJbGjpJuIcaSmWTnjEjYNEbMMsF1PGPY6cwi5Qh+4XO2CZoo22Vl0XlRLcjEfxfBMjOJyKeRayy30WM4/bh7v5otjBks3Tw68S1Au0Lig4UNKLt2wdMmSeKq0aasFdznHcI09O7i035dW7plpuNHJqMaOROWao0VkMsnRGjpEmxXH7qY6xJLYervsypFSs7Tad2t2bbj2e7KzYQ34VX78MrdlG0evk3yz4iJx4oQpHy9GLS7x3rCjrlF6k9yc8oIZ3ZTPM9xQ9R4nyJVTJOwy20udZdWjrejF/WqGplslLtFsS9mEWrb2acV7YZhmtTdb0IqJR/EVZITF0i31NDxzKZoVg8kw9LWFDTfHzl6OJdzUHL7pRsP/AJ4GaLYwZPTRonJfzbi1NdWFa/bJU0Jt7t1bHbq2O3VsKFxdWjKclJaPZ9yd6wo65RepPcnPKCGd2UzzPcUPUeKt2t2XW1X2/DRxDdbgWbUUu1XQiLIWzzqIwkut2F49SlhAZdTaeS/IaJHj7Z0sOqp1Uoie03O43kuMZ1yC3LTHeDoc1EXri+03hCjkOw2nVnrhLwM0WxgysajuSX2DMI7BmEdgzCOwZhHYMwjsGYR2DMIJShLxss0Xq3HuS9wd6wo65RepPcnPKCGd2UzzPcUPUfd5otjBk+3h76L6Uz2e2Wcm+4O9YUdcovUnuTnlBDO7KZ5nuKHqPu80Wxgyfbw99F9LK+V9wd6wo65RepPcnPKCGd2bRm4QOdsYDtjAdsYDtjAVGLh5R93mi2MGT7eHvomGGJEjjjUR9wd6wo65RepPcnPKCGd2fwOaLYwZPt4e+h+ST/Ie4O9YUdcovUnuTnlBDO7PvDZwoQsYPEkaxwPPMzTMuYl5xE6Ek7ipJWaLYwZPt4e+h+ST/Ie4O9YUdcovUnuTnlBDO7PFYcqYi1ETxVSIo7yQ1q93rly3ZtprvRlZRW3GQQaiJ8iqFfCPHySYV7ScbgBRoI9i/wAM6e6bW6ZzRbGDJ9vD3jBiwUsoFVN0im1YVp3uHIuIiC6KJDj/AFk0VdJW1n3JzyghndkKiwmIhf8AdczjCQhJaHbPVXSNs6iJKin/ACrlboSF9LW8OJt1WqjNtrXVOt5W8bCQifopuA+1rNZqlzmUiqmqmunvra9YR6SDcvXzfczp7ptbpnNFsYMrNTjsyXqSXxqSXxqSXxqSXxqSXxqSXxKLfl+S0Szl9mxPJES/yZL3GeP00ZJtvfcnPKCIL9ktKdToOLoS0ZFTzPzhMfOEwrWi92SfnCY+cJhXSkBaHbawgY3n42cLXyii4QU7ITy3zhMGLqeasRdft2mB84TFRojXTUi4I9Sa8CJk13V5bpR7CCg4puPdzp7ptbpnNFsYMlm6f4HPH6aMk23vuTnlBEJewblNYRmslk9LNL49JtUaTao0k1BpNqjSbVGk2qNJtUIjVa+KsUSGmZO4NRqY4aTao0m1Rg0mphhpNqjSbVGk2qHO226VTO4dOlU4m3SJoze72dPdNrdM5otjBks3T/A54/TRkm299yc8oIZ3ZdGGN6+S+C68zF+8VeD2u/tNC9dtlCxM1ZPFHpjjWh0nC1ZsIfq5quqlnGimN5ObChWqt0r+lbzxUC9KkE47ZtKOGOFWDu9G7ip/r7h7+dPdNrdM5otjBks3T/A54/TRkm299yc8oIduW7UrKK0iGHWirSJ266FtGoxeiyjGG9UuoFdLMcCNpRdXEM0tXFpFsvXUCCEVdRKFW2pJNccagQQ1ltGKYJC2i4uZSXka26u30INtSb6i2Gq5kYw2XQspBlL4mTNkmWaBa9Qk9/Onum1umc0WxgyWbp/gc8fpoyTbe+5OeUEO26LsrF0NEvvNrIiPeDjaiQoICoWQ1FB7BQg00ZDqIUIaOYerhRUQqo9goQUE9HJpy020cmU7BQhbREYs9G8jIt885EdGLGV5PREtDRmqjJ6Q0kVE+TdCOkl0vi8/8wmeBnT3Ta3TOaLYwZLN0/wOeP00ZJtvfcnPKCGd2W98N5YZdf7yALBG+ULBEIGCJxufCYVHtjjZboV8KbuC5V8TgC0VMYqzSo/Sy5CRg6nvX4LyMEj4rDmd3o3FRw+Zd/gZ0902t0zmi2MGSzdPx7BBv/MfIsUfIsUfIsUJ5JKocvi54/TRkm299p2+hDUCCNQII1AgjUCCDS8hYlRDty3alZFOIaXZRjbcRUrUCCO30EagQRqBBFK636RUut+unt9BFowjKC5fONwwqagQRqBBHb6DgNQIIqXW/UNQII7db/xOtcRLiRqBBGoEEagQQTNlFB8+BnT3TbK6iUNvM0rpJqERks3T8dFRyrpI6HbQ0O2hodtC8n2mqp+Lnj9NEXz284pSvaV/z97ka+74C8nkDSdxyWbp+I6lA0lN7sh2CtGdldBBtuVNI9kOwdkOwdkOwH2w5FG32Q7AsF3clpNivG7Z8LPH6aKP5+0r/mSJG1I5yXlocl5aHJeWhyXlocl5aHJeWhyXlocl5aHJeWhyXlocl5aHJeWhyXlocl5aHJeWhyXlocl5aHJeWhyXlocl5aHJeWhyXlocl5aHJeWhyXloOFpuZpXwhxu/nMQyesp3NCvwFO3XdTeS8tDkvLQ5Ly0MpkevlqSL4SkpFUglYzFQ2aB9/st8M53yoxGFfWZqjZvWixkudLWpPZV9yc6Y37fIzBHSi5T56wmlGjILSfdEkyUym8RSJfj04Y8LPH6aKP5+0r/nFm5vsZ1fC1HccfWLLw+sWXh9YsvD6xZeH1iy8PrFl4fWLLwYyKfzcKf0Rs8RdHKfFrV9w4fmjK5liqO1JGaSP0hlkM1qtaX4hzKF7JmGIvdCzBz1t/1F3f6zsxDANSE+YIl6+/CCI8rsfQNC7YsJ0GvkjCWBlJPn3RU0bpqop4GeP00QDl8QZcbftK/5xZub7F7YWqUTs8gOzyA7PIDs8gOzyA7PIDs8gLRexY92q9W5WTBf97Mq7ikk15tU4ohRTmOxwphuWYvRZWakAKj2Nyzcro+s9yXKMJ0naMFrtBjt8xLeWmD3uXNRNmI/bxkJt9RtL+PgZ4/TRkm299pX/OLNzfYq6fQrJTZUbiqg/gLt23Yt319hSQ4C0SxlU7Lp+M8GjeRYek1RcTMioigNm23rKIRdMXKLpwakD3HOvMWM7ZluO5ru4tTabLLSXgmxFJzQjlnQ5ZtlnEgNpbZl60YL+Bnj9NGSbb32l+Oo95Yu1lxs2UHmtF45rReOa0XjmtF45rReOa0XjmtF45rReOa0XgkeJKZTwEz/AEdzfgFhHTV9ORDjdt5msw60eQmXPhGwzbBw3ejiZM1Zsw5kAlhhgTnxMwYSpERQkqIjkaiI7bbPaiVZnpwoaKtlI2UG5edULnL0bPqTDCisSY0v4+Bnj9NGSbb32hjaWb6aaoz08gBTfsII5zmjAQ5owEOaMBDmjAQ5owEKJOgS5WVSGseLRwWLo0hcKndbN14rLnshJcCYtY8XGlX1Mkiq5dbT/fui65bCFfR3w4nq5WA+JARXRYcDttYR0uOhuuiG3TyOSLijUkICA71t9xWyH/G7okqmQbzdjlLl1KN2VGbyravtdcxO3GkpuqGHhET6spjQLqNoj4GeP00ZJtvfaGNpZt21mE0ctMy7o+M2v8NI+GkTjKLniRPcj2l5kJDKd6C/2zM84tmNE+LLiYVdaStSDdmKPpklyTER/Tm7qWAmarwasPyy9ZTuWZAkh9SBHs36lekkSelR5YNK8+ppWPJCb0ltzGRHG5XKRmNWbqvOUrOqIiDScqe8WzPE624ftIlS3Une9fXSXgOzpUr/AIlfCzx+mjJNt77QxtLNu2sxegz5tVwzn/ryzlx9TPRH8QLxIrHNxAi1UdWTlTOGDLKwwwl7KOeoS4szRp1aXBFh6S9TYyf1XKySG7DzKnyHyF+QpVOGLynnVCCqqbccmVIoVLQlm1a5QtGauqpz7YOXBWNMVwzpTW6I9p/j71zpplXQPn3gK1F4UUJq66VRO+feA+feA+feAUXA6Uy18+8Ar6xVEqzR+1Z8LPH6aMk23vtDG0s27azF6DPm1XDNeQXnU2HXOTgWCMWNBywHEcRstA0AexUmNmcbazaT5Ig5PcLVi3NenrrpZia5LV1s5Zi6808YvtLxCfTrTX4Pl2SWGvK7kMTDfup8cRqlMFsxw90iAQ/nw2J9NTA/YyrPzAhlXa5sxDiQHbHrdXyTkS/wCGfxbBTVaUNVpQ1WlAwYrcyr4ueP00ZJtvfaGNpZt21mL0GfNquDvd6rfVWg0EllpXBu7wMvd5WIUqiW2VGtUQuNVXaT04OY4iYvdPISA4SuLTmn9NJTcL7dlRPtEFlvGbV9oNUzjmzOqDJdvMJ/DKmqqizEvvbHYHzH+xR/sUf7FBDsrUvi54/TRkm299oY2lm3bWYvQZ82qDvd6rfVWg0EplpXFu7wMvd4KSlSyHTRXRdoDrdRFqJrQTTqci8Fu3WdsNopSntzjcR7thnFTNo4Vzt9bDKDs5+Pzx+mjJNt77S5Nkr4k0qXZKdC1MXoK6hJLlS3PZcZlFaDQSWWldxu7wMvd4O63h8mcJIjdvYr3zAU0ZDtJfD/AOBGLGKmUn1YVEONSfcUUGMzGJuOc7fWwyg7Ofj88fpoyTbe+0r/AJsvrGYvQJZLWb7kia2v2mWd56/Of+wQ/wDYIf8AsEGvzT7Qb2P6TCy93ltcpScK2oaXLZBCRUvCq1brpPMZrHq7x1cauFu5bvW1q/iVRmoS+faDEP0qjIk+hz3GbElLjpSa66LVDR+G0yoSvfvxLnb62GUHZz8fnj9NGSbb32lf82X1i62ynPFvFueSVR2jNQ7RmodozUO0ZqHaM1C4dnG5QyWeYbmLL3ebtFJ1XB6k1WSjlKeJJb4NK38jS9K6rbOaEX0SOtMjLlaaFjCLU/E3ajdIvUvHL9adCLRCpWPXrClui1E2dvrYZQdnPx+eP00ZQXmz22xvaV/zSFCtIVfrceg+tx6D63HoPrceg+tx6D63HoPrceg+tx6D63HoG9m0WEZzJ+c5RTjn1xKY+uJTH1xKY+uJTH1xKYSM5yil21nOiorCO1czyu0a/rceg+tx6D63HoPrcegVs3DgWzjQzgqDSa0zy/fmFZETZmzkVtCBpzMzNV4Bu/8AKlPrjUx9cSmPriUxCGY43Lzr/A54/TRR/P2lf8/e5Gvu+Ar+k8clm6f4HPH6aKP5+0qybxJVj9G0SD6NokH0bRIPo2iQXsnUSWrIjxCIuh9lMoUNnrdnJ7Dpmz9G0SD6NokH0bRIPo2iQfRtEg+jaJB9G0SArlTiDFTxyew7Te+jaJB9G0SD6NokH0bRIPo2iQfRtEg+jaJAuZRopTCH0bRIPo2iQfRtEgi+LGvEzn8DNHMcisJ8IuUKKFBHmrLRHUfxoMlm6f4HPH6aE9GV1L3RzyghndlsYfsmWNTjba41GZMVgkpUHjKCdNmL7rPG05ACjT8J5Y/W26ApqmJAw31AwoWFZRpSibkOmk4oCJ8wacTu9G4mcKbD28DOnum1umc0WxgyWbp/gc8fpoyT448vPcnPKCGd2U/DAu8GlX/l1M9QmJtadWltkNOnHG0T+Eq9HT8V24FqzjfSnFfp/dF//OPZsU/tmXX8VYeBWo41iRq2eJtb4rtTu9G4un/LXPAzp7ptbpnNFsYMlm6f4HPH6aMk23vuTnlBEFvG9KZlAMl3ihIJrBUdyEaxS3eiGiyNp46GYgnrzZU0E6VcxxBM33bp46E5tGDh2lMM3mJp46EBCNnVNHQzvb6shnqnFi3DmODRRjuDYZzcP6YcaKaLJ3FaTLaykNxTuK6L386e6bW6ZzRbGDK4WXj0l6Ik8aIk8aIk8aIk8aIk8aIk8aIk8RooOO9f9znj9NGSbb33JzyghndlxfDYVk2jGy7lLH5t2vqnGpomqb1wqikcUtHeH6WiVtL+FdCH6uYpwwj+9etF7DLtXbbYI04WnhcTr9xwggTuGLBUvbKFnd6N3C/+hOrv50902t0zmi2MGT7eF1lFdzy1ykNDlIaHKQ0OUhocpDQ5SGgusw5Gax7S5dfzrkfREnjREnjREnjREnjMcsLawyRkm299yc8oIZ3ZcpO+bIUp1ilUwKlsDR4lYUiVOHw4A+QKqZPgh+rl0au9drK2LxSmmm3TgQLUqHC0RK2Tgd3o3cXkilbTW+sYq5PvZ0902t0zmi2MGT7eGr+oDvTH7Vl7vdzMD0eMk23vuTnlBFBe4bkysusIdVhu/NWdK3hpW8DxIyVd+lbw0reGLWu4YVfNqdzFjOxLCVbKql/St4aVvDS17AMYiecrR0reGlbwVyZJEoJNZxLJnuricdLHEtTJLJHu50902t0zmi2MGT7eGr+oDvTH7SVV9YbLGSkuX2a6edLWIBHcKC4bHDMD0eMk23vuTnlBDO7IvtXEleLurAtfCxX8TqCi6Spc1g2zyzVbt0WqAqoqYt2f9ztzBKWkxbsu83dJtxm2baVQfUCKWV7ScDhCQ3U1Hr76ijHk46jLieuWO5nT3Ta3TOaLYwZPt4av6gO9MftJw23GOGGOCxEUbrl9uEVNpSeMwPR4yTbe+5OeUEM7s8DBYucsdgrCDgnN2zYbpRDdZ4unJqekle6qtpOVb9hHcZtVWUxZwVSDWsWzXhK7cLqV7UagiAuZLnLHDOnum1umc0Wxgyfbw1f1Ad6Y+8ccyUSO6tSxq1LGrUsatSxbdqNWY8CcNt+JnfEYRWhS0Xpydx5i4objxIi+j3Jzyghndn3l9npX7+FD3TxqRRsU5pWs8HzIDcs3S7ezRbGDJ9vDV/UB3HA7mw1KG+8Ws68JyPkksmVlKOzxdDkZiOY84ng12lQalKOiJe9LcZlrSCZLnHJekdiFlZUVktDIp83ROqG01SILBKRnM327iVl2LTt4Od8tBl2mrILLewxxwwwMzfExQ9gokK09AfrKdRucNt6pCY9K3wM74iK/UaOuUXqT3Jzyghndn8Dmi2MGT7eGr+oDuZjaaaoUgaiiiHZ7wwqR8m9NPKOObVqGcxUu26HiuZxrduiIZeIkjGXyI3KchB/mrdvHMQgmLc4z27tF1okSk0NEZebHDDGGF+7HljKvCim4Wfl7yvkbrpTM0CNWlNeWZMPSIWIN5DTEWLVa7HM+Oe6fjeX58VabUPZdURQQJ64Gd8RFfqNHXKL1J7k55QQzuz8+o3TPzC2PmFsfMLY+YWxSoKFBv3eaLYwZPt4XZrPnl8WYMfFmDHxZgx8WYMTfjM3KqIKpq5Yvh2P5fUcm+0eatpnTTUhA0ZfhnORtHLH9Pz2jFHlcnBi+9DsxMKvk1mMmcqXNxRlfsWLUIZsNmFGKaicVpLhRpyijKapVJzVzUK/xR7KzBOxbUUNlT5SPE3mDmUS2aTkBHR195OtjRd/VNwM74iK/UaOuUXqT3JzyghndlM8z3FD1H3eaLYwZPt4av6gO47WQ2n0Qpy3QvRRJEcMtuNlmxoy4/wAFEiTVE9mm2X2Q8Y0ZkgYUs6LHQgx/S2CqwoprVTFdcbrLkZEsRzBipUlqLKR7ktNpsONPj5MYqUhoUUx2z1dZa8VyBUx2XGpA2unm8TIWoOjO8TIoaSlJDbjdoNFRmFvIqXHiTDkdoS/wM74iK/UaOuUXqT3JzyghndlM8z3FD1H3eaLYwZPt4av6gO9MfBcRSDiSmnoQrmPzHORQa8QSEmlI3XrKpejWf816gacLeTrNkunzegFoyX4pRSCoUkhKS1knB5hoVSlmHPX7iat40NnMVCR69G7/AJtOXna/MMMKcOE4bbhxP5lNIc2u1Q20Z8qb6EV+o0dcovUnuTnlBDO7KZ5nuKHqPu80Wxgyfbw1f1Ad6Y+DnOr6chlm86Hu+nO13hKDbqaT0fS/eic89Ut2wq6+SqS27N5JQ2MtOl4RjHj1ZLodqSpohdstZbU5FcTVkWRmMWbDjcEkG4rdzmhyQo1c1tFsV13bPB/tS69mo32kqux9N2PWO0u5FfqNHXKL1J7k55QQzuymeZ7ih6j7vNFsYMn28NX9QHemP2rL3e7kV+o0dcovUnuTnlBDO7JVRTyhzttGHbaMO20YdtowvnyJxT4ZjH0+Yxb7m55NJusp+XpcjmGHXMEvNVr25QoVI7d0wv8AdjilmQIiXMwj9eEeNN6O2Z42ZrefCI4GO1HXI0zWL8jOuLXfKcq4sgyYbU4Fy0byZzZa0Kzk6XHIi6tEG4i5f5PkKWFjv5otjBk+3hq/qA70x+1Os+Q0x7fsTuP2J3H7E7j9idwymupNNRo65RepPcnPKCGd2bJhyKqiZcjgRl/5d34WrNtymB8i7goW3gRIJ9DwPEPkneM35detRjI5HModYuWw0UUYtyr2ZNrjmNE6T7aPAJddrk3NETVKYclm048Mq73WJGdB+ZWutM7L3ABRcrh3OGUV7UbF6HXczVfJO8QuXX/qJc7ccSYyHI4k+XzGWLHGp69/NFsYMn28NX9QHemP3R3rCjrlF6k9yc8oIZ3ZbfqFRe3jJLabiOsI91nNO8NCNQVMRs1W28UuJCwMzDZekiph50TocTIqi5RhVgQohTLETUQLspKznjpAmNgu9wxlIUzK+YxkvB9s51xvXK0Wx7ZkdVazHbcjwrZPR+7ZZdktxQbeR668phMEI0jaqKm7F7XcOjoCjYzFrXglnSGyXV380Wxgyfbwus0rtmWebZoc2zQ5tmhzbNDm2aHNs0F15HJNWPcnesKOuUXqT3Jzyghndlt+oXrmFl9s6jG20uJLH/d4K4UmHsev3ipIm+5VQ5CWVYkgJFiWnQnImEzraNOUyyPVGLKj9XWHCzJEkeQI6eFDnd63Iq+bViKSzXvI1Ejv95p8es8u/Ha3nGwJmWleVZ8mA3E6Ax6TlCd4GaLYwZWjS0QkzXEhjXEhjXEhjXEhjXEhjXEhjXEhiNSDhtGfcnesKOuUXqT3Jzyghndlt+oLuONLlb1OFKBxSsfjdoQ6f1Xbl23ZtyIkLDak+W/2HJH8hXKXLlqkVkGnusq6+dlmLYr2wl35Z2Ecvy3ebeN8xYLW7KItsjMDmWxLuWIpf/3M+3mgqWCNMF647ojan2fAzRbGDJZun+BO9YUdcovUnuTnlBDO7Lb9QULHzTyalz95r8UOn/Xg2/UFJOIrCe1IwYbIulWm3STjTI8ZaOsJjIa6OtqDDaCogIDfR2umJUftBEXzkXsNQcTjbSE7kdqsRosm2lM1rol1vsBnta8jMJooFK9HjLc6YxSRZNTPAzRbGDJZun+BO9YUdcovUnuTnlBDO7Lb9Q/uCxMf9p8UKrDtsIVX6LnjtP7HgZotjBks3T/AnesKOuUXqT3Jzyghndlt+of3BZP6Yt3iR/Qs8wVxoLvXx2n9jwM0WxgyWbp+7vX7Ja1U9kCuqpeXruEi5oMI0dP/AN4HesKOuUXqT3Jzyghndlt+of3BYX6YtHjj/i/Qr/5RzeO0/seBmi2MGSzdP3KstpiJa/fdq3hZZiJhcwwwpwGbfein+IO9YUdcovUnuTnlBDO7Lb9Q/uDfvJNk9/jhX+4l01KLgvppVlfLqNgPGxduoBYxZOFvGaf2PAzRbGDJZun7g0vHlQ0kNsilXe5m33op/iDvWFHXKL1J7k55QQzuy2/UMdwGRTTSz+JK1bpeI/8AoZWP7SH4zT+x4GaLYwZLN0+Jl8PY45o6jltyDc5ARMOQETDkBEw5ARMOQETDkBEwtQ5HVUs8gImHICJhyAiYcgImHICJhyAiYOdgo8dukm/XgWePG4ZNPIwTJlU8r3c2+9FP8Rm7eToZVnnnLnzOUp0OB3tD3Jzyghndlt+oHr3yzzaVr9lq8SOP6vDgi/FYcfjNP7HgZotjBks3T4sfr2HO/Y327z96yem73BWu3nGoWLFkrZ72bfein+Izx+mjJNt77k55QQzuy2/UF7D9XI38cMUHij/+Tp4UVY2334zT+x4GaLYwZLN0+LH69hzv2N9u8/esnpu8HGq300oipJdETu/m33op/iM8fpoyTbe+5OeUEM7stv1C/awvvpm3f32lxQqcO2+F3rjxmn9jwM0WxgyWbp8WP17Dnfsb7d5+9ZPTd4In+tLXgZt96Kf4jPH6aMk23vuTnlBDO7Lb9Q/uCxf1wbHFEq/RwcMccan34zT+x4GaLYwZLN0+LH69hzv2N9u8/esnpu86j5kgiJqeXSk/wM2+9FP8Rnj9NGSbb33Jzyghndlt+of3BY9XxtvjZx/YfPBPqwMPDxmn9jwM0WxgyWbp8WP17Dnfsb7d5+9ZPTd5S/Q87fBzb70U/wARnj9NGSbb33Jzyghndlt+ofHTzEZqqmp6LU6mxRjQ6mxcqsmC5mi3V++/ODU/UxT4zT+x4GaLYwZLN0+LH69hzv2N9u8/esnpu8k/EYdHg5t96Kf4jPH6aMk23vuTnlBDO7JJT7FVTeCupvMysIqljbWkGyLqygX8FgszzJBtqaQiJGrCQPvGiyRQFkkjImrCQ1YSGrCQ1YSGrCQ1YSGrCQ1YSGrCQ1YSGrCQ1YSGrCQvOY8ZwQkrsZM8DNFsYMlm6fFj9e24wdaWpaIlAaIlAaIlAaIlAaIlAaIlAUxU/KV7REoDREoDREoDREoDREoDREoAjHToqcL03eanxVVeDm33op/iM8fpoyTbe+5OeUCKsKLeV/qlnQfVLOg+qWdB9Us6D6pZ0H1SzoPqlnQNHMjNS269OHhpw8NOHhpw8NOHhpw8NOHhpw8NOHhpw8NOHhpw8NOHhpw8NOHhpw8NOHhPKw7I4jr6pZ0H1SzoPqlnQfVLOg+qWdB9Us6D6pZ0DpnyV3ohBlP11x2q/VLOg+qWdB9Us6CieZbtKKNHqwoo/LFTHLFTHLFTHLFTC1HywnI5WNlW8W5YqY5YqY5YqY5YqYdrHXEFq/UTNI+omaR9RM0iqdpYuLGXhdVHPFHgzVBLId1v6pJ0H1SzoHzK79km2Mk23vuTnlPBj+3TdfmlUwaUTBpRMGlEwaUTBpRMGlEwaUTBpRMGlEwaUTBpRMGlEwaUTBpRMGlEwaUTBmoQiRCHvGbTXTbjc0omDSiYNKJg0omBzNdNttsi1UzEjpRMGlEwaUTBpRMEhNpOsMHuZWdjfBkHoHuZJtvfc44YY4cr40HK+NByvjQcr40HK+NByvjQcr40HK+NByvjQURlG9uvRjSGjGiNGNEaMaI0Y0RoxojRjRGjGiNGNEaMaI0Y0RoxojRjRGjGiNGNEaMaI0Y0RfYjJNW+V8aDlfGg5XxoOV8aDlfGg5XxoOV8aBzxtHVgoZaMd0KeimeNFM8G2qyCJU40o2sndFM8YI6Zhh2Qmj9pm3CXZCaOyE0Yo6ZjhjaZmCX2QmjshNHZCaKrTOtJ1SMl1YaKZ40Uzxba8ZYW6GazrlCbfMIxLttbBBfvGVQk6FFRKdtrY7bWxacZntGhyHjNfba2O21sGV+/hhdaEf8Az+imeNFM8Hm0w0so0EZIQln867fJpXVvB1dMEOrOLe+xx/4nFc8vxX/vFPK8L3XTJ6Q4L3UDT8hwd3lUP1fg/wDo1F6k/Ou3yaV1bwdXTBDqzi3vscf+JxXPL8V/7xTyvC910yekOC91A0/IcHd5VD9X4P8A6NRepPzrt8mldW8HV0wQ6s4t77HH/icVzy/Ff+8U8rwvddMnpDgvdQNPyHB3eVQ/V+D/AOjUXqT867fJrlCL2/8AASHwEgdto+JNwUIPaPwEh8BIfASBu21uxPgJD4CQ+AkK7bV0r8BIfASHwEhbttbTfwEh8BIfASCZQ3PlKKCHwfASHwEg26EfBdJW0P5T4CQ+AkEmhE7duUIvzfwEh8BIWraH88q0I/bXwEh8BIHraBiVRepPzrt8mldW8HV0wQ6s4t77HH/iOF7tBpVpMoRwunMccMMHDLMa2r1tRIXiFczRRbqRHI3nMXcFVNNwrN8TYXjL/ZRRPbz4aDsrvShHevGT0hwXuoGn5Dg7vKofq/B/9GovUn512+TSureDq6YIdWcW99jj/wATNlTTjCk0I7Mt5Z3u8XktNIwipCK3ozVrkb5gWDgn2c1bFpKHM10+KJx2S8SSkqlE5ek46jLK66Wojw6UPpStnGZPSHBe6gafkODu8qh+r8H/ANGovUn512+TSureDq6YIdWcW99jj/xM2OycbxDGWLXzNIpxCeB40WU0thpnMLMyksttv3MrCC+di50TtToaeU+7ZvkHQ5k1zRzliZDLW4fIJCQh5wmT0hwXuoGn5Dg7vKofq/B/9GovUn512+TXbpFNX+3aB27QDqoUOk3DSnJqj27QO3aB29QDhRGTUTt2gdu0Dt2gVlEbBqO9uM1+2W7ZRGomGVQmcLl4Wiy62SFSKkJaXHcboi88GsxH9ilNlpKrdJQ7EhGhXT20uobQbbNYVltxTGh94klAimlO3aB27QEm+RVF66dJpZvt2gdu0C0bIqp5WMk0xb7doHbtAPHSCqVRepPzrt8mldW8HT0wQ6s4t77HH/icVzy/Ff8AulPK8L3XLJ6R4L3UDU8hwd3lUP1fg/ujUXqT867fJpXVvB1dMEOrOLe+xx/4nFc8vxX/ALxTyvC910yekOC91A0/IcHd5VD9X4P/AKNRepPzrt8mldW8HV0wQ6s4t77HH/icVzy/Ff8AvFPK8L3XTJ6Q4L3UDT8hwd3lUP1fg/8Ao1F6k/Ou3yZlKcRdb+B9i9eeRcKFbmUiCmnKJFT7QdI7QdI7QdIxQTyYmdoOkdoOkdoOkVIJ7BB7QdI7QdI7QdIqQj59G7QdI7QdI7QdIsJCgqWbZ10W7faDpHaDpCSVVDS8m0uNGIdoOkdoOkFi6yprNqhfSLnaDpHaDpF20vLF+/QsJ6taMu+/V8D7CukPNbTUXqT87LMqySTkjnXLY51y2IPM3nm03M2m5abdKeQUnVpZsjSzZGlmyEgkTOkNLNkaWbI0s2RiSJ4pOlmyNLNkaWbIViJIsm6XbI0s2RpZshTIEU8FWw2sS2lmyNLNkWUxNTXyzm43r7V0s2RpZshRR0hOcjdQUM6X0s2RpZshyISIRtt1BQzpd7ECCFjzrlsc65bFiY5VtmPzsxbr8MtXQjq6YIdWcW99jj/xOK55fiv/AHinleF7rpk9IcF7qBp+Q4O7yrT8hJfleFH8/wA7MW6/DL5eMp0ZrjgvKCLfu3kZxatKDVpQatKAjbOJKdq0oNWlBq0oMbZzBF1aUGrSg1aUB6k4oJWrSg1aUGrSgMYmVmku6ytBfVpQatKAkcqVXe2l6lLb+rSg1aUF9RxWnAkLOCPRq0oNWlAsK/bIS1YwjUvI6ZWifCj+f51Xy+Q8vKv0zQcPpmg4IsfNVupmmUsaZSxplLGmUsaZSxplLGmUsaZSxplLGmUsaZSxplLGmUsaZSxplLGmUsaZSxplLGmUsaZSxplLGmUsaZSxplLGmUsaZSxplLGmUsaZSxplLGmUsX2iimrH0zQcPpmg4YZZ4Pwx/wDzBf/EABQRAQAAAAAAAAAAAAAAAAAAAND/2gAIAQMBAT8BXFP/xAAUEQEAAAAAAAAAAAAAAAAAAADQ/9oACAECAQE/AVxT/8QAchAAAAUBAwQGEgsKCgYIBQMFAQIDBAUGABESBxMUIRAVIjF2tRYgIzI1NjdAQVF0dZWWs7bU1TAzNEJhcYaRlNPWJFBScnN3gZOxtAglQ1NikrLE0dIXRIKXocUmVFVgY4Ol5kVkoqTBhKDCGEZlhcP/2gAIAQEABj8C/wD210Q3XTKsgvU9PJrIqBiTVTGRSvIoQdycg3bw6rdL8P4Pa/V26X4fwe1+rt0vw/g9r9Xbpfh/B7X6u3S/D+D2v1dul+H8Htfq7dL8P4Pa/V26X4fwe1+rt0vw/g9r9Xbpfh/B7X6u2bjmTZimrShjqptUSIEUOWXTApzkTApTGKBhuH/uzB8K6d4xT9jJwRU45S/7swfCuneMU/YycEVOOUv+7MUq2amerp1PTxkmhFUUDLm2xT3ALODFRIP4w26Rnvh2B9Lt0jPfDsD6XbpGe+HYH0u3SM98OwPpdukZ74dgfS7dIz3w7A+l26Rnvh2B9Lt0jPfDsD6XbpGe+HYH0u3SM98OwPpdjGkYVaGMSlDgmRV8xe54Bl0rzBoSqubwD+Fv/wDdmD4V07xin7GTgipxyl/3Zg+FdO8Yp+xk4Iqccpf92YPhXTvGKfsZOCKnHKX3ycHKNxioKmKPaECGEB/QNuqJU/083+W3VEqfwgb/AAt1RKn8IG/wt1RKn8IG/wALdUSp/CBv8LdUSp/CBv8AC3VEqfwgb/C3VEqfwgb/AAt1RKn8IG/wtScU9r+qFmUnUsFHu0QklCiq1eSjVuumBihiKJ0lBC8NdujdV+Msr9fbo3VfjLK/X26N1X4yyv19ujdV+Msr9fbo3VfjLK/X26N1X4yyv19ujdV+Msr9fbo3VfjLK/X26N1X4yyv19ujdV+Msr9fbo3VfjLK/X26N1X4yyv19ujdV+Msr9fbo3VfjLK/X26N1X4yyv19ujdV+Msr9fbo3VfjLK/X2kqhpmpqqYyqEjDoJuRnn7jCk5ekSWDNrKHJuyGut1RKn8IG/wALdUSp/CBv8LdUSp/CBv8AC3VEqfwgb/C3VEqfwgb/AAt1RKn8IG/wt1RKn8IG/wALdUSp/CBv8LdUSp/CBv8AC3VEqfwgb/CyYLV/UqgJLJOEwM/NuVkDgoioGrnkzheFqikqtqyqZF4xqEGLZUJx62wNtrWa+DC3OmU3NVRG8bdG6r8ZZX6+3Ruq/GWV+vt0bqvxllfr7dG6r8ZZX6+3Ruq/GWV+vt0bqvxllfr7dG6r8ZZX6+3Ruq/GWV+vtWUxHz9VIv4qlKhkmKw1FJKAk8YxDxy2VwHWEh82skA3DqG2l8n9SaTmBbZ7TzY8wKgKinfdzucC+3VEqfwgb/C3VEqfwgb/AAt1RKn8IG/wt1RKn8IG/wALUXOy9Q1W4k5ano18+X5IZJLPOXCBTqKZtNUpCYhHsBbo3VfjLK/X26N1X4yyv19ujdV+Msr9fbo3VfjLK/X26N1X4yyv19oV88nasM6dxjRwufkjkyYlVUSnObCVUpS4hHsBbo3VfjLK/X26N1X4yyv19ujdV+Msr9fbo3VfjLK/X26N1X4yyv19jB/pEqfUYf8A4gbt/FbqiVP4QN/hbqiVP4QN/hbqiVP4QN/hbqiVP4QN/hbqiVP4QN/hbqiVP4QN/haoX1Uzb+deNapUaN3EgrnlUm21MYtmSnuAc3nVTDd2x66ddzreTN7FRabjCLdSrKdIuBzYCCieXZlUxHAxRIXAO/eF1vao7wsv6db2qO8LL+nW9qjvCy/p1vao7wsv6db2qO8LL+nW9qjvCy/p1vao7wsv6db2qO8LL+nW9qjvCy/p1vao7wsv6db2qO8LL+nW9qjvCy/p1vao7wsv6db2qO8LL+nW9qjvCy/p1vao7wsv6db2qO8LL+nWlV4lNkDwJWDKUUX6rhTCZ+QD3JmdKgO5+D2SrAVWSTEasC4FFCEEf4nj+wYQH2HKJwGq3iCQ5agV3ybDS1aXijuBPJqpnFUW5ceIgPCgU1/YuC63tUd4WX9Ot7VHeFl/Tre1R3hZf063tUd4WX9Ot7VHeFl/TrU+oslHZ08SyMp/GqwbsUCYrw07UN9vao7wsv6db2qO8LL+nW9qjvCy/p1vao7wsv6dYeZRu8P/AMWX9Osb8Yf28vVPDJXiSI66ddzreTNsZPW7lFJw3WrCASWQXTIqiqmeRQKdNRJQDEOQwDrAQtNN4mh8nuiREiSNzkiwIRwurtZHSJ1M22hlU00/4wAoboR3N9ghpjJ/R7yResU3EK0gI1muvIOTOVEDtTg/jGiTZFFJMVlVzHzaSRTCbsAOPkGyXpAbWCAtTqnR/oHcFgUyLiAdkCEC3SVku+hKeo7dJWS76Ep6js6eGofJgcrRsu5MQrM4GOCCRlRKA7RDcJgLZq8LQ+TAhXbZByUhmZxMQF0iqgUR2iC8SgawCFF5LwENYCDNQBAe2A7R2duU6MycuVG7ZdcjciS4HcHSSMoVEgjCDcdUS3B8dmj9tSuTY7Z62QdtzZhyGJFykVZI120nZIcLdKeTb9Q49S26U8m36hx6lt0p5Nv1Dj1LbpTybfqHHqW3Snk2/UOPUtulPJt+ocepbdKeTb9Q49S26U8m36hx6lt0p5Nv1Dj1LbpTybfqHHqW3Snk2/UOPUtulPJt+ocepbdKeTb9Q49S2M7eUFRko0T3S7aCQTGWIkXWdVo3fxaKEioBbxzOcROO8XEOqzaQYQkA5ZvEU3DZckQxwqJKFxFG4zYpyj2wEAMUdQ67YT03AHKO+U0PHmD5hb3W6VKb8BxfotulSm/AcX6LbpUpvwHF+i26VKb8BxfotulSm/AcX6LbpUpvwHF+i26VKb8BxfotqzdsKfhGTpLkfzTlpEsG7hPHVEKmfNrIoEUJjTMIDcOsBu2JpvJx7GSblomSVKg/aN3iRVSzdPFKqVNwmoQqgFOIYg13CPbt0qU34Di/RbGbRrJpHtgp2EODdi2RaI4zGd4j5puRMmM3b37I/kk/7AewVGAlxZ2KdNsA3CB9KJo2AQHUYD5267s2qlE1MU6KSLenc0mMJGYSZxu/E+ENF1YrrdKlN+A4v0W3SpTfgOL9Ft0qU34Di/RbdKlN+A4v0WwFCnIEAALgAIiPAADtAGj6gt0uwXglh6PZ69bN4SCiEHz2PjUWVNwDt2+2udHYunz5xIsXaZElnbdQEUkiEHNgBzHETYS9Em/inRvqK3RJv4p0b6it0Sb+KdG+ordEW3inRvqKx13EwxQRT1nWWpeikkiAIgACdQ8GBS6xt020/wCBaA9UWKg1qaFcLHvwIoQNBrKmuC8cKacOYw3AFmMTKRsFNMZorsI5+pT8M0kWj5khpSjN4Rk0QZuWrhoRQ6ahEkzJmTwmxYiiHS7BeCWHo9ulSm/AcZ6LbpUpvwHF+i26VKb8BxfotulSm/AcX6LbpUpvwHF+i2yfDFRMZGCu9qPPDHsGrMVQIhD4AUFuknjAuIbr+3sVTwyV4kiOunXc63kzbGTjhnT3GTe1acKg82KZsg9NeKrehXLdIPelK6nmx1TB2jjohQ+KyU+4qGVi0JHGvFxsMLBBFkwE4lai6WXZPFnz9ZEoHVxDmiGNgKTc4jACVZzoAH88yphf5zBApHH57CC1ZzwgP8wyplD5jbQKnD57KpycvU0sismZJZB3OvG7dVM5RKcijaJNGoHIco6wEtw2dU4zVdDDng2cpHtHTld4Eaqi6Wj3jdo4dHVcEZKJggYqInEqZsWG4DXbLiK3X8Qy8tDlx74NW7xReMD4giXKHs8uiXUkjVNSkSIHOpkPLuVzFKHYLnVjD8F/sNb/ACd864PYm+Asnx7Tmwfg3B/td2R/JJ/2A9gZx5rx22n6eYAAb4p7btXjv5mLRUf0Wq7uamv3eQ5eBhI10Me5m56qirSJUkllmUewmJh28O0TXA6GmrjgRTE5TlTzgnwmw4R6Zay8YXI6+yOsnZ+a3TNWPjA4/wAlumasfGBx/ksZSPquqEHxAEWyzyTGTaFUABwg6j3SYoOm5h58u5PdzpyDrtRbiaaNlWzqCnnQRi4aQzTqRi5iWrgcyrekso0RM6KiJwExC4x1DZLbFlS7DPmEqGmt4lrnjFuvKlnyEzhgxBvdu04slDRiC7aKfu2rlsybN3LZ01aquGzls4QTIsgugsmBimKICAhbJ+soOJRXbJQ5t6856eVMYbg1BeI8vk57uqXyELsVTwyV4kiOunXc63kzbGTjhnT3GTe1acKg82KZt8jf+d2YJj/IryzcPgK2mH6BA/2Sp8oNwbltSJc4PaF9MGzQD+MEee74h2auajqTcbRTSfxu2CkSqP8AWgdfs85wrqLjFT2Gt/k751wexN8BZPj2nNg/BuD/AGu7I/kk/wCwHsFPx4DeSIayNROguvAFVExhIsB7HNCvXZg/I2q7uamv3eQ5eiu+OUTjN7yr6OZEFSRjJRWu6TRExSBJM3YqJVTApKGTwEWFZ+4ANdxNNQN70bS81Kx7mRa1AiyGEkwhX0yirEgwRbOKczTVq9PHvWkuk5FdqoVMTnV98YDASWbrtlmRQhqmUZx7k+NxHRa+2S0THLDjVwqMY1RJLBiHN4cN+q2Tr8m/83FeXyc93VL5CF2Kp4ZK8SRHXTrudbyZtjJxwzp7jJvatOFQebFM2+Rv/O7Nj/zj6dV/WT0mcP8AgblKxXG/mSkDGkv/AAG8UEhq+DOS5tlQPeuqSQEfhFhMOMPzBJD7POcK6i4xU9hrf5O+dcHsTfAWT49pzYPwbg/2u7I/kk/7AewTFTDrJOPQTjB3XQGJxs40xQMAXJvVxcPC/wBFyFqu7mpr93kOXorvjlE4ze7JquTaxG0INzSpIcxXW3SsCVPP6ZtmDrQSSKjQM8Vto4l/kxVv3VinKN5TlAxR7YGC8B+ayWacHj5NgtpkPKJFA6se+KQ6YHFIRKVy0XSOZJwiYQKsiYxdQ3GBUGwM4KpnyoqylMSCqqVM1c4TAhFJimJXNHM2kHCQBjwkOrvA5QvAq1pWJ5GqkbzT9g5jkGJo4V2ouHzc7YqozjM7iETYoqK3nUOuQxSe8xbm1BNzCBhQNKIiYN4wpQCxBEPgG7l8nPd1S+QhdiqeGSvEkR1067nW8mbYyccM6e4yb2rThUHmxTNjHNqKWjBMI9oAmrxtTt++rEtHZr9/E9TB4a/4cS/KVl29vWPzci8Bdsx/BSYvH4peDw/tH2ec4V1Fxip7DW/yd864PYm+Asnx7Tmwfg3B/td2R/JJ/wBgOXa00wUOnI1GKrY6yV4KR0KkBNupQDXDmzpN1QQRH/rThL4bItWyZUW7ZJNBBFMLiJIokBNJMgdgpCFAAtV3c1Nfu8hy9Fd8conGb3ZPHBLTBaeUWMsenCqtAjxKornlGQOND21JFKHvvbA4BPCOD2vcbJ2cmybP2p7hM3doprpYi86cCqAIFUIPOmDWUd6x9oqlnYy4oAg1dLpz0amJbsJDITCbl/o+q7Ak6R1c6JbUM6dIpt3pJGqGL5FE4qIEfxjKRjnujqDrO2M5amFMR14BC/Xy+Tnu6pfIQuxVPDJXiSI66ddzreTNsZOOGdPcZN7VpwqDzYpm0uoXnk8nT85fjLIKiH/ELQKYbxIaLIH+yyQDlK0T/CdQjr9ZCNm39z2Q1bltSJrx7RnsyW4P9oI//h7POcK6i4xU9hrf5O+dcHsTfAWT49pzYPwbg/2u7I/kk/7Acs6kn6wINGiQqrKXCYd8CkTTIW86q6yggRMhbzHOIFABEbO6imEs1MzJUg0QRA+0sSjjNHwxTheUVU84ZVyYuo7lQ115CkutV3c1Nfu8hy9Fd8conGb32Ck/gqzKUA/AO2NR6h7Q8vk57uqXyELsVTwyV4kiOunXc63kzbGTjhnT3GTe1acKg82KZtJIBvrZPXiQfGpJKE//ADanlf52DiVP67BA3/55Sp//ABIql1x/GFSoEP7LYNmqF8IXM2NOxBTdnGQkjLLF/qS6fs85wrqLjFT2Gt/k751wexN8BZPj2nNg/BuD/a7sj+ST/sByq7x4uk1atkjrOHC5ypIopJhiOooocQKUpQs2n5Jus1hWKmfpuIdJmSXcOAvKSopVscAMkthH7iQOGJAo504AqJSo7FXdzU1+7yHL7TuJdrTlT01PS8pErSmZK3es5J/JLIrFRVXb7ZRMhHSAorgkoU6K4DrKchbBieZPDGu3Ri1W6IUw9sCDEqCQB7WIfjt7qyfeNzn1Nb3Vk+8bnPqa3urJ943OfU1vdWT7xuc+pre6sn3jc59TWzactk9YCfc6Zt+4kxbgO+oRiLWMK5OXsFFdML+zamIuCf7cp07tzIz0qVQrpMXMq2cJjpLtD7m22lJF6dwKRR3CZTXlKAp38tk57uqXyELsVTwyV4kiOunXc63kzbGTjhnT3GTe1acKg82KZsN+9yGDf4atS/wQESBezeQGKIEH/aJcPKVAPbgqX/faq2ZiWx4wmail3aRu21ZqlhGRg/oqNIkhg+A3s85wrqLjFT2Gt/k751wexN8BZPj2nNg/BuD/AGu7I/kk/wCwHKEWfrCB1z5lkzQTO5kJFz71rHskQM4duDdoobkNZri3jZKTqhEGzNuoReJpYFCLot1UxxJSE8smJkJGUIbWmiW9s1HWAqqACobLmUbzU7ErvEWqLokY5ZkQW0POggoYjtg8EqhSrCG5EAELdOFXfSoj1Jbpwq76VEepLdOFXfSoj1Jbpwq76VEepLdOFXfSoj1Jbpwq76VEepLAR3UtRuyAOICOxgXJAN+EBF4E5QNbopJ/Q6X+zduikn9Dpf7N26KSf0Ol/s3bopJ/Q6X+zduikn9Dpf7N26KSf0Ol/s3bopJ/Q6X+zdipIVVVCCJNREkFYRFIgX33ETTgykKF49gLdOFXfSoj1Jbpwq76VEepLdOFXfSoj1Jbpwq76VEepLdOFXfSoj1Jbpwq76VEepLUBnJmYlc69qK4JRVmoCOBCH1o6KxaXCfFrvv3tiqeGSvEkR1067nW8mbYyccM6e4yb2rThUHmxTNvkb/zuzWJRqKlVY9MmCMj6mdjDSbdiUcDZqnIIqOSPUGpC5shhaAfCUMRjDrte0XoREgh7YE8+l9f4icfFAYB/GticVNQrcOznWL0pfixHqVOzkUq7o9R2VBUzdrDQLqVdqLlTOYiWaQqN8fdnAA9rsrOmm1JyXetmDKTOok3aDGmZlWcFitrUG7Y7EUF5BU9ywCsbHeIiXDsSkgiGJyi1ORkS7FnZBwINo5G7s558smX9NoyKTHESOYtWYHuuzgt0SJmVEPwlTFxD8I+zznCuouMVPYa3+TvnXB7E3wFk+Pac2D8G4P9ruyP5JP+wGwCsrItWJT35oq6pQVXMHvGyAXruVf6KZTGG2bgIsYhmbUM7UjdRJQS3iGOOp0DoyCxrtZRdmaF/onDVZSQUUcSkyuTNuJqTORd+dMTCfR2+AibaOZYh9obJpJarxAR19d000nYaJmmqcPVKybeXjmckgmsDmmCgsmk9RWImqBTCGILhuEQs4a8gtG6OFMs1wQ5F4PNAsMq+TFUCaDcBxIUAv7QWrFhCxcdEMSvohUrOLZNo9qCqkK1FRTR2iSSWcUu1jdePXTrudbyZtjJxwzp7jJvatOFQebFM2+Rv/O7ISzpqi6lZvOPJl65RSVcOXZllCqInOYDCDRnhzSCXOJJFAAC3NadglPykQwP/abjbmVOwSf5OJYE/stwsCaKaaRA3iJkKQofEUoAFnGAAKWQpRuovcF2dVjJVZJE5rtRjkSkhLfv3XB2NilIjdYV5k0s5AvZa0+2Uep4v6ITB2fWE5wrqLjFT2Gt/k751wexN8BZPj2nNgaqiJ+Bj2gxMew0eSCQ0gFWYr4zfczVdMUzAoF2sBsQgr0owIUgFvI1l5Y4XBdeGJ3Dlt/G1WzCxbwEUIdNnAtx+DOtklpYAH4HdjOGEa3TdnxZx+rjdySuLfBaTeGXfrB+MoPXtO94qq/e6Ws54JsuOJC1Z91QnErbrp13Ot5M2xk44Z09xk3tWnCoPNimbfI3/ndmyf8ANvp1P9Cc9JkD+zykgqUdxG0zGtT/AJeTkn7nD2700Y8oj+OGwqN96cVS6JADtLTsqsY/6c3AE6wnOFdRcYqew1v8nfOuD2JvgLJ8e0594qd7xVV+90tZzwTZccSFqz7qhOJW3XTrudbyZtjJxwzp7jJvatOFQebFM2+Rv/O7MFB/l1pVyA9srmXfuCD/ALRVOUrRYf8AtOJah+IhTsWuAfoUeG+fYrNwPvXUIwKP9BvCt3t36DyhusJzhXUXGKnsNb/J3zrg9ib4CyfHtOfeKne8VVfvdLWc8E2XHEhas+6oTiVt1067nW8mbYyccM6e4yb2rThUHmxTNllzc6jRCio/EnMCcf2WppPUH8RRZzXb2cVZoqqD+lQ48pWhOyWbjz/oPTEFd/Y2Kzv7FUlL+gKYpq7rCc4V1Fxip7DW/wAnfOuD2JokXIoxjjkJkTCutHhIlMlt3TwGSzIummARMIDixDvXXa7DC8lMbhCHLKZ/kXDFiM9O0zWHbrDhuLfbpuj/ABVJ66t03R/iqT11bpuj/FUnrq2deVxDNEr7s45pxBBO/tY1Zwpb7As1raIcom51VCmkVkzfEdOcMUbQijueYSTV/NM4tw1CA0I+bdkX5om5JKrYDpimA86IDYVWjlu6TKcyZlGyya5AUJzyYmSMYoHLfrDf5ReUUjpaTSbBiVbQrIZB9mylMc6pGpTkOqUhSa8N5u0FnC9Ks6gWj2qh0FpZ5EnZRgO0yJKmZFcqK7t0CS5DCUAG4DBfv2eUbHQ1YrTkY7K0l0uR5bRocTnwlXk3oLC2atjb4GE26Devs0jKmY1MieRPmoty0hFXjKUWAEMaDBdFXmy6ZnJCiS4DXjaIh38PWKs7Mxaky2go6mXknLosE3SzMVXbNiK5keaoG7I3Bv3WeQzOByiO5iOLjkIltQ8utJsCDgADvWKZTOGxBzpdZihzwdu0lIwO2CScRKLQ8ihLMFot40ft0EHCqSzZxzQmBNwF9+8N4diztpSkJWWUAkeso2kJKiYAZSFaOktZ2u3Dp1HR7tbAIG+51FgEBC6zun4ss5ySx0M+mpSm30G/jJmMRYqx6AtHbaQTbF05ypJJ5kqZjkOF44rrr3VIRUVVx56OVMlLNF6fVbhD4HBWyiskqouBG6RFThr139i+zclVMqjQbPDgi0k2kMo8jHLkU87oibpJX3UBL9wYAEcI3X3DZvU9QwVYR8QrdpCykCYx4vOOCtW4SyJHBlGIuVjlAmLsmABuEbrN37OiMrDtg7bpO2r1tk6nl2rloumCyDpuummZNZusiYDFMW8DFG+0dXRY+q3dLyBX5jSbGnXTlOL2ukFYxwWZKQ2OO+7ETFKJ9yPbsxqSm3xJCKkCCZFUAMRRNQhhIs2conuUQct1AEpyG3h+C4bR9JO4KrlpeYF1tMDKCM5aSxWCRV36jF2DgqJyMUjgZXFhEgCF++FgG4QvC+4d8PgH4eWp3vFVX73S1nPBNlxxIWrPuqE4lbddOu51vJm2MnHDOnuMm9q04VB5sUzaZEN8Mm8jd9PWtCAG8ERGgHxaGjylYp/hcj7r9ZHKNr//ALLYrREOeCoWq5v/ANRTFPXeT6wnOFdRcYqew1v8nfOuD2JvgLJ8e05Y/BFPjlWxKegVEWjkGZJCVmHCGlEi2S6qrdmk1a4iJuZOQVbq5vODmkiJGOYDbkhtLiagczDlG9RSJnkIkjSSAOeQReRkbHrxbg/8mpzVIpueTELJ1DGoHcqPkmicaxWuRUUlJFwkwaMHWscyZORWBNe6/N4Tb91tMmk0qhnFihpcrKIJuRxjeJ0Y1ssCiEVHkMYQIiiAbnnxOe84mlKVSbQc+gGcRFomDWOlsAGHa6cZoYEHbV1zudEufQHdpmC64aKlUCmTTf1FCOM0f2xA50Xedbq3as63VvIb+kWzwiCSSJBRpZQSJJlTKKitE02dVQSkAAxqHG8R3xHlHXc63kzWj8llNSDCJrWtKzlczPzRcMTTUavGRaJX5CK4UpaddqtFEmDS/Adzhzg3CBThEQ5FlDKrKPpaVfKC5l56WcjjezEw9PzR4/eK6zCOovOlACgAWyI8OR/eoKytRA2LtwtFN4U7wRMJtrWrt0+TbEKI4SFF07MY12s2q/nQtls70N/K0/aWGAzjGUymT8fHTzpJVYDLsWcMZBzm+aYEDOWUa3aqYQ5oiYwDanKZYJJpIREQzamzRQKCzrNAd87PdvrPXpzqnHsnOI2iq5THR5aPgpSnHIkSKIyUY/dMXzdFwriAxQjnbQx09Q+3Gtlud1PIqR7d6uDdsZONlZIVFSPEVDFwRTF6dMAJ2TAAWpOPpmXWfu2tZsni6KkNPRuFuEfIIioCspGMkD3KLFDCBhNr3rr7Vv8AJ3zrg7UydUZ5xIQVAwKQtQpKqk2q8gygGiQNwllYdOJ0dR0TDn8/mhLugMIWrV0xZJR4TFCVfUTpsioqqkWSqCDkZiSOQyxjjcs+eHNcFxdeoAtR1RqmeSeR/KbC049mAwmcGpuoX8M1cuFyAQu5WTETnJcF7pmAkEDqoFMGQR8ycIu2T2KynO2jpuoVZu5bOKegFkHCCpBEiqKyRwMUwahAeXp3vFVX73S1nPBNlxxIWrPuqE4lbddOu51vJm2MnHDOnuMm9q04VB5sUzZ43/n6DcI/rZUxP/zamVf5yn4c/wDWjm48pUn9KEpYw/COk1OW/wDqkDYngrCZNCoy7Sn3jNVWKmXLdZcEZJmumVyxjnKGcKkwIN2K/wCYbNkDVi3ZC8EAbqysXPQzRS/eHTpaLZMil+EVACwzrxwoeKBErjTI9m+mCi2OmKxXJU4ls9WO1FEMWcAokw677ZxtVp3KYGwCdvTdWLkA4AAiXGlBGLiADBq+G005pmZUliU7o23CTeHnSvGmmaRowaAvGJPnBldFUuBJM47myzRKrFFXTcxyOG6VN1YosgZIwkUKskSCE6QkMUQG+66x29L1VFSrxMDGPHkWM2kykJz6gxj0jaQzZOybN3BZA1XyysMk5EpEHKkPOOmSihgUMCIPWMa6aaRgRMObx47gvus0ZpVoybrPrtDGVZS8I3cYtRRSeTMewaGAwjq3esdgafdSa7+oQRz54Gn4qWqSXRSuKbG6ZQTJ+oxASHAwZ7N3lG8LPW1PTKbmQjRukoh02exU0w50BF3DyrdlIpJgc4Fx5vN4tV9nUrLv2kZGsk867fvnCTVo3TvAuJVdYxUyAJjAAa9YjdZF8rKSzaGcnTTb1E7pOrGtOLKKnwEAs24hU2AEE38oY4J/0rbdlcaXF6Mm8TdRaLiXBw1VAopLtEotJ4u9TUKcDAKRT3l171pFOj6gQmVYnMbYJFayDNZuDkVQRMKUi0aKHKYyBgvKAgUQ13arTnCuouMVLO4Kmp0ZqRYKnRelYxM2q1anIdVO9eS2tCNTSOdAwEOKuBS7ciPsFb/J3zrg9ib4CyfHtOWPwRT45Vs6eyRytoqomMa2Tk1jYGrSWjFHhAYvFhDA2LINnZRQMcQIKiZy34jEAwOnrgOa3FZtULl30kufUi0jGhBzz10uYbilJf8AoDXZgq4bCrJRUm1ql+wa4VTX7ejOyrFtgG5dVq2cKkSw+2HIF2/ZB20WTcNXKSa7ddEwKJLIqlA6SqZy3gYhyDeA2dyb9UEWjJEyyx98bi86RMu+qsqcQKQgbo5xAoaxtSDaVTkk1TVFGu3zeI2w2zbryC8hILNmu1A6fnWyrnBzLXcUexZzz3uSkeexYukWmuexbrF8evlH7t+6bsmqLRwdZy6WTQQSIVE5jGOqqYpCgBQvtLU7JOW7Soo2sZl7ByaJkjykKqvEwIEVM3xlWWi3p0LlUxuKpgvKIKEKYr3JHlklWDeoaeX2tjqvO/SXjpUiZSZlrLSWLNke5gxRTcq4BVDcL4HADncipiyTAxUatO/VMV2gYqTEHEEYXiggcQI2w68Y7mwOElklG4lxgumoQ6IkDfOCpREglC7fvtljMnIsTleRgItDFdIiV0s2cwKThJubHcsoioQQMBbxAQGyzWESFxOwD9KfjWhAvVkAbt3LZ7Ho6/blmjox0w3zqpFL76+0YWXqCMgqrjmaDCpISeeN4eQQlWSYIPVU279RAy7ZZVIVAMTFgA2E+E4CWyrCmBbzUJForHn6qbuimg2bvAQzWHjniZVG0vJGA+dcZs+baJAGM2cOUlst+CRZGB8YxWWF0iIPDt5JBNYG27ucGRONw4b7rUYyM8bldcmrV4ZoK6ef0ZCLkCKORQxZzMpC4KAmuuDGHbtVWbkmCm2PI8EfgeNzaeJamh1zAywqDpQlQSMccF9xCiO8A2o2Fmq1oshD0BT0VLR7yp4ZuoQBp5ozfsnaSj5NZBQm6TUKNxijeG/bKq5h9FaUdEU5U1J0xJLOTE282upZRuuu0ByBcbPTltGbCBjnXFIR7IBalaelCNZeGkqEppg+SSVTVwKJwrDWRQgm0d8ycpgYhufSVIA74WofJ1ULo8lTNPN68k6ElTkNc6i5yJJpbYh78KZmqzEoqt/5FY5xC9NQhh5ane8VVfvdLWc8E2XHEhas+6oTiVt1067nW8mbYyccM6e4yb2rThUHmxTNh7I8hgjh7I3TVqZMQ4KBtJHFG4wGwKEbJkVQG7eO3VKKZg3ymLdylRJkOU5koKlwVwCBs0fTKoNmlRLfm1cBwNhHXhEB3h2KaflKbNOJ1Fi5N70qjZpIuWPwAYSLubVLGvKop+pVZKBeNWMSxWTlHbmVVaHLHHTSTIsZosg+wKFXPgzJi4r7wtEsaqI4bujHk3cawdgYruOh3RxVZtnBD7tIxzidYCDrIRUCjcIXBKRdT1RGQr9WsJR6m0eHUBUzRSKg0k1wAiZ9wZRucPjLacyh043MQJdzyNnfgIlTm2VKPZFKPlcwZFFUh1dsVQKKgZzMgQB3rfwl+HpOPa3s3ysQH8TVnRspEr7dsLm7xywcu0Y5NNwdMAFwo1eOETJifFhTxk501qMqhQhE15uTpZ+6TTAQTTeqxUppqaQGERzRHYHAv9GzCjoyQjKurSULTSVOxNPrN6glGkk3VYGdORJHHdKszCwBZD8JUVcAAN5rk5GWOJqsp6j45iAqiRczGRkHDaKjCK4s4k4PC6ekB+eKcUB1iA32iJtQDLz1ZKvajqCVcGFd9JOnL50VqZy6UxLqgkyKXUYw80OobfOa1A5XqdMVlU0BUacGqumGDbOMes3z8GMgJMJnDIu16qWAfeOj2yY5PFxUNRLOOZVjIRSoALeWkFYJ1UzQsghrSdNysit0cBgG4FVvw7LsnTdByzcoKNXLRdIirZdssmKSzdZA4CmogqkYSmKIXCUbrZVMjQrOHEFTEpKylLkcKCqaOYITWguGpTmvNmnJHzZXCFxQVBQ116hrU/lPFU5aVresK/o+rBEBBBkdGsJFEqypgIYiaKTcGrsgBuzaIsAarTMNT6mCrK4ryYo2mRDHiavZmQXI7lzCjzZFCDiiruhVABAhky379st8KzMc7SIqqPi2qivtp20e7qhqgZW735k0gEfh9grf5O+dcHsTfAWT49pyx+CKfHKtixztFWTeP0VM1BsmYyLx43vBNU52t2aSZBiuMquKaHYE1+q22CmT13TiQAcDyzSJgXWjI4bzmchTr2QkGzbCG6HN5soc9cFknLZZJw3XTIsgugoRVFZJQoGTVSVTExFEzlG8BAbhCyruLqRSkW7lYTqtVDx6sEZysY6iiiLKUTMRksuc2IwNlESnG8RKIiI2aTD+ecVWZqpno8TqsQhmjlMTgV01j4xJJoo8Rx7lVYV1U/eCW1NcLInybuzvuakvMamuUFnKx7GTaCYDi1kGiD1uJy34Tii5TUTxFv1DdYIh2vTNNT5ioIuDx1OmJoZXoY26MpKRMWdtHZ8lx8C6pOZ3HEAJcaxnB6RpRyLkRXMuaAiFhcCtzQVjKi0NnRVE1+LXffY8fOQVNmeMY5J8/I3o4suEHCheii/mVY+IeJw0YAkwlMuKZbtYbkphCHjpp4whYSeIVtD5qGeK029TfXjmU3kdHrwqaS5FcZgOcpRTNjHc67JuW1JUy3coqAqi4QgYpJdJUo4iqJqptSnIoU2u8BvvtMRdNSppdzAOVGUudtHSgMWbpJQ6QoDJrMko1c5jJmw5pU+MC3heGuzeXymQNPGO8EqSMzLUMtPlOoUDARspKIQUkRJbAnuU1DgYShqC6zCafYYyiHzdBu0AlMy214M5DmbRJWIaxJ1mbV9nQAgKIEKfGH4VmUxGUjAtDmBN2zXNSzWKkERvxpq5pzHtX7NYB17opDhY9Oz72kXtTg7LFLLSVP6agR8QSo6A4qBaLWjE1UTbgxTOLkjBhNcYLrNmy1K02s2ZgcGjdWDjFEWoKmxqA2SM1EiAKHG8cIBeNl4h3AUgRw0fNIyReBRjZWHi5SQwaDHS06lEHiI587FQMKayxTAIhiuxFvg8nE61hWj2QWDkdgX9LrBEuF3BjXbWLqRIwQKqrqiXcqAIqmw88NwuNAYRUFHpgo7daG1aRrQgJp3quVwQIikGBIm6OO8ULJz1Mqkm0YtZw3azCsJItStnCxASeJRzyVj2hhOZK4quZEdyIAbl6d7xVV+90tZzwTZccSFqz7qhOJW3XTrudbyZtjJxwzp7jJvar2ss5UZrL1Cm7RKZk+OCrZSnKfRIsmoi2UTOQVUDl1DvlGyFS0wkvNN4mllI+WaJN3DZRy0fSya5iMVHxGrY8q0M1KsmmJgzqYKEvAwlGy7kj2apuQdKCq9BgnU8AudcREVDvY5Nui1UcGOI4jnSMYw677XuKwqx2G9gUlqoQJ+kGCTO+2IJSYA34QS1cgb59KvtI4HT925Fg7BsVy6rB7zcW6gI4U3SixMec3tW/aOaNlm8cbQ2hnaLeIft8TzRUSLqLgmwLnHAmJujGvMN2u3RX/7CT9CtEto57pCwVtFrYBbPEOZpw8+U4gZw3SIOEVA1X367PG9YOaeUhzsDlOutHmTVSEUBAqsS4FkCqcgF/MBR5pjuw2l2lUSbhKKLKuRpcjxvIrHSj9FIL8yByN1kiRemXiUCjhBbPWlmcpKItHJq0lHAImTXUNmVIiBIQ45pJQAAxkjfNZakKYdFcFfKTlWTijQjo7WEdSDxqJWxkEWJsC8q6cnOmgF2AiZjjvlxfwh3L2TSQRla1K5jzCm4MLlAs1WBzKkImiY4FKVwS/EAXYrN8l1AvCVJPVJJshlyx6ayzeHi412k7E0iuCdzZQz9JIR382imcymHcYqTo2JkgfKwMnTDAyoM3rYrpVnFSRHbkukoJlAXC+JTDfeADaj8smSkzVtUFPRUcnVdPsYx0yj6lp9RqjpS5k0WKTYxk0xHPG7KOFYolO3DFOR8JNlTVqGHRO2RVbOxPHzjNRrLNYqUOi2VSbKpyDUiao3iGAcZcRbhGLpCccqxlVUgd9EScO5aOxfkQK9WcMnQNkkFFQbaK6IliEPbEzfBfR+S6l35Hj5apEpyo3abd4ZOmIxm0XYldSpNHBRIFCyx1AJdnBzQBdeoniyd5UolU7ijkWDOl6jWBtIfxEUsavTSD95jaEHQwjHiJi4cQmO2OF15iAIyziomqMWCIONsjovSsBQMF5FSPNG0dQil+5uMOLsWyl5W5lVxGJVpJvm9KsnDF+Z2tBOpPbIz5YqLRRMElSotiJCBt0KanYwiNV0gxQey825rauJOntr45wqm1lkqpk3kYs4kXBG8XHN3bdbNKHVWKIIODXAJrgtFVdUjdUqGTqMkqRgxdGzqz6ppZ4o6qWoVBOVNwk7Sg9CYXGxgN6mu+8A/hBCQxTANcpHDCIDeQ0pVuEwXe9NdqH2Ct/k751wexN8BZPj2nLH4Ip8cq2UqJYMUjUq6kk5WNcY5GmcUTiY8hrty2jo/CUC72cE5+eOYRtPQbfcRyjdjUTJsX2pirJuJBtJtkAvHNt1XbDSAKFwAoupdqshVk02RkJaYT01sLspHScPGLiKkfGRiahRTaFSaCQVjEADrriYxhHcgVrU0OklGnLIRrObatEwRaTEdIvkY8xnTVHAkeQj1HYLIr3Z24gp34DiFoVR0/dRbctTxIqP2XupsFzkMaP3M83Qjq9rNv2c3CJg0SkbjDvm/6C01rHUGseVqOPgqGCYhZjOyVYvo9zGM3EazI8avZWYIxcIqLSkoZu2ESqgU2jiUFTXgndamJGnQVJBOoKLPEpr+6EGAM0itm7jdq/dDdMuA+6NuyjrHft/CIfTQZ9eUyjVBTkgVxujbSwzJSPj2SmL+QbMXJkyhvYbZF6UmFlA2yqSsIdg8VMc+aPGU/X3I84H3wt4x02RJhD+SSw2aU0Q6zbKonN/6IlE1c4LyPnESKJK1E5wGO5AsRTrZV6qsIXC5anLbLLBR4HBhC5UZaKZAobGposeAtEM4e4MagpIhiHsjaXp6fQI4h5Vis1fEUEhcCQhiBwmocDFRcNFCgqkpvpqEAwawtG0BWM2eVjsnbdzMZKgcsXLNtWkak/esI6rMb1TDI8j7BHDGEIXCmmc6hRMKGMto3JFTcUyJJ1K/jmdNMiIlMSHRj5Fs/m6pdnERcJIR7HOiu5vMqus4Ag4zLDei2TFVxoTNNFMyxsa6+jIgQoqn9+qpg1j2RtXcnJiDp7PNcoNRyq61xlF5tJ67URdLmHWZxn41E1467wC2SxdJd4NYxuRB1WsC6TOoZ4vUcQ8oFyByiHNDu5RsZUpB/n1CG7FqAgY1QUXmUdNYtaaIKhDQ1O02KRa6TxJGUO022eClHNs4G7Sf4rRffqodXa/jJTe5ene8VVfvdLWc8E2XHEhas+6oTiVt1067nW8mbYyccM6e4yb2kgSkCtUWjwrVJIGSSo4dBZOBMZQ57xMJ3A/ot0Z/9Ob/AOe3Rn/05v8A57dGf/Tm/wDnt0Z/9Ob/AOe0ams/K6ReLOEVExZpoiGbZOHJTlUTPffjRDsbw7JHdS0xDzrhImbSPKtE3uaJ2kyL400/jAL7FVTyd0fiJrLnYKPXIHwgkuiol/ws6oRjNUzUOhJgRWn2y6Z25m7QubwNEk8DZ81bE1CCAqJlLv6rdTukg/FhmZf7KYWmKPpNCkmUhJZ1pKxsQgk0GUNFAcXLMHKBE0pJeKBc+eSSUOdvebGBddn1ORlOUE7qGOIqq/iSRrUkogRFRNJZVZBRJNwYoKLFvNrvxAPZs/kWkbTdHRDdIFpN40YsIdsCZBwkUeLIJI50cR7i4rxERuDWNm084i4OsWRQFBm+eNNNa3E3Q6KDkmaEvNefKGu/ftyCRsxAxTsrwWIUwlnCLaSrhQFulHmTEwkMBbrihm8PwWRiYxpTFMVbJJpoIMI9loL58k8NeQE0GyJSOEjGLv3CBLuxY8xWEBDLHYNzrLzjg4xbtsybJmOoLmaaLsnRWTdIBEQOrmyBeNpCOyVL0yJWpyjKpQoAD5QQMcqTl+osASEgniMIEXOZQvYA1nLeRRbOGCyCqbxB6mkq0VbGIILEcprgZE6Bk78QG3N2/Z0vTkNSkq8jgPInZJi6cxxUM6ZIZFhCOlTQ7qPz4YSrtkDoY9RTX3WlYSJlYmeRYlSbTEY2V3bMpjnKki6bBmlm4Y2xguEA1kus5mStadoiOWOk2cuyglGtVVVjBmkzFASpqLqCn2AxiBe0FhSjWTBWnpozl6ZJq20Rq+O9dndu3RkiEQMY7t2Yyhz3XqGG/XfZOTgKQgod+leBXcaxSaLXCAgIHMiBM7v++v8AYK3+TvnXB7E3wFk+PacsfginxyrY1OzJyMI3SnB6bllxzcc4Zu1lXRYhw7UNmWknGnOZJMiglz6BSGJiNnCl0l/KMm6Q+182Koq4MPOpNW6WccO1z+9IkUxzDvBaTqOSbqMlpfRG7CPXwg5YQkfnxZEeFL7U+duHizhUl45rOFTHdEGx4zad7NU+RVZSJdxIoLPo5uuqKoRT+PcuEFlkWZlBKgsgKl6IFKchRLiOxBeNcwdOsHbeSWLIHb7azTxkqC8e2Bo1XcFYRrZ4mVdQVTZ5UyZSYClxCNM8LInybyzvuakvMamuVqeBWqGh0KPntPaNJFOIlzVXFQ0gkdBRmRtpZIdy7SbHEpFzm58cYkELkwyfQlATjKAp2l3Ue1nmL+PTkHM1TbFBJHQkHR0jaO9VKkOJQATMY6mPGGHCeundCy8NGR+UxFLkgTlmz1Ven5jR1mLuoadIzUTReuJBq5FRRu4FMNKTKfO4BFO2TGHotWCQgsnbkXuGaCQM/lHK8XKxTw5jMQK3RO6CYWcmNcN7gedAmoamyosRSNKzcQi2axyqOBkxmBTFGRlQOniMCskigiUxilBQMS43mztwV0+mpCn37atqlfVWqSLSkUV2Ei/WUUVak0rEmsyAp9yI3HC7s36mkHDScFH0s4WaGqls7CVJKT0cm5A76AI9YHJtfGSjQM2uYnNjlES3gQTAahpaiHsJSU9Q7zPxsyds5ziDEiQJlhEmbMCNVYlTCGJNQBKUgCQoYVFAFttvtcMxmPusY4HIRoutetsVyJnRUDatRhEwdsd+01PoZQaFSlZsc2o7NSzp0pHx6d4s4eLF2oto0WxMYTlTuHOKmFRUVDiJrUeclXtnVLRUCsxqtg8jETS1RTQNRSbyxHwEMLQDORBQyZDEKXCJbj49xU+T2Fm4yPyb1bOLTDkRbujVPAspBdB1MU1CFAdqlWDxZthRXW3bZJdQBTWECmtTc1EcjjSlqcphzSTaLMWS2xLGvV4Zc50VS/cpDs9pEiIlEDAJBNiG+7DlBnaVMxVl6vkjPItGTRUSjYRmoIOTxZNEvXBoaRXVUEE8GIhUSfyeK3InLyERKINnzt4yeRqbxFU2nKiuum7Sc3kvTUHciQdZd8NV48tTveKqv3ulrOeCbLjiQtWfdUJxK266ddzreTNsZOOGdPcZN7TnfcOKYrlYHu13xU+5R3HPks+yftl2btHGcgLNnKZkV0hOkYihQUTOIahAbZJmshR8hR0ZDDMRNOVEzi41CJqKalm7eNiYIFItbGziGhDnFMD80FZYCiimkJ1BrqYjTqIv2dNSYs10jCRVq4WQM3SdpGLrKo0MtnCj2y2yQzcMBWsjTTnJzUkYqkAFHbR8zFy/ON3PlfLSSxlQ3lMQ4r7VTlfiSrLKZOJTJ0jOs0sNzyk6mg3bCWAcW+sQ5CJk1Dhz+MfawtLQkG80inoeiDZRKhfNDGzLsrxIxKDis6Q910g7zkkYhy3ikyTH31snHAOkPN+PszyjQz1vC1zk8coSdPyhguPJEM4ImemFQIBjPQllFsDdASnzi5s1qKspe8ysvnDZ5U04deDOzRKbN0XFxjgRTpNrn+blVVMYrx2qIE0lRYg4cBU7KRswyQkY9ZRuouydFzjZwLVwk7RK4RHcOEQXRKIpnvIe64wCGqzvbCl5eh5dzQpoOmEHDFigzq4jV6tJy0ss5i11kBXbtGpE25L1b0UDCochwTSCdIwVOgeZeRME4XTMJDpsZB6nppbw946bJGQOG8JFRC38HVxBkIyFvVg0YkgiUCk5HphvGRblkJC3AZu3bkKJAHUQ1whcNpPKvnDlpuZyqVPk1ra8Sg3aNHTeHfwsmfUYxSt3JzqKmu51th31bVFmVVQp7Jw9p9ibNibMSVcVA5bKuSCYpjIrFpqmlAIIajFWkhAedsHxB7DW/wAnfOuD2JpVpFu5ZQaJkiC3ZrR6ChSDN08IrCaSeMkRIUQuuAwm3W9dfY0xyFzOjDBEjcO2VLZ3PlfndX4dv8ObzZt+/fsdFehJlZFQokUSVfUkomoUd8pyHqASmKPw20iPyXLMHFwlz7IKHarYRC4QziE2Q9wgNukmd8I0p9obdJM74RpT7Q26SZ3wjSn2htAo8i8lHIs55jIuXb1/T50U27UjjHuGMu8cnOcTgAABBsZvFRzKNbnVMudFg1RaJHWMBSmVMmgQhROJSAF/aAA66p3vFVX73S1nPBNlxxIWrPuqE4lbddOu51vJm2MnHDOnuMm9pzvuHFMVysD3a74qfcpIbRbX7daG42q220navbDNG0TbDQ/urQ89dnM3u8O9rtRh8obKloRhR1QM6tO3pySkZZzN1HEJOEokUzPWDFKHhklHZlVExM7WVEpSYiBea1awlSngVsmc5TpImKasgdEqQi71noswZ4sdPRCkHOq5sS4ruZXXCB76Eye1WtCK0fQMxHv1Zdo5dHkqvj6fBylTcUrDqMiIQ6QNVEyv73LgTCnzId0IhlPXqaMhVKVyiRsREii0l3S8ig1iYp9Eq6UgpENkMUiR7jKKat6F3vh12nsncS6i5ip6oI4aSk9KvnrRom0ACsYoEzFj370zeLhGiKKTe7AQ+ISiBdVqap+dRYJSFPwsXBHPGPVnzR0SJj2zEj1NRwyYLJ6TmcWbEm47Y2YTVWNKeGi6cI4cUtDspd87co1D7UhUsy0Xh2rJ4+RaGORoUFBBkKonLiU3dqnqulEaYSoSr1kFZym3UzJJvDyIBetUMcRKCVasnh11DnMiKpyKAocLw5mKbs1FEgVaiKKAs0qlM/JEKEBdPSiLHjfuoipmuLNCG5zl2LVfama5rhtBw61Gx0w3p6EgZB3LmGRqJuiymJGUlHTCLIKJWTfA3bJomuFQTmVEQAtso9I189gU4iakTchDuCRdGfRbBsqR3FOJYjnMkWdtnaCJlCJmDOc1LjAhi3ULUNepQKIZOGj5Ri0iJB0/5JapeNGrU065M4jWJYqNb6NnWyAAqsVYw4zYShiyrUnVjSDboV5PzVSxDqOlHkhtY8epR21RHiS0VHjnYx7GJrHOmYSqBubu3FZL6cWhV5JRyzlqkqOckn6OmzRHISEm85hFPnb4758YQIZUSmIiUoDfdZueTbN2b8U/uls0dHfNklAEQuRdKNmZ1iCGu8UyD7DW/wAnfOuD2HDSl5aOhX72mJRFV7Jw55xAGqTuNdnSIzJJRYlVUVbE3ed1BfqG+3VGpH/dy6+2tuqNSP8Au5dfbW3VGpH/AHcuvtrbqjUj/u5dfbW3VGpH/dy6+2tuqNSP+7l19tbdUakf93Lr7a2yxOuSGkSf6I3D1MxOQ92PJADB1OIGvNyTAMbnghOxnrs7/R1rvadkySJGK5Gb+5q/ZHbPDN0XObO2k2rN2Up0VymKIkuMA9c073iqr97pazngmy44kLVn3VCcStuunXc63kzbGTjhnT3GTe0533DimK5WB7td8VPuvK3+TvnXB7CfBmb/ALn7B/DK7unA+eTrsLGa0xDtodu+Om+dptzLqZ90LdJLOqKuVV1jiVJMpQvNqAOuad7xVV+90tZzwTZccSFqz7qhOJW3XTrudbyZtjJxwzp7jJvac77hxTFcrA92u+Kn3Xlb/J3zrg9hPgzN/wBz9g/hk93TnGddWbfkEfJl65p3vFVX73S1nPBNlxxIWrPuqE4lbddOu51vJm2MnHDOnuMm9pYqjCRVBw/K5RVbNs8kdIY5gjfiKfUIKIGC74LdDJj6Ab/PboZMfQDf57dDJj6Ab/PboZMfQDf57RIkYSCJGrhysso5bZlMpDMHSBd0Y+sxlFQC4OvK3+TvnXB7CfBmb/ufsH8M0B3gXnTf7RX+UEwf8S2ZmHfM1biPxikQeuad7xVV+90tZzwTZccSFqz7qhOJW3XTrudbyZtjJxwzp7jJv94q3+TvnXB7CfBmb/ufsH8M78pP/v2UOzHuNt5EnXNO94qq/e6Ws54JsuOJC1Z91QnErbrp13Ot5M2xk44Z09xk369O6fOmzJsnz7h2uk3QJ+OqsYiZfnsAQkdNVBeJgBaNjzJR4iX8GWlTxsUqX4U1j2EUafho3XudtJ5Zda7+k2jItdG//wDUWZ02tBUxNC9g2s0DhI0q0BEHD6RZaMJTOFc4Jdr8WLc89vWjJExASM/j2b0yQDiBMXTdNcSAYQATAQT3X2rf5O+dcHsJ8GZv+5+wfwzvyk/+/ZQ7Me423kSdc073iqr97pazngmy44kLVn3VCcStuunXc63kzbGTjhnT3GTflCN1hXeSSyZlGsNFoHfy7shAMInSZI3nIiGHWqpgRKO+YLNZFmqCrR43SdIK72JFYgKFEQG4SGuHWA6wHfsRs3WXbOHAHWj0ZJsswPLMimNm5KIFwUpJFiumXGUyQmECCAmAt/LnWWUIkkkQyiqqhgImmmQMRznOYQKQhCheIjvWLHMTOVM83cOGMgZqqlFygM1SJPCRT1UCEkBaisQTGTvTEprymNcbCyI7TfLnemXwpxzFxILItWpAO8kF0GpVFwYtM4QFDlKYQMoULtdknsc7bvWiwXpOGqpFkj3ahADkEQxFHUIb4Dv+xrPpF0gyZty4lnLlQqSSYXgAXnOIBeYw3AG+IjcFv4jbBARRt6cmmhzSLom65pFU+cUTokNcGFV6KY679HOFiPXpV52TIN5ZOeVCRcpGxY72aRyFYxgX9hqiiGzCcBYzj2o7U53iiOL29q3+TvnXB7CfBmb/ALny6jl0ui2bolE6y7hQiKKRA3zqKqCUhCh2xG38MsyRiqpqbdrJqJiBiHTO5yhqYymARKYmHWAh2LR5ijeUzJqYo9sBQIID+kOuaadzszEwrU8PVCKbiXkWcagosLqlzAimq9WRIoqJSiOENdwCNnDrk6o3RxplmgC3JRB5sVglXyhkgPp1wnAhgG7tDasX8LKR0uxM+iEivIt62kGoqpwrYFE9IaKqpZxO/WF94ddOu51vJm2MnHDOnuMm+xpUo8SaIicEk8eIyrhY3ON2rdMDuHbk/vU0ymObsBb7nKtSMMb/AFlwkirVD0g4b9HZqZ5lBJmARuOvn3H/AISQ67Kkj2+BRwYFHrxZRR1ISCwX83kJBwZR28V3Q3CoYcO8FwarVDRaBlENuJtgnEmTAv3PEVgd04l8wBbsGhHYSpyfgbixIt7HtnDBMqZUWx0wwN8wTAgdqJbjtVkC+1nTEpydgQtewWWqqHLvx0gumSomZLwv0CWXEjeYKUBG5N4Kaur3QbesqDJcQctsJXsc6SUZyceoYPa3rBwVNygI9gRDAffKIhr5RWMp9opUUqifNuCNVCoxUae+4Ql5kxVGzQ5dd6KYLOv/AAuzYjqr3hZtUpiqJQ6KZm9MsjhcIYY4xjnlVkzbyzwymvWQiW9Yk0gUdJpd0jPIgQcIi1ZgdOWbhqHcuYRZwnd2xDtWqKcG46bVRKmYs1282YEI7k1Uxvu+6pV0KZhDfBoTtWVlIR2tT0yqONd2xIQ7ORPuujUUe5nJ897YOByAc4qWxW9YM04sBEpE6gZmUXppyYcBQz7g4Z+CVOY3OO7kuwVdQbFOQwGIYAMUxRASmKIXgYohqEBD2BBEiCsjLvxOnFQzUS6W/UJdjOJjiCbRi2xAK7hS5JIvbMJSmRmaoWRlJdEwKMWqQH2kgTa7tqmytwrvQxbp6sGfN7zNE5nysJwFjOPajtTneKI4vb2rf5O+dcHsLvKYhWM+/ZUzKKqsH81tCloirqNaHWI92uk71E1XBNxm9YCOsLrdS2m/95n/ALMt1Lab/wB5n/sy3Utpv/eZ/wCzLdS2m/8AeZ/7Mt1Lab/3mf8Asy3Utpv/AHmf+zLMIM9DU5DoNZckm4Ea+CRSeppx8izIgdsalEEs63cPSOUTKAqkVZAuJM9ncdS+0VKJ1CnLMqwzNVrOoqej5JZyRm3PEBCg3ZpREe+VSDNlxiKhjEwaig0aYseitW7fFvYsykVPFd2L8PXOTnu6pfIQuxVPDJXiSI66ddzreTNsZPXLlZJu3Qq+BWXXXUIkiiknIIGUVVVUEpE0yFC8REbgC2bpYGjdie8OSeavIyENzu4aJFRB7LjrG5Q4t2o3XlOrvW2ycPwl5sxTEPNSjluu9KQ4mE6DIpQTaxTQcQ8xbJpEHs3jrt7rbfr0v81vdbb9el/mtR74rlvmU6fqk7j7oTuz7NSJbR43Y7hEqc86u+O3utt+vS/zW91tv16X+aySrlZNB+2AwMpZg8KylmOIBv0V8icFQTNfukjYkVPflMFsMuZGpIkt/wDHMSRIsw0TvDdSsEgNz0pAHdLMAxavcxQ12bDHyKU46fEzjGOhVEXr5wUDYDnMTOkSYopGAQOo5OimmJRAxgELrY6klm8XGn//ALahJHCZUgl5yanUzIOnV4CIGQbAgj2DGWLZJmxGOZtG5cCDZqLdBBIt4jhTSTwkIF436uzb3W2/Xpf5rLtlnDY6LhFRBUufS3SapBTOXnuyU1qZ0t020tZiZ065umIi4duV3KoiOLWInVt7rbfr0v8ANYxDuGhyHKJTkMqiYpimC4xTFE1wlELGXo6WYxhRMJ1Kfeq56m3AiJzG0ZFM+kwKphPzzXmPZMgcbJRUqntFNrakWDxwgq3kBC68YaTRNocoGvnCiVwUOfSJyyJUUBfy0gqLSHikz4FX7vCJxxHuMDZk1TAVHC4hhSSAR1mwlM4kJBxtlUElhGSkhKJSAUt4pRsakYTCziGYiOaSvvEbznEyhjGHlYTgLGce1HanO8URxe3tW/yd864PYm+Asnx7Tn3iyc93VL5CF2Kp4ZK8SRHXTrudbyZtjJ62dIIuWy9XwKS7dwkRZBZI8igU6aqSgGIoQwb4CF1tL5E4F0c72NZJo7VxqYqKyck1jk92LQ/OHdYh1bwWzfI5TucAoHEm1EbjwCIgBsOj34REN+3SzT/gaO9Gt0tU/wCBo70e1/IzT14bw7SxvZ3/APVuzdbpZp/wNHejW6Waf8DR3o1ulmn/AANHejW6Wqf8DR3o9qxDkap/VOsw6Cxu8NNwSohfo14hnFDG+Mwj2RtNtRpSARThV2zdR0eKjM2sdePbyKggGihmyoJOiX3ja8Kap4QHWAhDx1wh9Ht0s0/4GjvRrdLVP+Bo70e1wUzTwAHYCFjbv3a3SzT/AIGjvRrdLNP+Bo70a3SzT/gaO9Gsi4bQEK3cIztLqIroRTFJZFQKliigokoRADpnAph1hr18q5fvVit2bNBVy5XPfhSRRIJ1DjcAiNxQ3g1jZaqJhEyMpJogkyYqluNAwmMFW8bdeOF86EAWej2Vrk9ZEScvCcBYzj2o7U53iiOL29q3+TvnXB7E3wFk+Pac+8WTnu6pfIQuxVPDJXiSI66ddzreTNsZOOGdPcZN7UqyKPuqqWSpw7acWykZn5gVjyWn1PfNYGm2l/wqu6hdnD48JyWjUzOFdDl4ORQK2ExswEhFOmjlNQpOdKsuzerXjviVH4LVKbWGOGfoAIb4C5bnbgIXa7wFWyqxgNmmqB1TAQMR82imJhApffGwl1BZq9biJm7xui6QMIYRFFwmVVMRAd4RIawsSKGSUlpKGiCGIJgPhkZVm3c4RKIGDCyMobV2AsuwKqAu2zds6WRuMAkbvDukm6l4hgMCijNQNQjdh19jYrLv8y816ftlGfGvvkpCq0kxu/mEwphEQ38WuOCzligqo1FVks0RXRMKarcToGRTVSOXdEUSvvAQ3hC0K/VHEu4jmouu2DwiQJvSj8JHRDh+i00e8fuenKdQw36r1pGpFhG7evwkLZOJHHparFaQIGAc2Lduu3bK803sZVHRNXaHYrmaduDFYx7pszMYc4oRBpCwjZ88UKmQDjuXEgtfhC8cNgMUbwMACAhvCA6wGwd+qY85ojlWsDz0ZCg1nZ3skcO86YYCJU3esoLoGeqlEP5FEB3KnsEJwFjOPajtTneKI4vb2rf5O+dcHsTfAWT49pz7xZOe7ql8hC7FU8MleJIjrp13Ot5M2xk7VVORJNOsafOdRQwEIQpZJARMc5hApSgFqaDbmKzbFhUMkcdsGmEFboyNQ1524DGTkVbviG1YujTMTceTjGiY7Ys9ZGsBGLDdzbWALPTfptT8mlMxAmiqjjjq/wAYs7waSmegHQ+3c4mSWzg9rBf2LOmyUzEmO5dwzW7bFmO5czccge/m3O4FBv8AgsYhpqIEpwEohtiz1gYLhD27s2p9NaYiyKtoxsyUKeSZ4gOwJoRsXNd+9C1Is9too6acm+l1zbYtMJSRsS7bpXjnrvdsmkIfFZo4Cbis1I0y9bH/AIxZ3Z6Jk2S7cojneeFKWWEPiG3RuI8JM/rrVec8zElKecaGKYZJmACUtMwACYObc6AgPzWiWp5mMBxKuYBdcoyLTGBp2pmL5ziAVr9wR6bFfvAA26NxHhJn9daejFJiIIWPqOTFqG2LMAFnLZqfREvNucIaVMmH4l3YtV7g0zFAXFAsyCMizuMCEYLocPNtYYpD57Uw4JMRIpqsqijVjBIM9WeTjZFK8c924sbdGonwkz+us9BxLRSfJG6qN2sU0izxZiWkX4N7+bdiPOmH6LQCq81FguMQwK4A8i0A4OEmyaTgBvVvvBchrJoN5WNXWUm6YBNJF81UVOPJLEjcQhFRMYbg5Rw7cqAk3aoKuXCpudTRQIZVVQfgIQojbbJ4QSSNQuFJ5+U2ITInflJobMcWsNrYxNBt/wCV7BCcBYzj2o7U53iiOL29q3+TvnXB7E3wFk+Pac+8WTnu6pfIQuxVPDJXiSI66ddzreTNsZOk1SEUTPWNPlOmoUDkOUZJABKYprymAQtKCETFinH07DoZva9rhBaRkJddXVmrsWaZJfPaol1IiLOCtVTBEr45puU2QoRgFDmO8BmI2mWTeHiyuXEa8I1MVg1KYrvMmM1OAglfeRwBRtSr5GGiiBNzFHr3BHtL82s+Zyaid+Z/m0RAbdBYnwcz+ptINxh4oRYVFUjTXHtBEE9unrluX2nUBWrkl3wWXKETFaPFUy3AUwj2d2kzcmuYRMGa54qMEX4gN8NqRebURgECfMwWAI9phMlKREk3IB+Y72nFQ/TboLE+Dmf1Nsp7kIqLA7Q6otv4vZ3kVGjoXMlJzHVicGD9I2o6MSiYvpggmZjaA1xHSjWrh8bXmrxvCO1/BboLE+Dmf1NnSAwsXmJinWztO+PaYdKhH6rV2IBmrsR28u2D/YtVyhoeKMAVLmE/4vabkjaAgkRKHMdVyxT/AKbUo4LDRYAWp27dW6OZ6038XLR4FNzHnRXckH4wC0xJFhojGwi37wl8cz9sbtVVUw9p13nKFopipDxRlWUcxaqHGPaCYyjdsmkcwjmrxMYxb7SjI0LF3xdRz7MMUe0vBFWRVkmhdaO8VlIJgHwWTWbxccgsnN0wJFUWLZNQg8ksQF5DkSAxRuHlGkMGIeSKXj4ZTANw6CooLyXD4jw7JwX9PsMJwFjOPajtTneKI4vb2rf5O+dcHsTfAWT49pz7xZOe7ql8hC7FU8MleJIjrp13Ot5M2xk44Z09xk3tWT0NeKcax5fxI2DiwMHxA7cK/psm5uuF7J1A++PTKgk3JR/qKB+jYpKGWbrJFj67kUWucAOaRjNrUshFrp3fyIMwRJ8YbFS5xPA3fTu2LI4GIOcSXiIlNccJRExBB+grz11+/vWrCRC/ms8nGpiP8zDxbBsYC/AWQO4/TZy+AuI0S7iZkPgLEyzJ+sP0dA4fEOxVjEwj/GlcUjHat8U3DOkNJD4tDIpf8FqLbahDbOVfGAe01p+SbAYPxTyAbFLSTZFVYWck7ZvM1duI2TjXJFVT3/yScg3bGH4rTy112k1ZUR/j0d+dgA/MzsiVoln3LaXgZBNPGRO8rCaYOnO6UEpfciSnx2TjjGu25mIOJu1XmSdSzTTC69/7gTVH4g2KuZjqIuaEm0g1aweRwxKgh/5kBrsHfqmPOaI5SmW+LUxj6gmBJ/4oBHRCA3/kpVb2GE4CxnHtR2pzvFEcXt7Vv8nfOuD2JvgLJ8e051hMDP0/ULqQPPzimkEhqoeJKtDyTgzAyLhkkq1OhoQkAmAbgLqt0r1H4uVl6NbpXqPxcrL0a3SvUfi5WXo1oBWn4WcjyE2120XdRlQMGujGjzlQTWPKJpN1MTvBhLrNeF/s2Tnu6pfIQuxVPDJXiSI61u26idWof4xZ74f+dbo3EeEmf11ujcR4SZ/XW6NxHhJn9dbo3EeEmf11nIBNRF4oLAH8ZM/5s3/jbGTtVU5Ek06xp86iihgIQhCySAmMc5hApSgFnpDz8Mqq9mJeUUOSQaAFz9+uugnrWvEyDQU0x+EtmMUhPRiqTFuRAqqskxzimHfOfCqBcRzDfbo3EeEmf11ujURq/wD8iz+ut0biPCTP663RuI8JM/rrDhmIYt5hMOGQZBeYw3mMNyvPGHfsYh5mHOQwCUxTSDIxTFHUJTAKtwgIW6NxHhJn9daTWNOw6aMfWrGWMBpBoIuSIUSwaJET5vqwPHJTX/8AhiFo6UNPxmcjW0i3SSCRY5s22Issapua4saRWdwfjjbo3EeEmf11ujcR4SZ/XW6NRHhFn2d/+Wt0biPCTP66xcUxDGwGxlxSDIcJgvADFvV1GuG3RuI8JM/rrCfbiGxiUCifbBliEpREQKJs7fhATD89ilJMxJjbc0yNwSLPeLUsSYw+3bxSheNujcR4SZ/XW6NxHhJn9dbo3EeEmf11l1mbxs8Ta0o3TMLVwk4IQ7uXcmuMKRjYTGBn7DCcBYzj2o7U8Q8zFFMWDiSmKMizAQEGDe8BDPWrVBtKRzhY/I9gRQfNlVT4aphDGwpkVE5rihfq7GxN8BZPj2nOsAqCbUkXZ5RZy5Ytds5Boyj4zSFU45Fq0ZOGyOJRkQh1VDAZRRQw68OEoe43Xhia9YW9xuvDE16wt7jdeGJr1haCXjHD5KOlJLaaRjXD56/ZiLto7VZPm5Xy7gzN0m9bkTHNiUqhFRxAIgUQ9lyc93VL5CF2HkHTbOn3DORlNtHBpZk9cOAXO3bNBKmo2kmZSpZpsXUJRG+/X1qf8Y37evspf5Okf7VSewyCzpizcrJxrwpFHDVBc5SggqYClMqQwgXEO9yk3wFk+Pac9llpBkZMjts1MZudVPPJkVMYpCnMliJnMGK+68L7dOCXi2y9LscnJkQuIpi4i04yxFxBdiLe6EMQWZRzaryA2YNG7NADU6yE2ZaokRTxDpQXmwE126cEvFtn6XbpwS8W2fpdunBLxbZ+l2RScVgS5B6xfpCSnWIGK4j3aTxAbxdG3IqI3G7ZRELdOCXi2z9LtKSRKsQVNHRz18VI9OtAIqLRso4BMwleYgKfN3DdZJQdQqJJnEA3gExQNq+f2PJz3dUvkIXYJ+MX9vWp/wAY37bNI6PbLPH79ygzZNGyZlXDp25UKi3boJEATqLLKnApShrERt1OKy8ASH1NupxWXgCQ+pt1OKy8ASH1NupxWXgCQ+pt1OKy8ASH1NupxWXgCQ+pt1OKy8ASH1NupxWXgCQ+pt1OKy8ASH1NupxWXgCQ+pt1OKy8ASH1NupxWXgCQ+pt1OKy8ASH1NupxWXgCQ+pt1OKy8ASH1NupxWXgCQ+pt1OKy8ASH1NupxWXgCQ+pt1OKy8ASH1NupxWXgCQ+pt1OKy8ASH1NupxWXgCQ+pt1OKy8ASH1NupxWXgCQ+pt1OKy8ASH1NkGtTwMrAuXSIuGyEqyXZKroAcUxVSIuUonIBwuv7ewWUp6jqimo06qiJX0bFO3bYyqI3KpgsimYgmTEddsoA1RTczT4Py0yDLbZgux0oWwzwuMxnykFTM6QTFdvYg9hkEkyidRRk6TTIG+Y50DlKUPhERt1OKy8AyH1NupxWXgCQ+pt1OKy8ASH1NpeRqWk5+CYK0dIM03crGuWSB3SkxArJtyKLkIBlTJNzmuDsFH2NaQe6RozcAMqLVi9kVgARALytI5u6dqAF+vCQbg1jqsfRqw0nNhiU0en6pWBMvbUFOEMCYfHaoTUnUsVOGRY5xdszchpzZPPohnHMcrm37ZO8bsR0yhfZFvV00pCnce51F4edWariBSnMVB60jHDNVQhTBiKU4mL2bMl52ddxCMimVRktI0zVbRJwQwXlwKLQhSXiXXdv3a96zd4zXRdNHaKTlq5bqEWbuG65CqoroLJiZNVFZMwGKYBEBAbGpBKRfmqUhQUUieRypiuE0BUKkDtQxocEU2WcOHNxNmdfPW5FdvXfJJnM1tJyNVVtljzOke5dpM7h0fml912DXvWTo9CoypVKsoZJKIkIuaiXKipSGUzZBlY5mkZRQhdwGK9T3t9lnzrP5huUDKaKzdv17hMBeZtGCDl2sN5t4hDDdr3rOFaUklpVBqc6S7kIiaZNSLJimCiAOpGPaNzuE86W9MphOADvWmaakZopqifwMoDeCjWb+ZlebRyubO4ZRLV4qxROU4GA6+bJh133WYQm3xo+dcKxkehBTUXLwcys6kBKi1KjGyzFo5cJqH31EwMkXsmD2PJz3dUvkIXYJ+MX9vWp/wAY37bZO+HNKcesespWqafBmMozdxKCOnoHctsDyQQbLYkiKoiY2aUG7db9va6U8CufWdva6U8CufWdva6U8CufWdva6U8CufWdva6U8CufWdva6U8CufWdva6U8CufWdpuTr6X2mdUWwhmMdyORyKKTlCWcTLhbSgerOhziSjQMOG7Ua3TpUv0WL+qslSkbIPJNum+ePtKfFRIsKjwxRMTCgUpAIQCBd1zTUWlJSEc2eFml3IxyqSKqxmSDQUCnUUQXHNFFY2oLr7VdCMnzhhtxlJkG7qQQzYvUI9jCKO3OiHUKZNJ46OmklnMAiQpzGLugAQpzKhTBFmdQNakbMJldZ29eKThHLdd23cSarpyqddRFSNzRv51Na42opbsnM6gQU0JuqKclkUj6zESkaalnaZDDqvMUi11quTWIBiirTQANxROmKlVwaJlEhMU2BXNqmAB+Gw5EcoLoy9MyK5lsnFVLbhuKTpc2ajlzGESoIulTYRJf9yvLy7pFUihXv5lYvz5mLNuBI8Sr2oSJhnm1dRoUrWcvByCdyJzSkI7p11HtXDsuBdFEx1VAIcDfc6h84F+6Az2lqsSGMykUjiZVDHLkBss/I1UBoaWTbasCgLXEdELuU1hAQwkUIUK+qxqQpnsZVuUAkcBilEgSUhW72MjlVEx1KJIPHhDnL74hRC0tVLy99VFeQVR1FUU06HPv35naMhoaSro4Z8yKbW42AREM8oob31qfZTdUsaOqal5WFnIxUJF4g8ZGQXaunDdg3cKmalTkkE8AimUwFPhNcYSYRg2x56RTRK1q3OyETmI88uaFmYiOYP1kzNlczn2boTnTKBCgocbguAAtKN3Txy/GPqCWYIOHhkzuRbN1gzRVVE0kgUEmK6+6+72HJz3dUvkIXYlZ6Un5eKXjJ80WRuwRZnSUSIxYvAUMZwQ5wUEzoQ7Vwdan/GN+22TvhzSnHrHrIrxYgHTjZiAkVQMUDFzDaaYi7EwG1XAzFS3uJp9GR/yW9xNPoyP+S3uJp9GR/yW9xNPoyP+S3uJp9GR/wAlvcTT6Mj/AJLe4mn0ZH/JYcyikjiuxZpMieK7evwgF93XdI9zVL+7x9pvm6HVCqNb25O/Mmp7crXYr80a7UbetC5KKFVTqB22lk6gquVjDabG0+zYorsyFePEBO25mL8x1t1emZMifth8NsnsI1Nc1iaqgo5oChgzmiRtOyzRMxt6/CmQuIfhtVomECgC1LXiI3AH/TGn+zZxAyQFbyCON1ATAExLxEmBLiKBdulGbi7A4S3lCawuOUhiz8JlBSOSpaIyctKQXcqiYy8k0aVMeQj5BZYbgdCs0kigVcPdCQFUERMYwi3LjLeFFiQQxBfj2iXUwXfhZvdXdq2TAgnIBxpDKFcTEGIbz04YLi7+sEjf1R7VmWWTJmBmuUGlAI4ftWxBxVNFNUs2okdAl2mvUGV6Qp886aXo6zFSLao41AiTKQquXq2XYo470EZMtXLzrJoKymsG5nrcqRjjrAg32nsms2IxVc0PDVNEvIGR+5pJdiRB+4auW7VUCHVI1TVzCgExCmKQGNcChL/4M6BsArFrEoqIjhFUEzzNElKJ0x3QEOdMwa9QiUbF7oyneddP2qLhbO+WJ7Dk57uqXyELsVTwyV4kiOtT/jG/bbJ3w5pTj1h1lJRag4SSLB2yMe6/ADpA6OMP6RMd4fDaLfLgJXajUqT8ghcKck0EzSSREO2i/QUL+j7wqLLKERRRIdVVVU5U00k0yiY6ihzCBSEIULxEdQBaGioybgKsZt0KhSlWcdJt3ubDNR4pGXK0XzmjqnJuT+1nuuARsDQaFprRuSSZbZna1LN5hvScG7SSEu8ZMrlY57h1YjDaqojJ+rSCINGmffMKYJGNy4U3CSIvDJR5EyukSn3GfDGXHeXFfZ2uqhR1aykaUiT0uksphzGgN6RCuGpVlRYmOKAl1kKI4Pgs2TqyLplnTMObC2CfXRQh2JnSoFKW9+uVqUyiogBAHs6i2ZBSwsxgRIY7A0ern2RkxOa8zdXGoBk8V91w3dqwLx1RUg8rFwzGBws5WOWnVGSTgzva07ZJcXYpIubz4TF3A39uwxgR9EHrMHBjGaA4bDUwLkJjMcSZ/bQLkg57ew/BZ1V9SQsA3ctfup1UcqoVsZmGLWoaSXWTBoliP2DFLr+Gyrul5+Jnm7c4JODxb5B5oyhsWAjgqRzHQMcCCJcYBiDWFnrj+KqahEXDuUfrqKIR0ag4kHIru3Syipk26Gku1rx3gExtVp6qsxSdV7VREmKc+zUbqvGC7JisukgrJsVE37fNCIHzRzgFwgN1w229oCNpKQconKktNRrtKonjN5mCGUbhKuXUk8ZK5tULyAoUcIheFkHdQzcTBtnEhlMat15aQax6ThyNUQSgN0DulUgWXEhBHAW81wWnXCByqor1RNKpKEG8qiaiiZiHKPZKYo+w5Oe7ql8hC7FU8MleJIjrVWQ5A6M0/kFM703kXhNK0vaDPaVpGg57SM7usd+LFrsNQJ0nQ1PKRclTrsJokDAxRo7DUEUGkFkStUDNBLi57GG/bqjUN41wXp1uqNQ3jXBenW6o1DeNcF6dbqjUN41wXp1uqNQ3jXBenW6o1DeNcF6dbqjUN41wXp1uqNQ3jXBenW6o1DeNkF6dZB/HPGsgxdEBVs9ZOEnTRwkO8og4QMdFUg9soiHsMrDn3LSdx1HEXjudK5k3qFiS83PA4FJ3cAa9KU/BH7wuIiXalexrvNA7ZqGOVJymksmuCK4JmJnW6h0gBRMdwoS8pgEoiFmSCFJv6CV5CZKGikHEIhCtquWQcLPHMghoKgtl0WzNthRvKInKnujEFMiY1k6jlTIOnlTvITPk59JrMwFJs39w+9zzA6iV++GctkRWhC6IaLnUKHImhuQXp2Vjm7J4wUAt2dSzbIglAb8J90Gu0rlYzhiU3KZTJXJrWxdyVBoyewdNSUTKGACmMBUXiqiqxrv9XAt96tqoYt1lE4PJslTryREgGAkhWVTSjBswjzCZPCdOEpd0suphP7Y/RvDVZoAAAADZAAAAuAABItwAAagALU/l3prQmtQwL5tEVBGGUI05NYKQ5gow1FPpMo0QAwlNmzqFblFXeakCwZSVnrSbqPKAghKSUs1Lc3YtCXpsaUiymDOto6nAIKByn5qq6KooruzXFjm1QNQkY+Okk5UItxgUjXzpBBwi2CTanIYj5u3M4zpUjbjOlKYQHDar6goxg0iKZiaPZ0vUZIpAjWKkq4XkSSSqTdBuUGJnMTDEQB3m8Jkl1AAwYzKXpbeRCc43i1xlW8cskDpJV62brkRNoKhgavVyFVNmiqgJSq3GC4wFMH8ILQoWUoibkIps5LQ0jEpw2jQkXBKtizxUGxxamcyr9+KqoFLcmCpBKdXOGNan13KolpTLaNSMQE2EqDCtKcqybj2KJAKBhKR40zaZA3ONV32krUBJKDhpyMy3OqbgEsO5fvUqqZP6olxES4TpC7cN2JLhEt7I+8Nqi4Wzvlk/YcnPd1S+QhdiqeGSvEkR1qr+bwfNy0kUxSnKaZoQDFMAGKYo13TICUxRvAxRC3QOH8GMvqbLR8jPUEg9bHMm4bhtYuduqQwkOivo6SoIrpmC4xDXGL2Qt0x0L9Haei26Y6F+jtPRbdMdC/R2notumOhfo7T0W3THQv0dp6LYpAqSggE5gKAqJsEiAI6t2qq3ImmX4TCABZB4yjKfeM3SRF2zpqyjnDZygqXEmsgukmdJZJQg3gYoiAhbLDTMUikwgGD6jZdhEtiFSZMX0/AKKy52aBAAjdN6uyIoYhbiAe8QALx2VUacjH9SmRMdNR2y0drDJqpmwnSGZfKoNXJyDzwNtIEo6hALAdxR4qo6xU2rnWDt2QoBfqbvUopNUfgKrf2r7LJtFVE3jXBpsY9brMZNlnAvILlg6Ik4Imf3qgAKR7tyYeUTUjzkRmYpwSThV1MQJFfIEOQWzgSCBtCkWyqjZf8A8JURDdAFkX6BToiIqIumi25cx79ucUXse7J7xyzcFEhuwN14XlEB+8D5akGcU/qFMETMGc04XaRy/wB0JaSRZdsUyiZxaY83vFzl2IQC+1B1vVNHN41vRbeoisoOCn2E5KGlZ9igyWfP3b0kEwCMSbo4UkkTHVzu7OIAAFtlBY1VDMWEZI1Ks7phpHuUVJ08UrGJMkn7xMX6sYMgwdxrByVDSEc+KThLEQp0zWo11lAYDT3+j1ms6SRFKXW5MKwURZR7CQSUVhmjOLjGyqJnBSqLGWFQ+bEuEM4OVulash4+OZ13OSM/DPEJYJIWTpSPhmkVpSBGrY5F2L2FTcjhExDAOD40cmEEVjL1DMLspOqaik5ZVumpMpPmUk9dCdRou7kAPohWqAiUgggkQTawuszNJME2EkVsUrhgk8K9STWTLhwJvASRBUh8Oo2Au/rCz6qa/hopqxi44WNCxrGX22QigfAojOvX6ajJsC01KNxKnnihgSa4kgDdHMep4trFRX+i2bm3MlCx4z4rytLGWHmhmyYsCkXYOQKAaPnMaYFIOMTZwVFGWTdKJCcfH0dSRlnyjMsWzMUc85Zgm1dZ58bnU77gTEce6uutFxE9E5PqboyKbvDnQppzMSctJO1SnzSa7mUOa7PO3BnTlwbEusqXWbdmsg7d05Q0tU5KkcleRLGYkIxmtSoY9GOyfOk3ZUpcyv8AO3kBG4RLjvKFdZU6nYR0fNr5OXlJxVOxcgL0jKFbA6mHasrMqtWqTyUeyJguzaJUm6CRS3qCIiCFEDHPEqshp1epKSmoJGXeR6Mo6n5GbQW22WjYpuzzbSUUbGMKlwG5oG8FsjUdS9PIyyVAVAtVMmC1QR7VVRdWWaSZo/Ou8GeduBSMZZwF5DLnMIBddaQXk49SKcyM3JSWgLLtHKrdJ0oUSFUWZLOGxjbn3ph1ew5Oe7ql8hC7FU8MleJIjrVX83g+blpHv3Qfn5TFtrmTxxHKVNUNK0ktINDAR2zYVJUMfFSSrU4gOBwaPcKEKbfIJsQawtjK0Z09TURoLbNsWRhTRF47bRrYTJNklF11VnbogHUHEcwmExx3xtzpfmC3Ol+YLR0+zgqfm4SRlG8KCbh4+ZyaD9w0dvCHMCbZZsq1MRioGoQMUbt+/U5qSdyfUjPw0ciZ1LJ0jVMntpHMUi43L4W8vTrdN2i1TDEcExvAoCI3FATBGVXTxzKxkomcxCuEipOmyyKh0HLN2iBlATctV0zFNcYxRuvKJiiBhfsCoIz1SlTj8UKKJ1I9Eki5Twt5p4QoosnDyKTcroIGvUUKjiEuAQMNbxdKmAlEPoeh65gI5IuaZRatZNplR+WKb/6rHyO1ibnMBhTRWOfAUANbLSFDwFMSSKDmh2UgtUM49jc2ozp5UENHIxjn5lRVzqmK/CBcAb99pOepihKLO2ipNxEKtX1UyTV4u9bNWzsxW4bVHbYDpuygUx1CBivvtDVYvS0cSCVkyQFWwZpSSZSA1DinCrQWmJtrjxbZOJKd4UuBQ+fIjeJc8Fkb2lLsqg0ZHRGDU8hyPNU8CWba5wqCbrAkneW8iYBvXFutUxjwNMwjWmnasSuO2Em9XcyuacClmig3RTKyTVSLjMI4hKOoLVJQ8VTFER9V5PxVXJUq09NoJAnn0EgTQBCGdruWcgVYufarFzZi9kDlIYJfJpVtOHpCuYfPfchXwSUZLFbJkWWVj3It2ixM41UBwkQSGA7fdgfsWimxmTmeqepHhY2l6Wjjppvph8c6aQYllb0mLJNVYgKLGAcOLUU1lJpWmMnMu2QSM6WpSIlqhTqM6IBj0NlLumZol1Ipl7GYIQ5guII3hZCpKdVUzJlDtXrJ0Uqb+LkEQIZdg+SKY5SrEKoUwCAiU5DAYB12qmQyLQrGVhYbAwqyoZtR2an5eZa5kuKmIyLAJCYk46O9tVTUIVwgUhQKYdGMenInKcxp9rGViIp0xXtIvnjmlXby8gFjJRrJpEkYRxecAzhzKJYja8JSKGIwqBpAwU5APpBGIwLP37OVQfqNHb3EYibZZso0MixU3QCBijdqG0HVEUa9jORzd+iXEU5kDKk5u0VEu50hk4AySnaOQbQTVlFN52cm1F1tBXeGaps4xtcmZ2uKSaqoGculAIjqApsCmvc3WRNURItOUNrXThlHSrBO8AECJqvE0l1BL+EJS39rr6c7k/8A+yXsNS8H5ni5xZt+QR8mX2PJz3dUvkIXYqnhkrxJEdaq/m8HzctI9+6D8/KYtTP5y8m3nhFWqLu2lPPGn9mnbgvHk/irgvuvHaKpNV/YtUyJMjxYxq9hnzOVmEqwjKkNExjtuo3kXRYiPatXi4os1DjnAvIjdjOAlAbU3k+yMyW39RyCTqRqGp5GOVQjaHB86UK9kpdgqYxFZQpiCjGR4HNpQpZ5QcxeJ6zpCfqyno+HpKAlKeSkaqn4gs3UGUqsUCLVXXTtV87auXsnDpN27UBMXNpqgYqWECYQr6JkXjZ04pxjS0E0Og6SdFWYMJKs1gM3cJHOR20QVf4U1CCJM0JLtV1sttwAF5MmojcF14jTsheI9sbV7JqhiTjqvnXyhQ3zEaU/DrmKHwiCdqcbLB92qVhFP5M+q9aWko6opCVWNcAa1ZByoNkSlyJEMQqSYFN/pNpobygQAAdTC4bwtlROslo6xq1xKoZwq2ZUFJwJ0s8QAIrmzasQajb9svk+0paVqlJhGncv28S4j0VmbNupGrKO1CPV0lV0i4dYIEVUANeG4LN8vM2vEop1Cym2VLwUM8VeKwrmIZM4ZRnUCyzZvc/2lWVUwgHNBNnQAhM2UY5tIjnEIKnxShk1AASEIej3UgbNgOq8Hkm4Pfv4g+DY/hcx0FiRYEiqudkI3vKRm5RnnbBFRDD7SdqxlXIlu3s3/RtTKrcpQVfvKhdvRLvndFnX7Ipj/wBIGbNIvxAFpCXZrC0SNUsPIOovCBmS8qqLlmMo0JeXQJBVB2fPiTcOA3Ry5zd2/g/sJdYsm5f1VQ7CqWLzOkeKbaUFUKLw7tFYE3Obkk1THItzqgGxEMO/avshlSOblqUfupynHLkwJlcwi4pndGJjUzaSKiK7d8Qga/uhYR50bPsrTsh/+mOUyHiaRKsBgM0oGnYmq2sUZNNUoLNDT8hn3ypLxKbGmYLB8QdfSkazFEHTpqYjfSDnTQFUDFOUqqhE1TkIYS3XgU13at0twvjS4+zNjnCmIc4lIYwELVK+I+EL8Jb6aALzWYSTemofMSDNs9RA9Ur4wSdIkXIB7qaMGMCn1/DbpbhfGlx9mbdLcL40uPszbpbhfGlx9mbIKrUzEG0l/HxyRU6pXEwrSLxFmmOumwDAmKuM39Eo26W4XxpcfZm0nGBAQiAyMe8Ygsap3RwR0tuo3zokCmiicE85fdeF9kkxG8U0yEv7eEoFv/4ex5Oe7ql8hC7FU8MleJIjrVX83g+blpHv3Qfn5TFqZ/OXk288Iq1Rd20p540/swdL0zS1UT0i1qdlOuVouDfOo9Fm2jJVqJRfFTzJ3KisgW4hMV2E2K7VfLUvk3ya1w5rzR0E3DSo4BsyaU61kyHBF/LEO+coZ1VPW3RWwpKc+YRTLhPMKuoSRqStZp64kUKep5orMA1kFI8jaKYO1GY5sGqKjfE7cFNgLjwkxiBccFt5SmcqE6arqpXFXU0ijNuqjkVTSU0uueQaZ90jp7w5UVLzFFIoBfqtIzlEURUb+nBhIqPrdhT1PLZlFOURWQResWiLdNIyGkQyTgDED7oOisBRvEbZbZczGYdJ6JkwWKxYRT15LHztNPzERCNSSF0RfXcYDAXAPPXWyiU1UlK1VASD6RkZtsrJQb5tHrMHEbHNlE9OMnmSLk0I+Ih8N4GC6/XdG0rTNM1LPSgVEwl1TRcI+dMUGbePlkDZx8mkLfPiq7IAJgIm7d1kZs8PUrYEm6IKxLmAkiTxFQIkUyIRJUTuVjFMa7EniT1COK4L7ZQG1TUfWMIabnFJ+OUe05JZhZqVF2dRDOpIqFK9KABcn/KGMAExDqtlJqiSoytY6ArApmkPJvKZk00BOm+YAmd5ciYzNFwRAxymOAAUvP4bR81SMDN1Hk2q94+kHlL0600x3AzQRzxBydgxLcXMpoOhVSAopgZG9EfaUzDReXDJ0wXPVdOEInJUtLJGg3tQQI6Skuz+7kyaDLlaPF0RzwbtJQMI3pkKpdC5M8pz2pVyZttAP6RfwyKDw4CCO2s+9AsGzj87zy5V1QAusAG1Vucp8xCjUuVRd+vWKjqQbsmIpyBXploVm4cKogtmwkljKnTuvOpcF5SEMMrRE/NRtT0MvLuZKlKrpmVipxyyI6ImLiNn4Vi+PJMbs2U4KJomTFY57hMA7iDpRGoYekcnMXMJzFTT9TzsJBS84q0Iqk3iqehXcjtiCJ0nJxFy4SIQD67r0gKtkvj4OVj3PIzV8M+dS1LPYtUYOmWcbIsBRaSaLkfaVXiJwbp4wuSHEXeA1H1XTOUmkZFw8RUpaoXrGdpqGqUlLS7V6RyvJtXEo0ilXKEU7ctTm+5TmMqknmwuvCmKDyfx8i+cQc1Du9AYsjrMYmGioaUimyB5NJReOUNe7SInmllQECjr3r28mxTeIJrFC9tItTsnqBsICJF26m8IX74CYg9gR+8PI/KsJi6MVcJxz9lDycsyfxZ3KykeJVYpq80dy3amKkqkqBDYyCJcRBAbe0VB4pVV6mt7RUHilVXqa3tFQeKVVeprQiLSPkkoyIkAmX8jJR72JTUWQaO0GDBk3kUGzt0sLpwCpzgTNJlSuxYjAHs2Tnu6pfIQuxVPDJXiSI61V/N4Pm5aR790H5+Uxamfzl5NvPCKtUXdtKeeNP7PIDQOYXrJdBJeXl10tJiKBiHN+bl5cnOOph2QB2ujr8S5uaKYUCiJ9rIzPrquF1X8vLv1dJl56Xc7p7Ly70wY3T50ffHnSFuIQCkKABsZTeC+TXyla2y2fk8mnm7IWkow5sBJFg8YmPv4Qdt1EBNd/Rx2jXa4CV5o+jSKZguMjKMTGZSaBg7aL9uoX9HKIkJcZvTESso4MA//ABWeMkRsjdvY20WzUMb+i6J29nKPPT1KxVdOW0lRuTqgoiYbs3TQkvyPL1RPfdEi3dNIVg2TktJfuhLzJFsIj2AFGWpvJ9Sp4p4XGxeROSah4+KepjzjqLGsa4i51xEOguURcLtG5liCB82UButuaMjAH8HkDyKlIAdoB5OVTXB2LdJcR4kZGPtjY7yTybQTpo3IZVYieSrJjMqCmmF5wKwhcogSTnF2SIgZUfehfqtSNTRNK0pS1R03WlElqCRpOOIyhKjoHKELinyS7E+hsXLmFkXLoMbZ2QXDB21MmpcoXWJ1qchDKCN4qhGMyKiI9nOkSKpf+m1MM6QlJam2rynFHDpvDS0kwScLlk3SZVVU27ohTHKQLg+C3TxV/jLM+m2bPJeSfyrvb6aS0qSeOHznNkURwJ59yoorgJiG4L9XX0vyQEqnbHb6b1pJ10KIstsnG12YGNKLHR9BwYM3ucNucqz9VlI/y25yrP1WUj/LbnKs/VZSP8toDkeLUYE/jTbUXpKvKz0ba9TR8/t4AM/deDD7/Fvdn2bJz3dUvkIXYqnhkrxJEdaq/m8HzctI9+6D8/KYtTP5y8m3nhFWqLu2lPPGn9jkBoHML1kugkvLy66WkxFAxDm/Ny8uTnHUw7JftdHX4lzc0UwoF3e1kZn11V11X8vLv1dJl56Xc7p7LzD0wAd2+dH3x50hbiEApCgAbOU3gvk18pWtstn5PJp5uyGwRyuRXkXq7SFH65AxIwNRR7chzP1SF3ScdMxiZhcHC8EVGudNcU6hwIqkcqiahSnTUIYDkOQ4YinIYt5TFMUdQ7CrxchnjwUHSsfEtzFB3IHaIGXWwX3gg1bplxLLm5miTWOu4BRUlxTPPSpxmJ86WLNbbPikMs3QxmMbRY1IpGqN+vMoFv17NRypFzHSck/hVVxdf/qyLBvk3hlRu3tyJyltAMCFApWMLFNClC4AKVsxQRAoAGoAACcouBVBTFbJdlSK3DtvcluWdSqG4AAe+RbOlBCzZ2gbEi6QRcom/CSXTKqmb9JTWo/gsrxs72G3CKc/tt/vhk57uqXyELsVTwyV4kiOtTxXJ1ObX6MaP0TPJZrQ80LfR7s17XmNz8VqfgagrKZlYd/UdOleMHSqZkHBUZtg5SBQCplHcLolNv74Wpn85eTbzwirOIabaFfxjo7VRdqZRZIqh2TtB+2ETt1ElQzTtsQ+o2vDr1WeN6TeRsbOOM0g1kpVBV01jk1VkyO35GaYXPHjRoJzt0jiCR1gKCg4L7bWRmfXVXXVfy8u/V0mXnpdzunsxMPTBjdvnZ98edIW4hAKQoFDlMpvBfJr5StbZbPyeTTzdkNiKeawPHVLTy5bvwHcmhDuy/CB2MmqUe2A2OWIrJpSAibOGhnbuNcQgYjGOcUYd+sirHgoY/OtFW5L/e2KmfKjR7Yt4YzxrKNQeCHZzSknUEs0TMPwoHs3OyWGYXqCcpyNfzjl9tm9estuWjlw2F6BjESaGQQMGYRBNAMWomzeO8FphU4muT/gx1VJj+Uq2uakmFB19hUkdr+CzExbsJmbYxcPO3CiQQu+C7lMnpUrzJybj+FBA3l9+SYTrJ0n8YGPE/8AC1AOjGxmXoul1Tm7ZzwjET//AF2o/gsrxs72G3CKc/tt/vhk57uqXyELsVTwyV4kiOtT/jG/bak+EsFxo1tTQ9gMpeTYRHsAHJjEheI9gLxtTXJi0qd9kxCJlwfoUuSoFgTqzSWAxS9RoUuYJhSM0EFitRIBkyuxDHdeA2alnyzKY7YzQwiNSiY1ToUuaUdDTiNRicxzbcJxebzgCInKFwH3YGs72uNkl2v0lfQdNJWGmaHnDaNpeYUzOk5m7Hg3OLetz2Rz+pWv1lueyOf1K1+stz2Rz+pWv1lj8mg0AMVop81yLlqIJDTc4lmse2phbaLmseK7dYrvhtlMKO+alMmxy7+spVq0KI372+Nstn5PJp5uyFmrdu2PJTEkdRKKiklCpHdGSApl11lzFOVnHsymAV1zAIEvAAAxzEIb/pjJnkUziQ+0UUZeLgUTEMkqmCmaUCTlTorJAYDLrZsTBeCJLXRsTHMe2LVm3ROb4TnImBzmHsiIiI2Ep0yHKOoSmKUxR+MBC4bFWGIQZOyKFXSfRIniHqThMRFJyDiOM2OdZEw3lx4gtnpRU1QU4n7olCoESnIZHXe5kWrUhW0tHoluFVZAiSyRbzCmcMRikVSORVJUhVE1EzAdNRM4YiHIct5TEMUbwEN+0s5Dfbxj9cPjSaqqB2vwbVkwSLnXf/8AS3k+YtG5d0qqaTp2tXhsylz6l7tcN73w2o+SIcFAfUvAusQDivFeLaqG1h2QMbX8NpEtJjJbY5+NF2EGo2RqE8EEi2GoCU4s8+5Up08RntGE2vHznNMNpo0wWrE4dSdUPSKNerpuKzShhYstJCZVIoqtmhmdJ0UrgxnJW+HGN2Gx1VTlTTTKY6ihzAQhCEDEY5zGuKUpSheIjb+DqdzzNzK17UbtJE+pZZhUkXlDeGWKmbdGRMhIpGxb1xw7YWyfH/ApmOb/AEVPRQ/4I2o/gsrxs72G3CKc/tt/vhk57uqXyELsVTwyV4kiOtT/AIxv22pPhLBcaNbSdNyufKzk0SkFZoqKDxo4QVTdMX7NYL808j3qCayQiAlzhAvAQ1W0JUmTmrkkAKkhNOH87S0k9ImABpEnFtYecjkna2+bR1QSv3igGq3Spk48dKh+xtulTJx46VD9jbdKmTjx0qH7G26VMnHjpUP2Nt0qZOPHSofsbYSN6dyYNFR51w5qqp3qKfwmaoUq0UW+IFCfHaal5qUCdq6qXTd7UUum2Bi0EGSAtYuJimAHV0SIh2oiRIDnUVUOY6hzCY9wZbPyeTTzdkLVRNLABnQSpoBsI7oWsXEJI3N0/wAAHMgssue7nsZb+dDYdkYqESemauCs1VQxJpuhSMDdRQLjXkIrcI6h1WfKzJJVBgLZcroJR8Z4Dl+KrfRzo3uFiqrEIVTGsS8hr+fMBiJobE7BkG9pBzajWNDsIRz1hHzDdiBvwGAyRkUw96iQgWqxQg4Tp01OnIYN8pixboSiHxCFjuS1XU1KSdKZNMjDCIf0+7K3MVjKUco5eNnGEE3CgC4QAxcKpNYjeA6rpFkOUevFGTlwk5ZpQM5K0toxxBXTAcosZNwyeCuoYpinBJIxdd+KzpkGUnLPn2bZu7WDk3nc0CDozkqOaci00dype0PeQhzqE1YgDEW+IOnlLy14Z1POR2KsKjTxF0Mz/wC6wUjyjGG0Yu86zI4txz+5ttOllFyhpkWdIHeDO1PNVI0VZpgpnUCRi0kxaZ9YwhcopnCkC/cD2MlU0vV9T1XIckzmGZBMuSixjY5CjalekRZthz6qOBdglhAqpUwIF2DtZPik1ANLxao3jfu10AWUHX+EooNqP4LK8bO9htwinP7bf74ZOe7ql8hC7FRM6hqqnIJ44q1RdBrMTUdGuFkBiIpIFkkXjhFRRIVSCXEAXXgPWp/xjfttGSqaZFlIyQZSCaSmIE1TsnKbkqagkED4DmTuG7XdbpOpf9fK+k26TqX/AF8r6TbpOpf9fK+k26TqX/XyvpNuk6l/18r6TbpOpf8AXyvpNuk6l/18r6TbpOpf9fK+k26TqX/XyvpNqwqhzRsY9d1eFPAs3QlXTJuzCn2Dhglm841fKKi4IveN4hcIWl3CVAMRQlnaUgLXkgWDR3uiotHShFQiLzJuytkzYbtypiG8cWrqdMfGRx6mt1OmPjI49TW6nTHxkceprdTpj4yOPU1up0x8ZHHqazy+gGTlzIyTyTeOBqFynnFnJwKmQiYxSuBJozSSQJrHcpAI67S0QbJ+yQLKRr6OMsFQrnFEHzVVsKoE2oLjFPO33XhfYrqNo6DF+enKbpt+5UkJrNSLalWQsIt2uyB3oxHxW5hKJygG51W6TqX/AF8r6TbpOpf9fK+k26TqX/XyvpNuk6l/18r6TaDfyFFU+o4px+vJxebkJxFEj1ePdxZlXCKbwpXQFaPlAKBt4RtAUwnQjN6SBimcWV2afXQM5BmiVLPCiEUqCQqYb7sQ3WiJhxBIwJoqMNGggi/O/BcDOlXWdE52rXAIZ2664dhKk0KQazJE5B6/01WZVZGEXpiDm8wWOcgGbwb+LXaqCuKcQgOR4IcS5mSPIaVtptmA4sbNpmsztf8ADfi+D2F05w49HbrL4L7sWZTMphv13YsNup0x8ZHHqa3U6Y+Mjj1NbqdMfGRx6ms/ppxSjeDKzgXU0DtGXUficWz+NZaOKJ2DUAA4SGLFi1Yd7X94snPd1S+Qhdgn4xf29an/ABjft6+yl/k6R/tVJ7DJ973v7spyk3wFk+Pac+8WTnu6pfIQuwT8Yv7etRHSKvC8RG4JllcF433BfECNwW901h4ZY+p7e6aw8MsfU9vdNYeGWPqe3umsPDLH1PZVTSKwHNpKHu25Y68JRN/2OPa2KQpySFcI+cqGKi3gtlCpOAbPXiSCooqGIqUimA+oRKNjqtX1XqETcu2hx23aFwuGLpVm6TEDwxTXpOEDF7Q3Xhqsm4bv6rXQWIVRJZGcj1ElEzBeU5DkiBKYoh2Qt7prDwyx9T2901h4ZY+p7e6aw8MsfU9vdNYeGWPqe3umsPDLH1Pb3TWHhlj6nt7prDwyx9T2k2Dt5VqWCdRh4y6Wac3Oem2c4ZM4hDCUFMIrjeNwXFAN/fTbmf1YVdYiqqSIzkeCqiaApFWOQm1GIxEhXJiHsYg7dvdNYeGWPqe3umsPDLH1Pb3TWHhlj6nt7prDwyx9T2901h4ZY+p7e6aw8MsfU9vdNYeGWPqewOkV6tMfbGFaiB5hldmn8ywYL3fxPqPmXJsPaG3umsPDLH1Pb3TWHhlj6nt7prDwyx9T2n4mlzyiiE5AxEi6GVdou1M6wkJVsQERRatQITA716h1+wx9O0pPli4h9SDR86a7Uwr0VXLqTm2a6mfkI924JibtSFuKYAC6/ftEv1nFWgs+jGDtUCTDICAo5apLHAoDECIFxH1WqSrYNepDysVtTopX8m1Xafds5Gxy2dSTjUDn+53Zrt0G6u2JvgLJ8e0594snPd1S+QhdgFY6Kkn6ZVipmUZMXTohVNyObEyCRwA9xg1b/XTrudbyZtjJxwzp7jJvarGQm9zVS6WIXVuU5SPjJf5jLPj/AKbRzcQuFmeRj7u1tdKvWIB8zfYhlkUyINHdYStPn3RVtKaMGk8iVyU2EuZFSTjAuAL9z2dexLN00zF2pfJx6igiGFZU8cxkTCQA1gCZH5Sjf2QtULR6oCisZPLtkdyUogxcMmMmyKIFAL82i/wX744bSDlgbA+EG7RkfAVTA8kHaDBqfAYBKfCu5Abhv2Jh7fh2tyjUkuI71ybuHpuHWEfgBGTNf8FqOW/nDz0eP/nxen3D+mK2IVqmiC6svKaAAZzN5lIjF7IOHPOmxgiiyHVqvEwa7SIuTAZVnPTkeGEoEubtJFcjMogXslZ4NfZ37aWZI697qOZkSTEoHOrJSDWORuE2rUq6AR+CzF43WBFNOchEX15SGBSPfySEc4KOMBwYdLA94awwbE+0x/cUW2hW6aeEvu9ym9evDia7GIi1XbBdfcF3w2Dv1THnNEcpDrDq0+nJtnvc8oyfwztIt/5JdYf0ewwnAWM49qO1Od4oji9vat/k751wexN8BZPj2nPvFk57uqXyELsVQHY5M1hu7GuEh7/nu66ddzreTNsZOOGdPcZN7VIjf7ui6elAL/TA0tGLD+gjBK023/6nVVSJ3doHMmtJl/8ApfhaQklQvTj2Lt6oHbI1QOuYPmJag0VAEq7Gcpg7vti9fqC2fGN+UdyJx/TsT7oREdNqufOA/wBFk72nLd8F0Zacb6/40hIWUKHYFZovIxjsfjzANbUywKPu6qY4ygdtKJRdzw/oBSKLsZUsPPoO0nyX5aNpanpBG74c62C1GvUhvJyTs8Jg7KUjDy7Euv8ABMLwNiPSEl6cJT71+JuwV1NPEWLQbvwgaxjoP9q1XI/gVY6P9KiYZ9q+C91ammpf9bqyHxfix+kTQ/NtZfafQIAirtU8Wb3b+lNkTOWt3wg4RLZo9S9qeNkHSX5NwkVUn/0mtUr8/wDr1UygJj20okjWAL+gDxJrB36pjzmiOUpuYDDdF1EzTcnMN2FnNJLwKl/YwkcSSSg9rB7DCcBYzj2o7U53iiOL29q3+TvnXB7E3wFk+Pac+8WTnu6pfIQuxVPDJXiSI66ddzreTNsZPUirKtzKVhAEBdDN55ITSKAZxPPJrJYy9jEUwfBaJEarqPFIwEy2zt8FnMUe+iXKKXQLN4RTdrDvX6rVc1LVVSEFGebrDhGB5pplPwq2M2KBEMWcxBquDV277IRxqrqVXb2VioUUzbRXGQdvEzyHOQRDbmLRXHf7FhdHqqpFAbS1POMJhgbgzVQxhhOGGBKOJMNYdi/fvC3TdU/z0/8AZ+0U6GqalRF8m4khIUYK6+TeOJDFu4I5hE+k37/ZtTK/JRUYg/TmoU64jA4yCo1SmESB/EWDCbaY++F/a7NoNmNV1IYzKJm5bGO0OJJQ6kbFt8N0EBeaJOnG+A71um6p/np/7P2rRopVFSZtSVQbLa4Lm5FqXgwMKl8DdfgPh1XagC1LySlUVFe2XowyqYjCARFVCYi2LsS/xHnOY3qXYhHe1326bqn+en/s/aqZEKqqUv8AG6cMkr/EWJVvCMkUzX4oIS7iUdOg3IB89qvbcldRkwPolzeUYHEoDiDZIY1L4IwYr2Yhqu1Bak2fJVUh+bTUkJjDA3paHFmY4y3QQBixS4BrAd+wgNW1MICFwgPI/cIDvgP/AEfswz9V1GhtWR3FrEKMDgS2iduYswbuCOfCAMeyIjaFWNVVSJHesiyipCDBXAtLHPJq+2QSh8Wcdjfr37IrnqSfekTnKYEWroYbR1v+ksSGFXRoZuvh1+9OXlJKKVHAV+zXbZy68UTqJiCS5f6aCtxy/CFmD1wTNPRTM3kkLsOjyjJQ7OTb4ewCL9BQofAHsEJwFjOPajtTneKI4vb2rf5O+dcHsLMKeqValHjumpQi0mhExcwoZqk5jnJmujS6K7YgKLIEHGAYww3bwjbq2SniJRHq+3VslPESiPV9urZKeIlEer7dWyU8RKI9X26tkp4iUR6vt1bJTxEoj1fbq2SniJRHq+1dwtST5qlcUxVpIlpKqxkdErKs1qbgJbNqtYpJFrek4kVAA12IQ3+usnPd1S+QhdiqeGSvEkR1067nW8mbYyccM6e4yb2o16PvJ9dgYf6EnByyQB+l0mlaqCdhzH00/APhMEuwOP8A6eFqaYgbcxzSYqBYm/zQEkYRlf2sRZZwIfk7T4l55GPUdgPaFmJXeL/ZzN9nBG5ilXOgsVAx78BVjJmBIx8ICOED791omMMYpjR0axYmMS/AYzRqkgJiXgA4RFPVaKkhNg2pqOCeGN2kXD4kS7H4gZSSg2dTRlANnophFopYdaINncg6cKY7xxaSLtMLrguzWxWXf5l5r0/armaQXDBSlSiUB94VjNrzjX+o1UTGyrhUwERRSOsocd4qSZBOcw/ABQtEquPdMgipMOdVw6TNuFZdcB+Eir0Q/Raoi363ELTLq74nFRNTD8yBbMpUTpaKzh5JgCW6z2kyDyLXFUNzgzZUo27fvvHYygU+k4zCykpI6MsJRMDctRQzR8VfCAkEwEfPFh1CF4ls3aIhck2QSbpB2k0UypkD+qWwd+qY85ojlXDQdzG1ZikGRveI1EzblLJtNRbg2zjUCOSBfrOguO+PsEJwFjOPajtTneKI4vb2rf5O+dcHsJ8GZv8AudmNJJ1hVdMQ6GTpxUQkpV+0jlnEkFSoxuNyo5j3+dT0VTnbguENXZv6reWHxmh/s1bqt5YfGaH+zVuq3lh8Zof7NW6reWHxmh/s1bqt5YfGaH+zVuq3lh8Zof7NWo2ZhK9r+QVqzKlS8XULSdl459HyiEk1UYuVXSCMMzMdzoUWikU2LclIHZAOtcoEDD1+vSUTSSNIAzatKap2WFwediXD50qu4lmizjECqOoANhu7FurZKeIlEer7dWyU8RKI9X26tkp4iUR6vt1bJTxEoj1faiBqCT25kYqusqtPjKCyaRyj1vBTDONarrM2BE2iKpkEAvAgXfHv7FU8MleJIjrp13Ot5M2xk44Z09xk3s2FoiLhyymYGQSSKYhTCRnMM1XdxjmIX3CCvZstLgKmlLsG0coGIMzmGjh25RECYb84Cj0+u/esZ8CKelnbkamcYeai2SUUVTRxb+bKosYbu2Nnke6KJ2r9q4ZuSAYSCZBykZFUoGLuiiKZx1hvWAobxQANfwbDhg9SzzV0TNrJYjkxFvAefTMU5RAQ3wEB2ay7/MvNen7VrHvUTki550CiKqahMSqL+AYRsgBOeFI5Fmpx1l3zX67HYrkz7ZVuZqsmrugWQOnmlCK72LOEG4bFIQoFIQoFIUoXFKUoXFKAdgACysoBR0xZmgwUPjNhFs2XcuES5u/BeVV2fXv69l2/SSwunxGqbpXEfmpWYKg3vIJsACQq5gvAAEQ394NgO/VMec0RyqjPOi1ckOk7jnxCgdWPk2hwXYvUyjzworlDEXeUTxEHcmGx9JSBpLR6wsJpheI6HIpFKY4JibWozdJnKs3U/lEFCjv3gHLQnAWM49qO1Od4oji9vat/k751wewnwZm/7nZH8zrnz1acvkr/ADy0R+yU61y2fk8mnm7IcrAfnZy3+dKWxVPDJXiSI66ddzreTNsUG1ReOI9ZxVcIik+aZkXLRRR+iUjhAHCS6AqImG8MZDF+C2Cqp6qgZBqLU0O6bKxd15rjy0eMYu+gxuALzXuGoX3isTesm4bVnVDhusQFEV0JONVRVTNrKdNVOMMQ5DBvCFumyrfp7D1Xbpsq36ew9V2p2nwqyq81Lw1SP1Pu2OxAtErwBWu62qvAp036+rs3fBbpsq36ew9V26bKt+nsPVdhEatqwAALxEZCPAAAN8RHavesZtSM/VU2YpjJrTK8ozbU00OAGv8Au8kQdWWWIYA5kzKoHYOolv2WfsK1nJt07PpMvHulo+II9cEbJNSKRLxCMdDHnI2bJpgm4BwRTDulCDeex2A1XWsbMIlE7iElHcc1kkyAYSiqmTa46L5rq9vbHWR/pX26bKt+nsPVdumyrfp7D1Xa/ksq3V/8+w9V2gJ11VdWA5ko9Nw4AryPTAFsRiKBgCLuLcYu9bpsq36ew9V26bKt+nsPVdkhf1rVpVnJhIzZIOmjqRfqhdzFhHtohV27U168BRw743Brs1cykzUMXCN3jN8WGevo5/KyhmLtN61CUUbsQZxbbPIJiZBEyypt4VSay8sSpoJMVZNuiVvJRgGAhKgiUzGU0S8wgmnKsjHMdmqNwYjGSMIEUExUJGPVzzZcDXCJTEUTUTOZNZuukcAUQctliCRRMwAYhyiAheHLQnAWM49qO1Od4oji9vat/k751wewnwZm/wC52R/M6589WnL5K/zy0R+yU60lJeBXbtZZN7TjJo5dNdNQQ24qaHh1lTtRURz+Bu/MIBiLrtV1UO6cpivOS8aeScFpibUpl6zSp1k4YpOAjKlTcMlTukV7zECQC44ahuG2GrourqBPnswU9W00/bR6qnZzM5GFlYIyYD74XIBYXUBNxM22LcBl4mRaSKRRHsGUaLKlKb4B2YD87OW/zpS2Kp4ZK8SRHXTrudbyZtjJxwzp7jJvsKPqUeBT7tQwqrsczpFOyKg4RMLyIA6RWy6uDW4amQWHfPj3rJR9TtOR5+qcEm7hRbSIGTUETAUI6ZwIpgqph1IOSt3A37kht/YUqoMOi0lJwMAqqJ9wVGSSdknlNWrA3ComZj/g6KbtbCkXFt15+cJdjjI0SYWeIDCQ8vIKCDKJSG7+VNnjBziZ96wLVe9Teo4sRKbjc6jT6dxgEoPxPgd1CYMIe6MDYf5gN+xEkiETSTIVNNNMoEImQgYSEIQtxSkKULgAN7YIhJtCOASOCrZW86LtmuF2FwxeoGTdsXBbvbEjkN8Nv5asIYnbzCNVMkil7fMGFQELh/8Al3P5Y1jrRrsi+ZPmnKIgdF2yXC+9u+ZLlTdsXAXc4qQprSgtrxeu0Ai44pRuMaSl1CRjC78V06KI/AA2maYJuSQEofQU9d+1MsmWUZH+EpV110fjQGyr6Sdt2LREL1HDlUiKRb9QBiOIAJjDqAN8w6gthgm5oGKN/wDH5hoO2Dkm63cPAr4DkKa4Lln2buvvBBQLKuUirO5NyUCvJmRVF5LOyhdcRV2prTbgJdyikCaBPekD2BefpgqYvHAlPMQaqmZYz4JlAgLJKDzOPnCJFwkX9rWAAItqwqJHVZnUKs3PmXzB0mLeRjXN14tZBmfmjdYOxvkOG6IJiiBh5SE4CxnHtR2pzvFEcXt7Vv8AJ3zrg9hPgzN/3OyP5nXPnq05fJX+eWiP2SnWkn39oXz9pnYEBC8B1CA7wh2hsV47pGLbSBFBWLKQpVqdlQWH+VGSgVY16ocB/CONkaTSqyqZ6n5OhZqotBqmRSm1mEkwqGn45uLGUXallgb6JIqAKaqyoCOvf2ID87OW/wA6UtiqeGSvEkR1067nW8mbYyccM6e4yb7KrV2gi6bLkFNZu4SIugsmO+RVJQDJqEHtCFhNSbxNZkADdTU6u4OwJqLhLEyxSuZCIKGH2oxXLcN4hE9+x4KRMD4X6D3bpe7Bp7yWMstKrhdcZMqy7k+APeEuDsWQYVBOEbsGZCtT7QqOEZSeI3ECEeycsoCS8ZpiaYGUQZgU4GMP3QIbmybGMZt2LRLnUGyRUiYh55Q2EL1FVB1mOa8xh1iN/LEfc3jpdEoEbzcWoDSTSIBgNmTq4DpPWt/8g4IsgP4NowahdRbyNgjrPmjlkmq2cysmdEWjNaQjlCKoNBjm6q5uZLmKqsoQwFTzd1ms1ToxoPTs1IiSTlVHRWh2OMzpk8wNCmUXcxbsT4EuZgoRyoGcJqGyUpNOlahmkhxIvX5CFax5ri37TRRL2cXzvPlAzkwc+qb2Mki2cLxE43SFFrNMMAOQSvxg1epKFM3lI7OaxQXKYoDrJgPurZqrmGYQAbi1JEpLuYNQL7gPIN+bPoA2sL87nWwfz9k3LRdF02WLjRcN1SLIKkHeMmqmJiHL8IDswnAWM49qO1Od4oji9vat/k751wewnwZm/wC52R/M6589WnL5K/zy0R+yU5ZWOU2xWdt0kFnCTCFmZMECOc5mM6rHsHKKZlQSNcUTYrgt7mqHxTqj1Rb3NUPinVHqi3uaofFOqPVFvc1Q+KdUeqLNGpttWyr5wDRqL6n55giq5MRRQiGkvI1BuVQ5EjXYjBfd7DJ9/aF8/aZ5SF/NTU/nfSOw2g559KsG7Cv8uMkkrEKNE1zLFrRi3wKC8aPCZrCsI6i33hZWH5IayzCcK3kgU0mFzueVfOmpiiO0uHNgRAOxff2bVfSkI7kXrFOZYyALyh2yjvPPYVjnCiZq2aJZsuZC7cX9dOu51vJm2MnHDOnuMm/Xp3kUd5Tj5Q4KKuYFYGZHCgXjieRp014h8YwjrMs3Ob4bAAKwVSIlKPt5XNOyI9q9RAsvHrn+JJuX4rBtjSFQtze+Mx2rmEf9nQZEzwQ+NAo2iJel6JrWVYI0gwYLLoUnPYU3iUvOLqIG+4efKi5IP+1aBQXTOiuhDRaKySgYVElU2SBFEzlHWU5DhcIWrf5O+dcHsJ8GZv8AudkfzOufPVpyqKtSzkdBouBMCK8m4I1QOJcN4Z5W5Io7oN8Qvssamp6NnCN7s8rGOSOkSYhEoc2SvSHWHYG2TWRknSLJgyyvUa5du3JwSbtm6KcsosssobcppJplEREdQBZ67Y1lAPWkajpEg6aSCTlszRxkTxuV0ROkiGNUu+PZsEbTtWwM2/FM6uixcig9VBNMMRznBuY+AoB27rNlannouBSeGUI1VlHaTNJY6QFMoQiqwlJiKBw1X2YvH1Z0+zaSaGkxzt1IIt2z1DOKJZxq4VEiSxcaRt4exZuu5rinGyDwgqtF3Mkg3RdJgN2cbqrCRNYl/ZKI32qZ20XRdNHTClXLV02VIu3ct12b5RFdBZMTJrIrJmAxTFEQMA3hYYFeqodKbBfR9qTuihIiqBhJcVn7ecMRR3QBh1b9l5OZkWMTHNgAXD+SdIMmaIGEClzrhwdNImIw3BeOsbFYtK5hAXUHCiZ4qtGtVz72Bu+kUWrJwcw86BFDCbsWQkot2g/YOimM2eNVCqt1ylOZMTJKF3Jy4yCF4arUmpPTDCIS5KWLnPSC5WyAIotnxVFDLKXJEAplA3xDfsVu2yh0adY4gVMg1DFp5ww6gImKrkgKHEewF47CStU1DGQukX6Mg7cBpju4QKYWjBLOPXYEEdebTNd2bLBS1SRkws2DE5ZoLZuQbExFLnXEa5Ki/QRE5wADmTAojqvsIiIAABeIjqAADfER7Vtrlq8gc+CoInVScHcRySo+8Wl26SsUiIDv4lgw9m22qbxutGC104r9BUjhqozzee0lJZETkVRFLdAYt4CFl4+nKpg5p+1QFy5Yx0i2cu0ECqkQOsq2IcVk001lClMIhuTGAB37Sff2hfP2mbGprkrgzVARwDRSGSkEFpJNyOHmKjREx1kzlE4X3gGHs7ML+amp/O+kdg/C7Ln5+RdnPBNlxxIWrPuqE4lbddOu51vJm2MnHDOnuMm/3irf5O+dcHsJ8GZv+52R/M6589WnK18BgAwbWszXCF+6LMRxij8ZTBeHw2yeAQpSByOND3FAChjUMoooa4PfHUMIiPZEbUGUwAYpsp9NFMUwXlMUzGbAxTAOoSmCzrchu6wmcWrnvuCHLuu3uQutVmTw6ZGtNZSG6U1S5sJE0kl0hfPGDFIwn3DdAVH7Ioc8c6aXbtQuSYpQXb1BKlqqryXAoRGjaSVSeHbuihzVAs9Ni3bJKh2SmCzMhSEKRKroUEylKAFTArCXIAEAAuIAE1auxaeTcM2y6bSi2LloRVFM5Wrhs1a6Mu3AQ5is394YtwhZzkfrx7pENOEYK0NVChhKhmFTLnj49wVQxtDQdqOjkwX/AHM7vLuklCqFhVBIQThkfnbj4QxhdWEKAXG39QKG/rD27VUSeKD6hskonZw1Pr3KRryoQdqRwy0g2NiQfY1mbo6eINRCoh+HiWi63Wp9GBkiCzO3qB0yZsl9zqTSM8VRKVdLfIJBA6YgAlEBABtGUvB1REVUjTmlM9Oin7N9gbLyL5zHJutDWWKkuVkoUo72IxBENVpq/wD7ThB/TpxLQqNUbRg7WycxwwCBgZhKnqc8SltYtHJkueC6CRMQy5ifyWPObjHZtO1ik7OpAQc/NMWjwTpvuR+PI6fRTVQVgxkBVulchfzqBkwDUABaoMr1UYZSsqpnnzRGScFBQY2FYESSTjooDgY0e10k6pRImIAKSaZfe2YZVqcEIms6Fl4xZGbalKm7Xin7kkYtGvDBcD5mLl2kObVxkwZwt2FU4DkToGKcrQ7XK0lASdXHYnMVZOMlHrePVikFhHELYjorvOgIc0zBA50TgKNOMIlg2gUGmgkiSNkhYaIJRIdBRucpiLFVARx48QqCIia8RG1a5Fm6qh6PkgUn6WYnE5yQbtxHNp9ZixxmEUmAtHKxBLrvM3IbfMcTTGWhliNDssrcpR9UM0Chqj3sDCvznzRRLnVHyD12cBHclct0xHWYLTUvG5qREXdFv4oiZs6nJqcmFOu2SaGbvFcrsChdgvESjqtlOjpp3tjOpU0i4m35sJhWmpV3Ayk2JDgAYkds3JwKPvilAdmF/NTU/nfSOwfhdlz8/Iuzngmy44kLVn3VCcStuunXc63kzbGTjhnT3GTez1JpHNlUmbgrYVV5EzcyhxatnJhBIrBxcUAcgHPa7rdC2HhdX1TboWw8Lq+qbdC2HhdX1TboWw8Lq+qbMmzyPbokeqLJFVQkDOBIdJsq53SRmLfcmKiIX4t/ryt/k751wewnwZm/7nZjyEFpg0n/AKKHGlclR5UjHQeS9G/RxiCKL6Vn8HPbnDf2be1ZG/pFbejW9qyN/SK29Gt7Vkb+kVt6Nb2rI39Irb0a1Z8kqeS8sJtchp4wq1VmlM3tiywaGD5ArQVM9h58brrUTyPkyVmhtoGgR4yq9W7ZZgMQBpoM0DNQcgN+LAOG+0NE1ByAuIql8p1JMZCQpJWoFh5InMdMudqk1pMhWip4xpcLwA1pGWIXngOBXHC+Z/coi0NlGgMSNSZNZZvLouUQ5sEYo5bCucAKUTKDHv0G7gLxwppFVHs2qTLPJslGKlW6DAUyxXOVc0ZS1OkFJwDdYLjASVqQ7pVQt2+kUbN+F8N+5S9qn4CIfurS1V0/JXN3qMdSzyAlwLiWiJTa56UqwXa1GjkCgRwlvKJ9o5SGLyK5QWypKoyf5N5ynHL5Y4nVlWPJJTTqMeKnEoaSczVQMLi8dJSwKDeYTCNb09UpgYQWU1RxJUzLL8zYuXK0ktIxzQXKokTIdPTnDQ1+60kCBdcoURyiFcNkXIJUdULlMFkiLAms2jHK6K5AOU2BVBRMDlMGspgvtRR0UUkzuCTirg6ZClMuqFSzKecWMUL1DgQgFvHsBdab75Qn78S2SvLDk6iY9Cs6PpqDnJdimzTURqZgDFJw/XctcOB1Jt8RzmMGFZVExwAwqFRAJNaEXI3JVVPS8E7QVPnlYOXeRyrRwzeYAKYTslXBTgOEudSEpwC44WqHJvMkGOqyi6jkNOh3G4dFYPsydN2QL+bo6dnSicmItwpjfcoS9OhI4gyFT17Mw8XDwzbdvnBGck2k13JEb78wmqzTSEw6gMqHw3ZAa7zKr6LycpUzA1gsyKKpW2gyKMiZ4QLs5oz906eEKYwAUpxSKOs4WbP2ThF2yeN0nbV23UIq3cNl0wVRcIrEESKIqpGAxTBqEBtXGVKNvWpGmEeR6LliXGaSs0nDM4RyRiuW9J22TRByqJyCYMJ0R3lAt/CIpJ5gKEvlFk0mq57xBnJI03TDiMe7ndXNH6SZxAOeKAl7NoejpdF2wb5DKmhNvllsBhkJNes4im6ThVNedRNCNHUiBg1kErdLs67ZbO9CHlae2YX81NT+d9I7B+F2XPz8i7OeCbLjiQtWfdUJxK266ddzreTNsZOOGdPcZN7TnfcOKYrlYHu13xU+68rf5O+dcHsJ8GZv+52R/M6589WnK7V1SycSUbeAnYFlpiPaLiVRNUgukIx+zTd5pVIDEzmLCIarZslGiRPXzMlR1YUmvf3BZ0C67ZO6Ng4UsdTkrllpbbCPQfSd7rbJrJNHoqPTvTSGJdsQCXgqAgUAuuusuSkIpeGRdGMdw1JMzrtkoqYEyiuLF/JOmgOMCJQzgEx3BdfZ/GSKJHMfIs3TF+3UvBNdm7RO3dIqCAlECKoKCA694bNoKiJWDfxdNtmsWRtCyzSVCOSQTzSCLo7dy5UKsYEhvFUcZzAIjeN9kCVfFrzKDUxVEGh5mdaMU1SlVIC4MWEk1aaTgWMXOCTHhG6+ytEou0p2ChRKk7g2tcTj4rEExTIi1kQbz53RW7c7AM0iubNpGIOEAHFaqIylJJo/jI9rTSCZG8+pUBmhU20giVuZy4fyLpJNPM4SkMe4t2oLcnUoEbGSjOJPAnqB66IxKSJdvmzrQXS6yyTY6Qv0iCnnLxKcwgW7Ga8jWaYQ1VQji9VsqIpPESm1kFxHyDY+cbLahLnEFCmuvC+zenuSHb1oRUqTKkl8qU5KR6aqGsqCEKNSqZzNYfazAe7tWbUhDSFMxy7IDNmtNR72MbOG2C9U6KUSgqVZMQvExgwX67xtAIVann4QKiZhIpOJeRjIzQwavl1VnoNH7JvchmQNnFNad2oQ12Btk9etHlPJqmRSCNqR3Uka1VTEVFG7VVxJyaTQQFfEZNMS794hvWeVLAQgQD9wdd0+WZTE00jlMedUVFxF7ZhD6MnnDCUgo5tL3oBdYKsUcRLx5DAokFYU1UR4yQjgIkBzpL1BT8i1UzaCJ782soYhCmvuC+zmp6U0OfllvuJ3VS8+4q+VESphja7cv38mq0vRVLjTSMmAlELw3rKJ1M8hmsW/xsFSTrhkgwegumfGyULIHK3cZ5EDXpjfiLfqsLZk1l06df4nJ4CMrKqUKWeA5HPCqEU0misBRVxX4UwBIQ7F1k4GKYoRMQg3O1bsooBjU2yKmLHowshQUbqGMcTYyCB8Y4r8Wu0hK08wfMX0suo6lFDVBUT4ki6Vx43T1vISrts5ciKg80OQThfv2q1aNj0WK1RVXRElMrNcaCz5+pWdJtDujqpnBRNYUUC6yCW415ueMYRVqmJhXjKoXKiqrqVTqWqTOnhl1iOFweirNKFeJrrEAxyKgYhrtYbML+amp/O+kdg/C7Ln5+RdnPBNlxxIWrPuqE4lbddOu51vJm2MnHDOnuMm9pzvuHFMVysD3a74qfdeVv8AJ3zrg9hPgzN/3OyP5nXPnq05fJX+eWiP2Smw8hJQqqsbIEKi+QRcLNRdNs4Q6zRRZudNbRnZCZtUoGDGkYxR1DZdrARDmgHDeh14tvBDTitMNK0d6es7dyLFqVFBsqxjmDMBKcUyHcHIJi3lRvNVL2KXVayD0rCFQdIjhUbkln7do8OQ4bpM4sDqlKcLjEOYBDWFv4PTqmkEY8zap2GTp0VqkVPbKnp9u2aum77NgUXoJLN9ITzmLC5HOc8N9qkrkM02o2Zrs2TyqSJFTQbsFJaHi5WJk1QC4hC6eU6qil14ERU13q2qKHZODJQ+T5CnZifEm89qapJVpHwUMe8oGwx8C4cvVbhEt67e/XdZkg3SSQRSaNyJooplSSTICRbiJpkApCFDtBaBy+UuyjkHkK+RjKyhw0ZkWpIeVPoorNtQfx2jjuxlKc4lwqDuUBAxsqj/AGqk6pr1BtJmkWZU10YWGFICxlMxa4pkOmSMQ3Ls1xVF3mMVOdIBaZZzTIsnGcmEWu6jVkRdNn5W7OTVIg6YgU4SCWcADggJTFOoUuod62V4tOtHtIHX2hBGgHsMtTyiDKNaESdVHtUcCooJvpB9cmmQCGSTOBjlDPAAZPqOTUUTZ19lKpenJzAYSaTBKOs49YmOW45Su1M1iuHdEAxR1CNqAZRKDdpH15RU9Cz0c3RTRZui0w3eysS7VbJFKio7agGjkUEBMVuIphudVmDV0cEqSy0KVPtbuU0WkdV9L1VORibBEAHCmRyxTIUAKAY1HKJf5O1CSecA9L0tlhpWgo9qYpVG0tNKrbYVk9WIomGNFgq3aR5QHGQVEnF3ZsBSgAAAXAAagAA3gAOwGzJ9/aF8/aZ2DcklUwcOqUmPRHki2K/OUd7MxxTmfOBHtETMNsNEUHXVYZ1LOtZLafkWp1f/AP3VWqQ+r4U0Vb+xZOuatjKfp5s3pCQpthBRku7nZMp5KYiJRVxJvzR0dHBmgisJSoAfn+e1bB+F2XPz8i7OeCbLjiQtWfdUJxK266ddzreTNsZOOGdPcZN7TnfcOKYrlYHu13xU+68rf5O+dcHsJ8GZv+52R/M6589WnL5K/wA8tEfslNh88peERqOcQBEWUK4k0odN9e4SK4Jtiumqi3ORsJzFxBcYxbrwvtRNbVTTKdFoUE0nzMo1SZj5yUlZWomLdgrnFonGybRUcgmYxRzoqqqiF5Cl38p9E1fFRMBFuXaaNBy7J7pqz5FosD5hJSqAHVO1Ej5ojnCgCZhIc5ALuQUPkzeVnCJwTLJuJpySwyrCQGqauSboN41WITYrKCziWbhsZ0J3QpLHzhUs0Fxj2yvRlT028gnNYTb2Zp2QNUSDlnjRjYxtAGfR8VJKo6Q0kGBlTY0TcyUEuO+xKOjGslU9d1A4YStVSzmq1EGAy5HTB28VdIyUmm1kRRas02aBgSvEiJTjhGzNZ+1qaMf6KTSIw9azjk6CxC4RSBy0nTtFQMJdRgEAuHXdvWk5Kv6cmIynIhqVCiohxW7icbi5dFdNZialBQmnLjbh0yVBFEhbm6LYyhd0obHaoqcWp+b/ANFzuWcu6UXSrsWrum0llDKKonjo6dId0wcmNq31yiXEICY57ouUpOlH9dSbKYbrDEyNeSTAGzfMOiHkmozr5zFuHbYTgUpFMOo4iA3hZ7lRqSIRppzyIoUZFQBJBtKPdECVPLvJSYeMQFiVydbAkikiosBUgETGvEABm4qKIgqaygUlW7aq6UaNJDTIp1tC5xxxHzshnJkQk2yqpBuHUcEzmAmtMrbKfP08tDp0nSriFpemTSkU+lXsvJCseWlVnLJ2eIZt9EcaIgmK5jKa1D5vUUW9MuIvkYryl6ne1VSb88rHuUkpFxVEpNJHTfRqjk6JQYSQpmxAXm4FPrAtsktNUZT6s61oOrISq5aTXl4qONJLMFl3EobA/d580lMvnSrg5vaynP2ewkoqidsodMh1G6hkjnQOYoCZI50TqImMmOoRKYS9odmQpxCU2lcO3EQ6QkxYlkgarw81HTSJjMTuGpHJTqR4FEBULqN+i2UGmq+rurqoY0q3pEiLNnImo+Jf7fxTp88B9GUrtbnk01ESgmBlTaueE2/Yg05SkFFLkDCD1vHoDJGAd/PSapVJFcR7Z1DDyh+F2XPz8i7OeCbLjiQtWfdUJxK266ddzreTNsZOOGdPcZN7TnfcOKYrlYHu13xU+68rf5O+dcHsJ8GZv+52R/M6589WnL5K/wA8tEfslOtctn5PJp5uyHKn4XZc/PyLs54JsuOJC1Z91QnErbrp13Ot5M2xk44Z09xk3tNpO3zNqoMoU4JuHKKBxIMVGABwKocoiQRKOv4LdF4z6e1+tt0XjPp7X623ReM+ntfrbdF4z6e1+ttBkaPWjo5HTw5ytnCS5ik2seFxmBI5hKXEYAv7Y7MfVlLzEeDd1NM4JWGkIVJ2QBcsZJ5pyT4HCSwGAWGHNiUQEDb4Xa31Tx9V0bWQxTBaTfQUhRzqCFZk1bmcu9r3zCo3JzvCJFESEOUANd29Qt6opV7yLSapnDd0VwzRmixsmxv0hmdNUWpHbZTERQpwzZhSOHOmvAHlTjXdPU7ok67hNBLQScqB9FZRzvSdINUbAS49sMODAN2G+/XqrCAquajniCUfBPKSqyLpza9Ixnp5dKUQdsF3bxod6xVZpDms6bmahTX7u4MpdM8nFOxCeTqe2k0wKGJIKS98hNMiOBQGeZkZ6ofEIYj61LuxfaIRyqRsDNUPNugYNq4pNrIx60a6HEa6bh3bqRJncyQVM2icMSJTGTMoYhk7MK2o+bjDs3EjHRoxzuKQkGzhN+2fOiSLaQI4TU1ggW4N0QxRvs0yhLTNIVvDJEiXE/EqU26p14zayijVAhox62m3pXGFy7KmIqJXlvx4DBeAMK/BbQIJ3CGnHKjsbtrm7dE6kgVyYoCAjHmRUKcS3gODVZ5UVKy7XJxQqb9yygHi0C2qCp6kBocUXL9ckkttRGR4LBhIUiaymcKcom3N409SuVF/G1BTlXKGaU/X7KOLBuGsqQ6RFI+pYpJdwxRSE7pMCOERTIBRxGC4FM1T9LU9HIz9f1k6IypyGWWMkzblUVBAZeZUS5qlGIKDvBhFTAe4xQIYxTSbPKdASMwmmLkKZd0QyaUw6Xw4trCySD7khbtse5KuKpj3axKFpba8T0jWUI52oqGOXQTkVIKVIcwZ0rdcUgdMnWjqFJjwmAxDl3yXjP5O69PGndF2z5GZFiwPGkkVYB+8ZySQJCquCoOEWiipB1YNGUKN470rPyquZjYaPdyT1TUJgbs0TrqAmURDOKmAlxC75jCAWq51UD2Ph4ymH7NEKfaQpQcKbZDK/czp+4cCuiMdoIF1ExHNffd2eXrf5O+dcHsJ8GZv+52R/M6589WnL5K/zy0R+yU61qyqaMmKMI2q5GngeM6niZt2s1Vp9gqwT0ZWKlmBBTXKsJhxAI36uxr6K5JPF+sftNborkk8X6x+01uiuSTxfrH7TW6K5JPF+sftNaEYzD1i/lJAcpdQv1oxuu1jyuagqKBlVEGaLpdy5BBAXOEuM4ms54JsuOJC1Z91QnErbrp13Ot5M2xk44Z09xk3tPpspKIj2kTLEjEUl4RzILqBtRFSJ11XBZtiW8ysgIAUEwuKUN+yVPOAj6hfScYDuHQZMloQdII7Ok6M9XWkJZNKNatgziiuHEA3FKU5zlKOedT9Ns9V6iZKeerII/0QdL1G3MqAfhCQl/aC33PVVOL/AJGm1lP7FVDbpig/FZ19qLPnoT8EoLRm5dAmNMOygcW6J1QIJgqcRADYbMXoz8EmLtm2dCmFMOzAQXCJFRIBhqcBEC4rdMUH4rOvtRaJNJysa+Q5NooCpNIVeOUBXaeoMJxWUmZADEAoDucAb+/acZslMmbpB1EOEHqFMNKkRqJeOVbmTet4nbpw6YncLtDGLvFW/muaYbJNKImGjFGJcvEJxjLU8dzKFmHBAdLuF3SFQt0XSDlNQoIKFTIGbIBBDEQ1pQaNkKFaxnJfKAonUsTPvn4vtqoPOHItGTLBuVqKWbuKJBMBsWveAJgKnmoxCZGrakO4zkA/dtVkzPhFsvEKqzUecIZRDDo5c2AlJqG8bxt/CMKzlY5s4TrggPVV4VZ2m6V27rLmjdEsy1MzJiAw4ROrzwa9WufUm5mGdkTfwJmCCUAuycHfjLtSfczlSeeAmoVkdYR5ma9PEHw2ycKy79qq3NyHaOzCMVReJt9p5Ha4VXxpJYi1zACfyBL7UdkVyiSNNUNSlZR8OvH1NT8dJSqM8ZqRuqxhVnElIMyNlRkCJAoXNkMRfNb6SgYqigIiUYGhoWGhY5No1g3LV6pHkmopF0dR7t46LnFUTHUcGzQ5y8+9fqoU0TNw7diMWuJEVaecOlE1ts32mAdclQNiqn0zHeOAuu0GrKysY+urWPI2TaQq0c4Kc0LPCcwLqTMhelhJui4AvHDr1WoROffoEmuQhloTp5GKqN0xGiJRV2TQhkUzKHCRM7ATAsXm143e9t0xQfis6+1FstiMXJtEUgVmTSjo8Ss4YLSPJK3EoFZFlW4t1hUO6w3rHuADb9ofLHCuGastk4ymVlpAIR6jZdWMXrp+YTOltPX0lgnKnEMxgDCi8UvMYAtkzo6FNn4GqWjPKTWRBEh83SEK4SOyg3xOdMaZqkpGqoEPjT0VXVb+EIYd8a9KI/GMrVvsFb/J3zrg9hPgzN/3OyP5nXPnq05fJX+eWiP2SnXVO94qq/e6Ws54JsuOJC1Z91QnErbrp13Ot5M2xk44Z09xk3tWnCoPNimbEd4b10qFXbpjfqza88gqoW7+kdsT5rRM7NtE52WlGDaQduZgNsSpOHiYOFUGLVznGce1bHUFNMiJCABChfeN4ju6agr/AMMsUyTUD4lE0SqF/QNtUSUvaAjt+mAfEUjooBZRIGr1EipDJqA2nJ5rjIcokOU2jySd4GKOu0tBovn7uKZxUE7ZoyTkz1dkq7WmmqqLd2qGkmZ5mMSuIoY4lNfcOu7YhKDpKnyvFSyPJSvIOZaJZIi3i2ysaZuki4dkcY8/OkvExShudzfruVYQ2SeKgpRZuLdvMS1fw8lHxiolwA7OyYsNJfZrfAm5C/fv50ZFkzacmdWzDoz+UTYO20Y1VcC2zDZm2eSpm5SsGeHWqYudMZUxs3vEB7TK2SxvPi6nnc0D1GvaejgIDplHNNGFBRN0IimMfixYteO67VrfVRVlLBT0TBwSjKmqPjqljpZxLy0k4SM/lH79JRjH5xs1ZlSQIsBSJgucQ3V42yn1IbJchLI5RKg27SbkrunmSsSQshOPSN1DHI4I8McsxcJgzd2b3hv1Q58pwxNJUFDOyyKdDQUmtMyss9IXN4pqZI3ZMkyikochTIYjETOcpQAxs6EdRNE0um4RbycbIi9NJw8ZHtG7Bq/bEYINV3KTgTlzxLriFTKTeHsWb01U8NyM1JHs2ow66rxnIDFTbFkkmm7ReRqq5VY10fEkqUbjmS14QOBBBSicsNIorJmiHMO+qJGfjX6M+yURM0Er9og42xQfLtT3HVLixm3e4EbPKTi6fPlJoLTnT+nHbGZiompYBJ2fOuIuRYTK7Fg/RM5OJyqN1S7sTnEu7AidPT2UmJaUtR9HulH0PQ5JNvNyc1KiZMSyFRPGN8SmyKCRMDdMyw3YyGG44iNN1pSb9tC5Q6LcpOIR69KoaNk2qa+kDDy+YAzgrUVDGwmKBrgUUKJRBS8oM2eSErGoVSCjthJ1lTy1KMljAJCyBzsHKk4+aJn3YoFbJrCXc3gOu0y65vWFbVG9GbqiQSO2ZqzMosqofRmhnyzdBFkzM6VMUVTFMcxzn1YgTLUtGV/SO1bSckaudrmTmYuTaumFVSDl2oyAzJczpFygnIHJiwYeZ4gG8bgqxQyR6iqFSoZCMIRq4QSFSIgnzhvGM2qj9dFq1BVRy4dnATEDEvcO6LbKG+qekAZMK9nSzaLprPwj8IkQdTTozZ2kk6BwuAhJlKB0yjrLzt29y9b/ACd864PYT4Mzf9zsxq5Oj6rqeHXyduKcE9LMGcis3khqVGTwuUnMgwzSWip89eN4j8d3UlyweLMP9pbdSXLB4sw/2lt1JcsHizD/AGlt1JcsHizD/aW3UlyweLMP9pbdSXLB4sw/2ltRsNCUFX0erSeVKmJSoXc7ERzGPi0I1oo+cpOV0Zl2YrnQpRFUpMO6KcOyIddU73iqr97pazngmy44kLVn3VCcStuunXc63kzbGTjhnT3GTe1acKg82KZsqqbUVKiTqGHtASYEw/stTBR57kfhxN+OZggY3zmHlKhDtQVLfvlU7EwteIjHU9CsQ7RTv3ss8cfpFNuhZ25btFZBw3bLLIMUDJJrPFk0zGTapKLnTRIoucMICcQKF+vVaj6YryDo08TXwThYkaScTC8nBOIZkWRUTl1JHC3fpptzlIooimmW8ROAgBQIaUnJJQUY6Hj3ko+VAuMxGjBuo6cGKQNZzAkkNwdkbUPX9UMYRpRddzLKNCOaJvNuaVYz2fUpqZfyirw7GVQWRTKL0pW7YUc6UU8dxgEcl1TN4QYGRKg3hJ5i1fsnJJZ+xRkY6PkdJkXrU51yiZAubKUTqnTHUGIoPJ5m0SkZtU4NYSNXBU6LhyVJV47XclbnTX0KOi2qzhUQEvtYFxFxANqaqGdNG6fPwsZNmSimrlqzapSrFu9SalK7ev1lToFWuMfGGIfehalyyxaQLk1qSbSilan2rmBkIBVbEZNtKl2/TYhnUw3LkNxhIoYUwwYTPoKlz04tRtOpNk6pmHkbJrPG08rzRSmYt0hLt2L2RSZiRZwbN4WWdKU+I+5s7cQUWWYlwKROPYKuSMm6jhdUiJVHbo9+YZNsedWEoGPmyDgKY1wWd5OcokZSijlWlOS6LmaLGWBikzLJhFqNJFCYUUcAodwI4DhgDcbxsW4nKvk0zrtodqChGqZsCj12usm0YMiHwnzYunq5CCfCbAAia4brUPA18nAE/wBIzJ6WMcQzV62CnKmZN0HZoCS0yQdllGrpJyCaDlMUDmcEMUUgKYpi1Xkvq5tCoOI5SQLTMrEN37JKZGHWEJBsqi+fyH3YDQ4LYSGACAkpv7kbR68IxZSlQybq9JrIEdKMmkS3Ogi+kngM1m6oEB29boJhnCYlFuzhELSZZBVss+CpJ7S1WaCjZodfTzioLdBZw7VSSv3gMocfh9hrf5O+dcHsKv4KmndVOWlNSplo1lIxEYsRsq4j2wus/MvGTUxE1liFEoHx7q8AuAbdRao/G6gPtDbqLVH43UB9obdRao/G6gPtDbqLVH43UB9obdRao/G6gPtDbqLVH43UB9obdRao/G6gPtDavJmoYBamlamq4kqyi3UjFybkjNGmoCKzqq8O6eMwzrmOUuLjxAG/11TveKqv3ulrOeCbLjiQtWfdUJxK266ddzreTNsZOOGdPcZN7VpwqDzYpm0yYNQhk4kBAfhB+tdaDKG8WHjSh8QMkQDlKtN/Ntaabf1EJJzd/wDebFaON++XjWgfAVtTkQrh/Qo8MP6bKLLKESSSIZRVVQxSJppkDEc6hzCBSEKULxEd62TKu6bquZknVVVYzo9/Sz5whIRvItLF0+WdQTZNEh2LKPbx4LLnDObrNHE4Ybj5R6ThpBm7qVOk3q6kI0doryxCmbC6bJqx6KhnaW2RUsCWIoAoJtVskMNCiVy9qVxk0puNTSMAiMm3YZlylq53RF45Uqg+8wjfbLsjE50lS06GS+q6WWb4gckmoaBmFiJN8G7Fd41FRFP/AMUxDe9tW+VKRZnaMofJuvTEA2UTAqZp98gzcV/NtSGKc5EDO0ko9scDjeigrfdiELZOOAdIeb8fYuSVm1aSU3WTbOOtIKddClKebOU9JrB6kiqioCrNyUpY5MTpg5fXBeJCK2msiNTJNmVV0M5dLsFkUgQSqqnXzkztGdQ/n3AGdBnb93gUJivUBXCKzlZJukAkKKq6hEkwMocE0yic4lLedQwAHbEbU8WLqmaqOMyjwlQuKsjJtdGRcwremWx1oZ6gqiigLCJNIyJWzYuECgYVS3mE25qosC+Zyy1KTMQ7nmca6ReuGZY98npzZ8i2OoZqszRWz6hFMIlTTER3rfwdWkKcjzSawUq5NZEwGIMHBoRko5d4w1Agq1PuR3jjcAWrnKXThBGp8lWXGpajbgXH91QRmFNhUDFUE7hFsZukVVW/+QSUD39qxyruW7hsnVstScXSbV4RMrlhQ8PKgZqY4AXEirPzCq71QuIxRTzGscIWnOFNQfv5/Ya3+TvnXB7E3wFk+Pac+8VO94qq/e6Ws54JsuOJC1Z91QnErbrp13Ot5M2xk44Z09xk3tWnCoPNimbPm3/WKCcofrZQ6f8A/K1Nq/zkDEH/AEmj24jf8N/KVor25aLRD4kqbiFLv6zgditOFQebFM2exUm1Sex0i1WZPmi5caLlq5TMksioXslUTNdYXFMU40jXOaMgRyZV4/dINzjiUbtHMk5eLs26ptZyJGIQ1wXhqC0pVzWJao1JNNGrGUlygfSnbVkVMjdE95xIUpCIkAcIAJgTJivwluGfjaeZNZTG8VRWJnjIsVpLoivFsVFTsIleQ/lztk0jLXjiEbxtIVJGxYNpuWu2zkAdv1FX2AMKeklWdKJK5ko3J3l5mGot1iUs8gWRqcIqdYIVAFGUfjUcKO1MTdko3Icp3SplBKN5RON+/ZGHgmYR8Y2v0dmRVwqkgA3BgR0hVYyaQXaigOEOwFn1URcMm1qCTzoSEoDl8o4eAuYpjlcZ50omoTEUMICFxLtzdYtXPKebrVKRdJwnMi5kCvU1UAwpZtQjsoJpkLqwAAEu1XWdQFSRqEtEPc3pLJxnAIcUVCrJHKoidNZJRNUgCUxDFMA2WTpiDaxguCpkXcAZw7fLpIhcigtIP1nT9Ruh7xMVMBLxuALxtUK8XCMWilWPVpGoxKnnAl3bgFCrKOyLCoQxFM8e8gACd6hhuvMa9w5gYNtHuHLXa8y5VHS6yMcCgrBGMVXS6542LKsOIGzfNIAYAHDqC0wnEwqLZKoDODzaJ13jtGUO7LhdKPEXjhwksq5INyhhDEcNQ6rR0LOU+zfxEQmklGxZjOEWDRNuiDduRJo2WRQuboFwkvAcBd60kwZJik0Z1JPt2yQqKrZtFN+oUhM4udRU+EO2YfYa3+TvnXB7E3wFk+Pac+8VO94qq/e6Ws54JsuOJC1Z91QnErbrp13Ot5M2xk44Z09xk3tWnCoPNimbfI3/AJ3aIT1/cxHTLXv3MXzpmH/BDlK0T7JZuPP+hSmIIA/4pjsVo33rpiOdB8IOach0sX6TtDfN1hOcK6i4xU9hrf5O+dcHsTfAWT49pz7xU73iqr97pazngmy44kLVn3VCcStuunXc63kzbGTjhnT3GTe1acKg82KZt8jf+d2QEvOjI1Bh/F5IJTD/AMOUn29/RGHg5RP8durIxjr5iJIfPsTKHZkafhH4doTsnsuycCHxJrIdYTnCuouMVPYa3+TvnXB7E3wFk+Pac68Ou5WSboJhiUWWUKkkmXtnUOJSFD47HJHKvJ1RPfLARr+YTv7QvWSCkeT/AGlQsAsaMlBAwXgaTkoSOD9JEX8i5Lq7aYDY9KTVCrOXibVi8MsxqNE6WbfFxlLzSHTEVCAGvsX9nZp3vFVX73S1nPBNlxxIWrPuqE4lbddOu51vJm2MnHDOnuMm9q04VB5sUzb5G/8AO7Qxwu5siu5OADfgVcvHDhVMe0dJVQSmDsCF3KEuDWWkVMY/lJlLNhf2PazbFKv9yCbvbenlzD23rVOXa6/y0EJA+FTrCc4V1Fxip7DW/wAnfOuD2JvgLJ8e0510mrIuioiufNNG5CKOHr5bVzBgxbkVePV91zqRDDb7kRSpKPPdhcyKaUlUCpBAhgMnGkUGMixG8fb1HJw98iUbFcySbioXpL8LyolxlTEERxXtmiwBGMBv/wCroJWApQApSgAFKAXAABqAAANQAAbDvvHT/kDWD4g2Kd7xVV+90tZzwTZccSFqz7qhOJW3XTrudbyZtjJxwzp7jJvatOFQebFM2+Rv/O7SBaakawEyrxcZJlSjFCRiSSInOZ4crqWjHcSxeKLX58iC5Oa3icucERt92Gytp4vf4U1yf1IAjjD+gtryT+VFExe3DVKsH6SuaZcJmH57LuGlZzgHRbrqpN6kodyZJU6aJlCJmWbwtPnLjEt14nspUZ5ttPysm1YIPV2gIJNY1NumdynEN2aKq5mmjqvlDHzpzrmMfdDcBQLZ25akBR7EHbTrIg753EK4TkcwW7su0kDI/EpZu7bnBRu6QScIKBvHRWIVRM4fAYhvZ5zhXUXGKnsNb/J3zrg9ib4CyfHtOdcuImkyILKtldHkqhdFFWGiFgHmrZEhDpmmpdEN9BM5U0Te3KFHcGUfGMtJTLguB3OSRiryK5RNjzKZgKRFiyA3Ot25EkS/g36+Vd946f8AIGsHxBsU73iqr97pazngmy44kLVn3VCcStuunXc63kzbGTjhnT3GTe1acKg82KZsOu7/AKGb/a/jrftTBSkAgBBRmoAAuI2iJY1bg98sbdiPZEeUqFQpClOeBpfOCUMOdNplTlA6l3tigEIBcQ68IXb2xcNgjDHE54B/JQN5t/MRj1VGP/rReYH9Ps85wrqLjFT2Gt/k751wexN8BZPj2nOUqqBpWiYWWa0o8jGDqQlKyVhVXDiRhI+b5kxSpmUwJJJyAEvFUcQlv+C2UKdr6CUcVEnlMqmNWTRqiolG7BBoWPFKNars3kUk4bMxWMUh9HTES9gN63Sw48Z6u9fW6WHHjPV3r63Sw48Z6u9fW6WHHjPV3r63Sw48Z6u9fW6WHHjPV3r60hTYwboYVHJ3DziTLkjqjCSUc1LOMF3Wd26z4io0aJluxYdzvX326WHHjPV3r63Sw48Z6u9fW6WHHjPV3r63Sw48Z6u9fW6WHHjPV3r63Sw48Z6u9fWyaSeTenC7fPqmlGB2b6rKgbMpFkNIVCus2cuny84kgQgogqH3McTHTANV9qXpSrKLiYctWJTxmEhFVcpOZpSAYpP1yuGqtNxNxViKgBRBQdfY5RdlGrLsqVbKmbyMy3OZFzUC6ZhI4jINcggohGInDA5ek3RzXpIDeBlSoMmLdFo0bJlSbtm6ZUkUUy7xE0yABShyzvvHT/kDWD4g2KBf0rNvYN46WqVq4cMTlIoq2wQSuZOJimvJnCAN3bCwvOT2e0kyBWxls8liFAih1Sp+03XFUUEf02qqZqaVdTMoNVaKL14YpltHbwsWKKV5SlDCnnBu+Prp13Ot5M2xk44Z09xk3tWnCoPNimbPHH8xQbhb9VKmP/8Ai1Mo/wA3T8OTX/Rjm4cpUn9GEpYo/AOk1Oe7+qcPn2awZ3XEVcQ00nq/6/GFjlB/StBmH4/Z5zhXUXGKnsNb/J3zrg9ib4CyfHtOcplm4T0v5g03bKp+eWt/2RfLyn5pYDzxqTl8jnDSZ8xKptkT/J5S/N2P2VqYYKKoxrXN8lUkgcyRwIsQFUqdYrEEDkevkTAdyoXW3amAAuOsQxEWzZJNBu3STQQQRIVNJFFIoESSSTIAFImmQtwAGoA5d33jp/yBrB8QbGTnu6pfIQuxVPDJXiSI66ddzreTNsZOOGdPcZN7VpwqDzYpm0yAb45OJEA+nrWhBDeGIjRD4tDR5SsVPweR9r8WbjlHN3/3uy4Jrwu6SZmHtXx8w+AP03SXs85wrqLjFT2Gt/k751wexN8BZPj2nOUyzcJ6X8wabtlU/PLW/wCyL5eU/NLAeeNScvkc4aTPmJVNsif5PKX5ux+wihHFTVm5dwEbCoK3inpihDqHeOQLebQYxqmdwt2yJ4Q3Ri2RYIGUVEonWcu1xxOX75wcVnsg7P79y8cHMc3YvG4LgAA9gd946f8AIGsHxBsZOe7ql8hC7FU8MleJIjrp13Ot5M2xk44Z09xk3tWnCoPNimbLIG51aiFEjfEpMCQf+A2ppTUP8RRZDXb2cSZopKB+hQg8pWinZNNx5B+JOmIK7+3ssNXPUpL3j+JLwmEB/rjd7POcK6i4xU9hrf5O+dcHsTfAWT49pzlMs3Cel/MGm7ZVPzy1v+yL5eU/NLAeeNScvkc4aTPmJVNsif5PKX5ux+xJVIfdNGhnFPU9rvJo7ZcAm5IlxzFxSMo3zID2UWhBDUcfYXfeOn/IGsHxBsZOe7ql8hC7FU8MleJIjrp13Ot5M2xk44Z09xk3tWnCoPNimbfI3/ndmCY/yK8q2AO0VtMP25C/7JU+UrREf+04l0H4i9PRiF/6VGZvm2Uy9hvSSw39oXkwh+3QfZ5zhXUXGKnsNb/J3zrg9ib4CyfHtOcplm4T0v5g03bKp+eWt/2RfLyn5pYDzxqTl8jnDSZ8xKptkT/J5S/N2Ps50AwFk3xkImKERAMMlKrkYtVte+VodbPG/oJjZlGNC4WzBqg0QAdZs23TKmUTj745gLeYeyPsLvvHT/kDWD4g2MnPd1S+QhdiqeGSvEkR1067nW8mbYyccM6e4yb2rThUHmxTNvkb/wA7s2P/ADj6dU/WT0mf/wDlykgmXnJKmI50fe9ujJJ+3xh2bzoyBQH8QNmpFrvcUXTsXi/8TFLyaxfjzcgl7POcK6i4xU9hrf5O+dcHsTfAWT49pzlMs3Cel/MGm7ZVPzy1v+yL5eU/NLAeeNScvkc4aTPmJVNsif5PKX5ux9qej7704lpJVGuTDeGkCUIWMv8AjK/dGD4UvYnfeOn/ACBrB8QbGTnu6pfIQuxVPDJXiSI66ddzreTNsZOOGdPcZN7VpwqDzYpmwJ4gxjRYnAl+6EpZwAMYA7QCYPns2hJF81YTENnGcoxeuEWzgrgqqhxdkTVMmKrF+Bs8gqW8h0zb94CACU9RwJDBvlNMR5RD4wFxfYCp1HAnMO8UkvHmMPxADi+2cbLouEx3joqEVJ/WIJgs5zZinLHUq3ScYRvzK0nKLLIpnu1FOdGOxXb+G4d4dmflREDBK1LJnRMGu9tF5mn0BAfwTliMQfjezznCuouMVPYa3+TvnXB7E3wFk+Pac5TLNwnpfzBpu2VT88tb/si+XlPzSwHnjUnL5HOGkz5iVTbIn+Tyl+bsfarXhtZW20cGkOrUDRieYVAP/MntfxexO+8dP+QNYPiDYyc93VL5CF2Kp4ZK8SRHXTrudbyZtjJxwzp7jJvaq0nkZPH0yfTfNVmUFKSDZdsan4FtnE3DNssiNy7U5RC+8BLZGpqejZAqkRTR2Kjeaj3sK3mEXkoVd1EpOH7dMUngFbJrIqgUxCnJhPcVQRAu3NHzh12+oE5CkV5XMiO+CLpmhJMjheG+mqIWAEabm0gDeBOipgl13awxgXWEFqbmlgHfBWipdQBv7eKMGz7RaKlEX4s3OiLMqLmY50DnMHzGF0zj2yxRzl3vrM2qFP1GzWM3bqyGClJ4yq78W6RXK7pwLI6rpwJi3Cc5jDcG/dboXVHirP8AoFnqrKEqhy8SaOFGjfkXnS59yRI5kEcRmJSlzioAF4jdaKitrKnMdixbN1lApWf5s4ImGkr+4N9dxiOPwjboXVHirP8AoFuhdUeKs/6BboXVHirP+gW6F1R4qz/oFuhdUeKs/wCgW6F1R4qz/oFuhdUeKs/6BboXVHirP+gW6F1R4qz/AKBboXVHirP+gW6F1R4qz/oFuhdUeKs/6BboXVHirP8AoFjN4KnZly+OAFSWl2DiDiWxjas89cPyoujopb4lbpLKm3gDsggyO4F44xOHT56YhUzPJF84VeP3WbLeCRVna5xKTXgLcXsew1v8nfOuD2JvgLJ8e05ymWbhPS/mDTdqidUtlRk6dYVHUMjUziL5FqYlioyMrmtLzbySaquRS5iXCHYAP026tsn4h0T6Bbq2yfiHRPoFurbJ+IdE+gW6tsn4h0T6Bbq2yfiHRPoFurbJ+IdE+gWVqYMskrt2vEN4JV5yFUfhNFtXjmQQbaPomjgJHbxQ2PDjG+6+4At1bZPxDon0C3Vtk/EOifQLdW2T8Q6J9At1bZPxDon0C3Vtk/EOifQLdW2T8Q6J9AtTk5VGUqRqhGmXruRYRilM05DpC9dxL+IzqjqLbJORKm3kDjh3hG62RP8AJ5S/N2PtVC5v5erZXX/Raoso4vzAzu9id946f8gawfEGxk57uqXyELsVTwyV4kiOunXc63kzbEbOxDjRZSIet5CPc5pFfMO2qhVkFcy5TWbq4FCgOE5TFHshbp2L4tUl6ht07F8WqS9Q26di+LVJeobdOxfFqkvUNunYvi1SXqG3TsXxapL1Dbp2L4tUl6htTEM+rUwspeoYWMeAjT1Joqi1fyLZq4zSpYG9JTNKjcbsDbpwqn56e+z1unCqfnp77PW6cKp+envs9bpwqn56e+z1unCqfnp77PW6cKp+envs9bpwqn56e+z1unCqfnp77PW6cKp+envs9bpwqn56e+z1unCqfnp77PW6cKp+envs9bpwqn56e+z1unCqfnp77PW6cKp+envs9bpwqn56e+z1unCqfnp77PWkKppusZwJVtIRTZIX7am3rcE3jsqK2JueAAhhwDq7VunYvi1SXqG3TsXxapL1Dbp2L4tUl6ht07F8WqS9Q26di+LVJeobdOxfFqkvUNunYvi1SXqGz6mqlqgJGFktH0xntHTrPPaI7QfN/uhjEtnSeB02IbcnC+64dWwvNUfKbUyTlgrGLONBjn+Nksu2cqI5mTaPEC4lmiY4gLi3O/v26di+LVJeobdOxfFqkvUNunYvi1SXqG0vLIVm9bPp5w2dyqrVlEtyO3DNg2jG6ot0Y8jdIybFmmTcFLfhvHXrtEyC+VrKkVZ9GsXixUpGlCpgq5apLKAmU1IHMBAMfVeI6rdVvKt4SpP7G26reVbwlSf2Nt1W8q3hKk/sbbqt5VvCVJ/Y20tII5WcqRlmEa+eJFVkaUFMyjVqqsQFALSBDCQTE13CGqzdY2VrKoBlUElTAElSd2I6ZTDdfRwjdeNuq3lW8JUn9jbdVvKt4SpP7G26reVbwlSf2Nt1W8q3hKk/sbappxnlYynqO4an5mVakcSFKnbncR0c5dolXInSKRzomURDEAGKIh2Qt0/y36iM9Bt0/wAt+ojPQbdP8t+ojPQbRE+vWDtzKwISJYhy7YxDkGYSzcrWQwILx52x9IQIBd2Q112q4bQNRTjnTZiYfVG8kXeZQb6Q45IpRDOZhqki3S5miULiFKGr2Kp8oMqebLPR1LPV0StJBFFiY8JGul2YqN1Gaxx3RAx3HC8LdOxfFqkvUVunYvi1SXqG0cjWk4EwnEncqR5QjIePzB3hUSuBvi2DIVc4DcnP4rrtWxVPDJXiSI66ddzr+TN7FRKRhOUqlW02mYU1DoqAB5hmURIqmYqiRwAdRiiAgO9b3bUXjbU3ra3u2ovG2pvW1vdtReNtTetre7ai8bam9bW921F421N62t7tqLxtqb1tb3bUXjbU3ra3u2ovG2pvW1vdtReNtTetre7ai8bam9bW921F421N62t7tqLxtqb1tb3bUXjbU3ra3u2ovG2pvW1vdtReNtTetre7ai8bam9bW921F421N62tLOEHMwocJeCLheT81II7p+QBvbvn7hARu3tzeHs9PnF5UACeDiTCBKqqNMmtg350hJQpCl+AAut7tqLxtqb1tb3bUXjbU3ra3u2ovG2pvW1vdtReNtTetrVAoDyoBEkHLGAD1VUahRwsHA7oh5QxDl+AQuszHTah1tG46qsqUA9pJvAErcFvdtReNtTetre7ai8bam9bW921F421N62t7tqLxtqb1tauFiPJ4TJUfUyhQVqioV0hEsK9G5RFaTOkqTtlMAgPZ5WjfylR+dEz7FW/BCpeJnvK1TwyV4kiOuhAQvAdQgO8IdobdTuhvFKA9X26ndC+KUB6vt1O6F8UoD1fbqd0L4pQHq+3U7oXxSgPV9up3QvilAer7dTuhfFKA9X26ndC+KUB6vt1O6F8UoD1fYqieT6iE1CGA5FE6UgiKEOUbynIcrADEOUd4Q1hbpZgvBbP6m3SzBeC2X1NulmC8FsvqbdLMF4LZfU26WYLwWy+pt0swXgtl9TbpZgvBbL6m3SzBeC2X1NulmC8FsvqbdLMF4LZfU26WYLwWy+pt0swXgtl9TbpZgvBbL6m3SzBeC2X1NulmC8FsvqbdLMF4LZfU26WYLwWy+psKLqkaadImuEyLqEjXCJhKN5RMks2OmIlHe1ardTuhfFKA9X26ndC+KUB6vt1O6F8UoD1fbqd0L4pQHq+3U7oXxSgPV9up3QvilAer7dTuhfFKA9X2jRQoCiUhUqSmkDinSsEQTIrzbJNZIRKwC9NVMwlMG8IDdZ5FsMjtMSqrBFmq7Vb01RLZFPTgWMgmXbAWiihsCAiNxbgt1CKe8CZOvS7dQinvAmTr0uzl65yF0+RszbrOnBwgcnhxIg3TMqqYCFdYjiUhR1Bv2ax7DJHS0s5dRoytzal6ObERaZ1NEoqHkQaXqHOpzpcW9bqEU94Eydel2AAySogABcAASjAAADUAAASlwAAW6kyX9WjPWtoB0xoRo/VqNI6zNknGwSC6REW2lL6So7cINSikXVuTnvHe1a7dSZL+rRvrW3UmS/q0b61sIDklREBC4QElGCAgO+AgMpcIDZB+FBsxcLzSlPkigjYEHRZJF24ZqJmWFwEeCJTNTDjBW7D8Oq3UmS/q0b61t1Jkv6tG+tbdSZL+rRvrW0w9dUE0bOIV40YOY00dAqOVXD8jA7PMLIuVGIkWCST1mVLh1371jFPkkQOQwCUxDpUWchymC4xTkNKCUxTBvgOobdQinvAmTr0u3UIp7wJk69LtOmkMklLxisBGpyzputS1HOTrMlU5A5DNjsQcpCoO1ioYTmJru7A2KcuQmnsJylOH8SZOt4wXh/rdkY2HyduoqOb48wwjVqSYskM6oZZTMtWsukgnnFTiYbg1mERt0mzHhKmfXdgiHsLIRLpRgvJIC6Xi3CKyDZw1bLgBo+QdmIoVR4TUYAvD4rN37KkZlZm7SKu2VF9TiQqoKBiTUFM80B08ZNdw6wt0mzHhKmfXduk2Y8JUz67tHR0hT0nFjKqOEGjhdzDOURXbM13x01AYyblcmJu2PcOC68LuzZ1oFLyz1u2fPo/SivIFAiy0c6VZOTJpuZdJcE9IQMBcRSiIa7rdJsx4Spn13bpNmPCVM+u7INZmk5JBhKOm8QqdyvT71qIyagM003TZCVcKKt1Tq4T7g25HWF1pBjH5GaZkwjF0WzlyhTlDN0dIWZNX4JplfHbLmArd4S8cABfq7FuoRT3gTJ16XbqEU94Eydel2WfyGQ6n0GTUoKOVwp/J8sKSWIAMpmknJlFMF99xQERtWMfBxUbDMCvohUGUUxaxzQFVYVrnFQbNEkUc4pdrG68fv8ARXCmlePmNqu7mpr93kNmo+8Mvxe4tHcBU+Mm/KZLe98txVykb+diS47meUr3hPSH7vSPKZSOAUf5GsrNu50fJl2YzgnOccU7am+8zDyBNmh+/Er5sTVpHhPVvnJJ7MNwrpfjhrasu/zLzXp/ZqHvef8AtEtWfdUJxK2+/wBFcKaV4+Y2q7uamv3eQ2aj7wy/F7i0dwFT4yb8pkt73y3FXKRv52JLjuZ5SveE9Ifu9I8plI4BR/kays27nR8mXZjOCc5xxTtqb7zMPIE2aH78SvmxNWkeE9W+cknsw3Cul+OGtqy7/MvNen9moe95/wC0S1Z91QnErb7/AEVwppXj5jaru5qa/d5DZqPvDL8XuLR3AVPjJvymS3vfLcVcpG/nYkuO5nlK94T0h+70jymUjgFH+RrKzbudHyZdmM4JznHFO2pvvMw8gTZofvxK+bE1aR4T1b5ySezDcK6X44a2rLv8y816f2ah73n/ALRLVn3VCcStvv8ARXCmlePmNnpiPKzQlBaR+2SdMIyyzbNhpOgGc6IycoFXFPH2QHDv26JZWvoU/wCqbdEsrX0Kf9U2dhISWVXQNGX03Ps6gKhombNpOeEIoBBLM34vgtGCDqqEJEIc4NwpZOUWUPEZ9HCLsGbV0UEwXuwCa4199uiWVr6FP+qbdEsrX0Kf9U26JZWvoU/6ptSANXdRJolQHkcVgySqsuqhoH3TnyItlnFwt9audIFx/ht0SytfQp/1Tbolla+hT/qm3RLK19Cn/VNmgaXUYNuSFUzdwmSV5JRqPbJ3nymSBsL3StKFUDAKeDB8FuiWVr6FP+qbdEsrX0Kf9U26JZWvoU/6ptUgOHdSmQNItBml5EksSoU5EE4nawEEztU3mPCDXM5tMQG/s67dEsrX0Kf9U26JZWvoU/6pt0SytfQp/wBU2qzSXdTLYodIs+apE5VF8lC5iWzItSuWrdTMYTOxAUgE2O/s3WJgksrWDCXB9xVBzt2534m/et0SytfQp/1Tbolla+hT/qmxhK7q5xMbUuAQJVCUqiUsaLxlphmYPWbZAw6UCGO68292LN9q5LKjtbmy6DobSoDs9F/kNFMMWYTNgTuwax3NuiWVr6FP+qbdEsrX0Kf9U2iBXe1ys+BR6MQnUiEyiwF1te5BwJBcsW7cXJY4VrsRudvu12ktBkMoxE9tZMVyQzadVjCSAvlxkytDpxqqQkCQFS/AYS477rdEsrX0Kf8AVNuiWVr6FP8Aqm0Vp8hlEOXbVgLQk43nEow8kDgoxxXJ1I5FL3Xhw4zAXHdfaWzL6u0nYrtRlE6cQmVo4rza1kCV5mzBw3ByMcCGICm3rr9duiWVr6FP+qbdEsrX0Kf9U2VCYksp21g4dN2wa1AmxzGcLiB2cIsmFsPv9Ybm1Z91QnErb7/RXCmlePmNqu7mpr93kNmo+8Mvxe4tHcBU+Mm/KZLe98txVykb+diS47mbIJ1NUUVAmclxobaO02ZFS3mDcKLCVMRvIOq+/VZKOh65pSQfuDgm3ZNp2OO7cqG1FTbN8/nXBx7RAEbXjqANYiO8AWrONNWcKdy8qWmToHQVVdMcLRGmCuBUlWqK0WlmTtVANiWDCJBvusEqg8bOIwzbTSP2yxHDRVpm87pKS6InTVRFMLwMURAQsZNTKFSiahDCQ6Skw0IqQ5RuMVRIxwUIYo74CGqx3dOzsRPNUzARRxDyTOSSSUMGIE1TtFlQSUu96a4bZSjGMUhS0CwMYxzAUpSgjWQiYxjXFKUA7NkIzk8gc+UEW5l9IU2rKrgKGEZvNbTBr7Ofus4lnFUQpItrIGinMlpyJ2CEgRBJydqq7TEyBFCIrFEd1qvsunTNRxM6ZqTOONq3abwiRbyhu1ERMmA3nDVffrtHk5MYHPJwExHnb6cTSSPVpSCUSbC29uzyiaJzAW6+4ojvWpvvMw/dybND9+JXzYmrSPCerfOST2YbhXS/HDW1Zd/mXmvT+zUPe8/9olqz7qhOJW33+iuFNK8fMbVd3NTX7vIbNR94Zfi9xaO4Cp8ZN+UyW975birlI387Elx3M2nhEoCJJOnzEEQvEptt2xcRe0OEwh8Q2pSSfNIlpUaVOUGamHZEW7eUVkFW8SL9BsqkUjhZJSNO4UVJfg3IHHdFLbIHklk5B9Hy2UZrB8mb/EoWUXgnsihFxqThYwiqKj5oJ1ngG3ah0wA2oxyjWVPRcazaQbKdpFm2iiIJmYlbGa0iVVI7dQDkWBwAjnceIVRERPeIjascjTRRQaOmiKT9Mx5hEUoR+vFoT67VgAm5hHi3UcJiTXeKCY7+PFlmO8BkkinTyCmNyCBEyHULSxllMStxSmPiMJh7N432nH2TEExohGLWJWDiEBMlOKuTwxi4UjIADJUytQlSOXBrOqRY5by4htG5LGsis1gXNNoztXoNzGSPImpxjU9RN41dQggYzbQUwEC87nVgOICKZLm8QnGRyUQLAjXalNk3JGA1OlcZqDAqeig2EprsGHDdbLPERmZCClkK3qGHZkxDtezkqRQSXjDFMQCgk1fNFQS1m5gJbxvvtBtJOpKdjHu2M8oq1fTMYzdBjlXObOqgu5TWDGmAXYg1lu7Fmr6Kex0m1PRqlzyOctnqArEhF0T83bHUJnSE3I67wC1N95mHkCbND9+JXzYmrSPCerfOST2YbhXS/HDW1Zd/mXmvT+zUPe8/9olqz7qhOJW33+iuFNK8fMbVd3NTX7vIbNR94Zfi9xaO4Cp8ZN+UyW975birlI387Elx3M2qDvjT3HLS1D1IeioJeZWpWm3p3blrpYaYtEM11HZWrkyrMjgyxseMqYGxa9+2S3LEk1cPImkJqMbVLo5MZ2jFvNISTJcSheJUnAqOERONxSqmTLvnC1YyEeuk8YyE9Rbtk7bnBVu6artKPVScIKlvIoiomN4GDVdas8p0WIrUjSKHI/Hy6dxmkpOFhG8I5RZLgIpO0EkzuVRUTEwYBRHeVLbLfA1PGoSLJemEc0Y5UxcsHCjel24Po5YxTi1fIFVHAoG98V4WkMgFamQRVbrLyeT+c0dNojUUY8VVV0cxy+2u1MJjJYhOYDkVb4+ZJFGIygOG7hSn5WmDwku+KmJ0I6RmoOpabQKoJL8NzIhXBQ31ASUw34RsyXbrIuEFWjdRFw3VTXQWSOkUxFUVkjGSVSOUbymKIgIWynOIfOuY1hTVWxycthJtdKOG0E8B6eJXA4i9aM3AigZYABMyxDgQTYRG0DITVH0tLv1H86RR9J0/Ev3ihUpd0RMqjl00VWOCZAuC8dQBdZrHwkXGw7ElGKnKyimTWPalUUh1zKH0dokikCh+yN142pvvMw8gTZofvxK+bE1aR4T1b5ySezDcK6X44a2rLv8AMvNen9moe95/7RLVn3VCcStvv9FcKaV4+Y2euU66bU68ftI/TI9ZpGvTYWukptXAaQGeRKqU5guHUOG8LdVhh4Gh7dVhh4Gh7O2brKww0V22XbOf4qhkuYLpGSW5oOpPmZh19i0Y8JWKFNvNpzxyZF0Y97prAi6CoLFTchjLm1QAMZdyOK3VYYeBoe3VYYeBoe3VYYeBoe1HrN6yQiixqIpRMwoSOdJyyblgJFjFRUDMnzqXNAFPnQ+C3VYYeBoe3VYYeBoe3VYYeBoezRzyZIETTqFWaSqUSRwoLS60m7UVR0UQ0UQzy50s2G7AS9sLItauyhtZlm3MVRJkcpmTLOkx4FztI2RZIKrkBUwAcwCYAGyMNBZUG7SMbAUjVosglJEapEIVNNBseUdvVkGyZCBhTKYCF7AWXaPMqES7aOklG7lq5gYRdu4QWKJFUF0VCmTVRVIYQMUwCAhafzVSvE4Rw9MvIkjKhkYulWbm5mcEl6dbSZYm4RwjgOXWCtxbgwXJwkRlHhoiJQQO3bsIuCh49Bskpixg30XNHROYxxNjKIHxjivxa7KVRFV0iyqJdRRVzMEdyJ3jwyypV1wemWmlE3ia6pAE5FCmIa7WFo81X1vDzKkSdQ8auZggxcszLYBVzTqLeMnGE5kijhEwlxFAd+1TxD6pWtWRbiFaRcgaQ0Z2EVHMglHLNwuo9O8XUWQVeKqpruDmEopFwiGC2Za1vdHnOCx4gZOUPBrH57ErFbdaGuUw75TgYg9q6wU1IZR2G0AIA02pj2TaFZiyKiLcGIkhnLARYZkcOZvzd3Yss2pHKG1hmjgxjqsiFM9ZZ02DGsRpJSL1BJc4JgAnIUDCAWWqrb5apKqTbCvpbedmWcml7W1F8ZdrNaWcpG9zcAvBECHwiXWFm8exyrMSM2SRWrUgxkMuYiCHM0yGXAABYxSluE/vt+3VYYeBoe3VYYeBoe0OdfKA1nnMed65YRiLOMZnWWUj3LRU+JAM+qVBo5ObCX4x1BaSatcpbKOJtrJuVGB46IdHZOnr1Z48bGXMGcMKTpcwXG3Rd4d63VYYeBoe3VYYeBoe0U2d5SmckUkswdox6cfEtDvXbNcrlo3KsQBUDGumGou6NvBv2l8zlAaQSz1dq7exizGLeHQcBGsmhDY1gz6YLNGqZ8Ju3eGobdVhh4Gh7dVhh4Gh7KxshlVYqMnuBBymWNhmxlEjqEAUyuDAIImU3sXYvtWfdUJxK2+/0VwppXj5jaru5qa/dpDZqPvDL8XuLR3AVLjJvymS3vfLcV8pG/nYkuO5nlK94T0h+70hymUjgFH+SrKzbudHyZdmM4JzvHFO2pvvMw/dybND9+JXzYmrSHCerfOSU2YbhXS/HLW1Zd/mfmvT2zUPe5T+0S1Z91QnErb7/RXCmlePmNqu7mpr93kNmo+8Mvxe4tHcBU+Mm/KZLe98txVykb+diS47meUr3hPSH7vSPKZSOAUf5GsrNu50fJl2YzgnOccU7am+8zDyBNmh+/Er5sTVpHhPVvnJJ7MNwrpfjhrasu/zLzXp/ZqHvef+0S1Z91QnErb7/RXCmlePmNqu7mpr93kNmo+8Mvxe4tHcBU+Mm/KZLe98txVykb+diS47meUr3hPSH7vSPKZSOAUf5GsrNu50fJl2YzgnOccU7am+8zDyBNmh+/Er5sTVpHhPVvnJJ7MNwrpfjhrasu/zLzXp/ZqHvef+0S1Z91QnErb7/RXCmlePmNpKUhnULmpRvHJrIybV8dRJSPK4TAU1GrpIpk1Cr9kLwG3uikvocx6dYukSFFoYr8OeQlUsV2/hxyAX3X2exyk3Q5E5Bo5ZHOmWQMchHaJ0DGIAyVwnKB9Xw2j5ONk4RudKFGGUTm017lSJuEXBV0DN3aG6vLcYBv7FujFCfNI+srdGKE+aR9ZW6MUJ80j6ytSIspaHK6p5BVAV5JJYI97pjHMKGRzTwiiYgOsm6PubdGKE+aR9ZW6MUJ80j6yt0YoT5pH1lZqYJaGCQQqZapxdnSW2mOs5kXjkWwXPAXBIoO8IGzgjiDet0YoT5pH1lboxQnzSPrK3RihPmkfWVqjO4loUX0xJR8iDlokuMS1GITiCpJLYngrHBTavmg4y3Y9W9boxQnzSPrK3RihPmkfWVujFCfNI+srVUpISkKovOQiMGQ8QkuZszIgjMXOHGfeKmUUEZfnQEgYSfDZNMJmhLiEKQNUj70AD/tMbdGKE+aR9ZW6MUJ80j6ysWYkpKAc6JEO41JvCkc4vu54wdGWcHXeL3FJteAFAC68Q69VmkShN0SdGOQTZpHXI/IuYjcM2UyxSyYlKqIF3QBqvt0YoT5pH1lboxQnzSPrK0K6kZWmVUodd48K3iCOxdLncRruNwiZd8qQiJAeYhHCI3lALP2rOYpAG6krKyCZZAj0rxPbSQcSIpOATkSpiZEznDeAFvAL7rdGKE+aR9ZW6MUJ80j6ytGt3sxSIt28tHSRyRxHpniu1rkjwqKGdkDJgKpkrhEQG4t+q0ytGy9LERk3jd4dCVB3pbdZKMYRxkhFB+kQSCDEDhuQHdWwISdErHuvwJJSahrg7OEkiI3a7e6KS+hzHp1ncS6e0wi2fJ5hdVBjKmWTSMYuMyQHfgQVAKGq/Vfas+6oTiVt9/q7i2tcVM3jY2s5lJgxRlXSTVonHTC2gkQRIcCJla5kmDtCW3VGrDw4++tt1Rqw8OPvrbZO5OrTBUkg4pGr1Fnc0mnIrKKI1qm0SUMZyRS9QjZIpMW/hC1QKJwEImonCSxyHJFMSnIcrBcSmKYELymKIWiySLFnIEToghyFetkXRSHNItgMcgLkOBTGDfHs26XYLwRH+j26XYLwRH+j26XYLwRH+j2yWNXjRs7baBJ/c7pBJdAM3E3J3JKlMmGbDe1ardLsF4Ij/AEe3S7BeCI/0e3S7BeCI/wBHtGx4tGosP9KcgjoQt0haZks5MCVLRsOZzZRDUF11ul2C8ER/o9ul2C8ER/o9ul2C8ER/o9q+Yt2bVBlyTUqAs0W6KbUQWb0lngFuQgIiCt+61brs26XYLwRH+j26XYLwRH+j26XYLwRH+j2ylIMGTRiiahWBzJM2yLVMygoVgUVDEQIQpjiUoBfv3BZuI07BXigiPQiP/my//L26XYLwRH+j26XYLwRH+j2YBHR7FgCtKTQq6E0btc7hl6fwZzMJkx4MQ3X719qfWXgYVZZWJZHVVVi2J1FDmRKJjqHMgJjnMOsRHWI26XYLwRH+j26XYLwRH+j2opWPio1iqeVliHVZsWrZQxORmYNgMdFIhhIJgAbt68LSbh5CxLpwep6rxruY5musfDUUkUuNVRExz4ShcF47wW6XYLwRH+j26XYLwRH+j2hHDKGimjgtVUyBF20c0QWIBpdsU2FVJEpy4ijcNw6wtJuHkLEunB6nqvGu5jma6x8NRSRS41VETHPhKFwXjvBZk/hWDGJeoxVZKpuo9k1aLlOjS0gskOcRSKI4FSAYAHVeFuqNWHhx99bbqjVh4cffW2OsTKDVhVXCiRlzhMvL1jJlKkQVOabvCmUA19j7/ZSOG9Tcbu9nJpwOrTz+tUfeGX4vcWjuAqfGTflMlve+W4q5SN/OxJcdzPKV7wnpD93pHlMpHAKP8jWVm3c6Pky7MZwTnOOKdtTfeZh5AmzQ/fiV82Jq0jwnq3zkk9mG4V0vxw1tI8J6t85JOzbvNW/mjJ7JPxi/t+/2UjhvU3G7vZyZygRUpItORusGBzRbYroyLhWt1XCZVSCqmYpVE0DXDvarTDBvTFVi4excg0QA0UQhRWctFUU8RhdXFLjPv9i0a8cR0q4bcie1xlYyNdyYJvE3zdUyKoMk1jJiJNYCOobrdCKq8Vpv0O3QiqvFab9Dt0IqrxWnPQ7ZOXTqLljBHs3yb9BrHuXjtmd1FiVErho2Iounu9yOrcm1DboRVXitN+h26EVV4rTfoduhFVeK036HZg/2rlsJMoTyaO1COcjJEjVpmUOm5NHATSwAU1ymuw4gKN91uhFVeK036HboRVXitN+h26EVV4rTfodq0fN4uXAryep921bLRrlvIOW8ahTQO1EGCxCOVAILNS7c7vAN19uhFVeK036HboRVXitN+h26EVV4rTfodq/cNIyWSK9pFnGsyPo11HrO3qSFTidFsi7IkordpyQX3XXnusgQ0PVQGKikUQ5FpvUIEAB/1O3QiqvFab9Dt0IqrxWm/Q7NXqMdMNmjWm5RqqvJRT2NT0h1KQyqKKYvEks6cybU47m+4AtDRzyFqgjpjHtmrghaal1SlWRTBNQCqpNTpqFxBqEoiA26EVV4rTfoduhFVeK036HalBaxc6kmwfybp2u/hZCPboongZNoQTLu0EiCY7hwQoFC8RvtJMncRUYq8kFRuAM2p+Udt1EHk2+dtlUXDZuoiqmq3WKOoezboRVXitN+h26EVV4rTfododmziKiBQtRwLo53UBKM26TdnJIuHCyzhy3SRTImimI6xtIsnFPVIsfb+oXRFmkcRw2VQfTT162VRVK6DEU7dco7wCA6rKqpQk4yQjYCsV3TiSZEaIEIvTL9qkBTaQcx1DrKBcABva9kn4xf2/f6RmpajG7uTlXjiQkHW20+jpDx0oZZwuKTeVSQIKqphEcJQC+3SI38N1N66t0iN/DdTeurNYaDZyEZFMQUK0YtahqIiCALLKOVcBdtR9sXWMYfhG3PzHjJUXrW3PzHjJUXrW3PzHjJUXrW3PzHjJUXrW3PzHjJUXrW3PzHjJUXrW3PzHjJUXrW3PzHjJUXrW3PzHjJUXrW3PzHjJUXrW3PzHjJUXrW3PzHjJUXrW3PzHjJUXrW3PzHjJUXrW3PzHjJUXrW3PzHjJUXrW3PzHjJUXrW3PzHjJUXrW3PzHjJUXrW3PzHjJUXrW3PzHjJUXrW3PzHjJUXrW3PzHjJUXrW3PzHjJUXrW3PzHjJUXrW3PzHjJUXrW3PzHjJUXrW3PzHjJUXrW3PzHjJUXrW3PzHjJUXrW3PzHjJUXrWy7ZwEqs3coqt10VKiqIyaqCxDJKpHKMrrIomYQG3SI38N1N66t0iN/DdTeurAIUI3vAQEP46qUd74Bmbh/8A2wf/xAAtEAEBAAIBAwIGAgICAwEAAAABEQAhMRBBUSBhMEBQcYHwYJGhsYDBoNHx4f/aAAgBAQABPyH/AMa4N1eXpeKigqfDChQoUKFChQoVCQ+XNjFEKCn/AAhqhaoUljCXxcUboGpz8MOHDhw4cOHDh0ZFanTSCBw21w/8XqoWqFqhWhHTyeVpQxu+R7X+CD4KNGjRo0aNGGMBCJw4FBdfJZNmzZs2bNmzZs2bNmzZsEScEedWbCUePho0aNGjRo0aNGgdkUOB2n7hgxNlj+5wEO/g7NmzZs2bNiV7YyW1ItYRJmvqgaLyBQ/celGjRoziFQgKB1wAT1bNmzZsv4qtCJooACenZs2bBJFYyW47bbwTQCeAR66NGjRo0cRgd/E4AB7F+iLzDRYkJchKEG6Y23X7X+PkW3bt27du3bt27du3bt2gefaJDYau8N+/xHU7ghCiQU+OsbjYBjJ+ruw1Dj1bdu3bN3Mlj1BBscjs+nbt27dI94lw85jTxp+1fQwK9vkiF0S2EBMCyUa7D7AuqlLAYtOQ1NEE3oy7cPLpbxES2lATfUiRYVRCNMUCMZhCqIRpigVhcTO4EhsBYjhV/f8AKVU0nOHtj3cyAS58a3bt27du3bt27du2eBdPUBncEGrjI5cAO08bBgQAmN5QpWNK9R+AMGDBgwYMHX3gz0VlFS0vQuwQjMdMgCKxdBhlNhdWhIFmob0fBsgeF4AE8jgWgzGc5Uel0kzfsekYMGDDBOHi4AAOgaDYMbc373fRSLXr1wIEGg1hkwTAoQhZI2m3pA50DTG3i8sNBlTwqwvvibA/XtNuGDBgwmITGql2yVK+gAV/4dbASbB+fJR5GOyp321E1muLEOFgA5ryNfdOCABET33RM9hkMyheCRxe7xhKFcZZmMVb13oxu5rgAfsH44DQqwAltSg40GvllTu+zNifZEE/658BDWgnutk8NnRhwD48zbPcErcILADXVatoAiwFo/glO2TouwBcgl0sArP9zue7TYtI84YCKK40nfuRyaszjhXGxQ19IDgV/wCHAaYmiybrsjJ2noNTMVSzdljX/tdQwpBoE0ENoPufotVU7vs94NRnz4PvP8VDOQMwAGiAwan6lyyKWhmnnFphXckaIojAAOmi36REDgV/4cETEmCTWteHR7eg/bchMn/2S9S9yReHwfePv9Fqqnd9mh1pdA2aeSH4WhnFhXg3juYq+PmOcloWzz8gwiRMSrNztbuVMqIEWykx4wIEZpxRPIXJO0/MJB4K6GN03UK6diWfRw4Ff+HNBTruyfgModXQBpSPMvv6Jj5Cd6q+zHreoI+SGN7j+Ce/0Sqqd32V7pnCzDT3J2BEfPePJdHh2D4cM4vYPX2C2m3IQ66NLURRdYrBuIc+yhavYSsgOaUiPR0y1PvviA+jhwK/8O09JXHf7eBf4Awb/g9E98ePtH99agbMU3aR2s+/0PVVO77LhjBBgMEZDyQy50KFozgVlV8iaGdYkJSfcah2PH0cOBX/AIcJ6ixyjg97nZN2Bw7I49AgH++Jvv1H9zGE442n+voVVU7vsoBsuNBBtVclrHLixQXwsNMQ2aWCgS1PFFXyEkwAI588gj5c+pw4cOHClhi4ajYe2nlGASDAQwS7Ezf0cQHAr/w6U1FRxDm/1lSQCAeRXuofk9BADdfvA/11WsHmO7whfoJcqqnd9mmihgA1yhvmyIAnTn4lIkdPPQhSRFUkOILUYKXfrrVq1atW0t/t1NJp5C/AvXr169evCv1W2ST8jA2+utWrVq1Z1k3d+Ab3D4pPoAFf+HIMOxhHhMdgHYF6UYRANZZpINHZPsgcCd4AxOwnnvPxgJn6bj7ij347tzd69BQeOiMeiYdht72RjSBTTKXcO4o/P1VTu+zBdDuLnJXTBwY+q5tIlQUBrnkE4feBUBixRjZfzUVCVdeTrXbkUxTGbnIahcxUDsYDxE9I6MHbhXR8+v8Aw4AY1qXa4YjByNqqrzsu+8EHQ8aabJ2Dn22Lk2idHjP7h6c8YafZBM057EhUD/2L52qqdbBvJmbfuW5RNVZujkCAtaOHGJGVUOftfDNbF2D509eC/XqaRUv/AA4b+oe88NXcDT0eww3FUf6RJ0hL+XvzH0u24f49VVO00ipf+HBKgxKw8btjfz6NalWe59oKfQBLuZutjwaTy/x2qqdppFS/8O/Xx/TtkQhIpkEj3D0eQRfZo87XRm7IT3173l+bqqi0Iu8ImMyh7wAvftjB2Jt830GDBjWKG+3jczxct8DTVzrF7OUI5CLiCeLxibuQ9tQO1ZNRi79DvsFm3l2RQoIuIkpmLpt8XYiKBN06hee7x261jYfuVx1oCm4JvHKzGywZXThXYGClK82ZFERPsM1gSvIe+yZFAVg1eLpDBqAMcm5UAbfO3ZJahpgT8ymLKXmmWkYShtilxBW7GMwB1250hMI0VgsIHA8dgwLhAUcaRtyCRViHSMUwFh50TItgEKVJuPEhFtD9JwlOLAQyxYVg7/RqaRUv/DmrIgjkRBPs4TsDDsDD+vRUyDL3u/6Px0axfsVwrxz+dqqnQroOJOMMUgU65Yf4EOCOfES8bBzSpI0i+/YpLiqNyKUVawZAOBaUraVJO+3DhZ4nZhOPhBGn1TFYq66oO7PVX0j0RbwBMpJPXSw/PKPKkWoyigs4FjMLEsIHHAUskf13aP8AWDxW6NcoIIF9W5E36LjoBzT+8MOCiWOHA9mwXkxfmXpmEytXwK4Al6QprjvhsgjFQZV04d8KNk0heOofVoclYOo1iMIxV7CJkMfDm3BvnU2CqMjPo9NIqX/hwoyM3ibf2zz73vmt3ju+goCexq37oPx0emISckduhFhx/wCV2T9pzMnLnGxpsytQOYUJitcE1DQzRqgPOHJxSVKUTyBaGAhFK8KpxKQjxi7N+GwsHZuztwMj5w/+VRDtzeHi1C6gAohaoBt6aG8qjW0QhEoJaxlSEbouTZQ3NTLuh+4rKhCqGQ5qqgaHXYe9N4nY4FVbQosk8nCpA1lXdspoNIcq/j51W4RJLTfiKnQpJnWDkFP/AG+z3jb3j1MLDVaooOtJYAToYSvD2M027fTD0DEcVmz+GgvNjRSgPf8AeWlHK7XXkcjRpp7XT/lu5z6EKHyR7B1K8GE1oEePuR2cY7OgqrJRyp1LjPAxC1DjzJAt04mXZ0ZQFSujWG9Y9wGr/WgtOUFv1IV2YIjc0aOckZrxOKs1acSX4y+WztmG4P4SbzQLsnBuwiu8WjzWV1u4+djZQENvPsFHgy65KAmekGJyav2Olka7Lyc3oYBj0ok0RhuH5uHy4wNc/o+tNIqX/hxEpGUQ7Iuys/OVHzbGlTeTsFsfQa9iN3gAum9VguMGQCymXsA7y4kCNrGyYARJFh7OZDzXDF+jMgh0R95qe7tMtqtnkmvAggghxe1Z2vN994HImBr3qXbKSoB0FC9lHV6sGFRnZXNilZIRMt4cTfSJ9mMbBf8AL5l+QEICd5aq+5PnqAJEvcila2KIkFohZpY+c+W7b4DOIjhxQxmOSViGNR7QwhmYlGmeWOIYeaU5wCz7zM3vNzrR7QafiKnQuj7SHh1MxsXdCZihS3bY0E6lAuCacI8SUy5FHKmd9s8xrB6yRghpGw34PHas4+nMgya8qQiZPkFcW9bJOhF1FEsYIFgZEqBQU1qtxagTYNIjB7cJzJwEFefJDHZcnP1mpLrMEG2a0JZGloPQp8RPiasS6HasEGB7odYdEY3mAwK+EOTEV8CMYwcObAwopd4Wi2SpYHF1xYDsq7xlVqlSauAMFQyQ3V9yTGB3r68GvUP7by7fJLDOYK+xCajnaAh9GppFS/8AUwn+2CK0WEdmCx6wJLQMzMbOckt82TptWtrdQSncG7Ppprs5wHuA2R5kVhAZNRomiR3MEWCzLFHCVLZnuc177FIxetcLkkzeNfKDxTk8QLrIpN/7r5qEpQrdV44U/tKK1rGNfcWICnBmoeNzWdP3k6RhkQuahykn00kuK7BMU9ujs2ew5NX1do4tZrQRwTW5GMkicdFTI0cZ0JG9AUJxWEZ+CRQYWCg5GDSeH81zgZdowMNFrGnUiLsoWpl52ZBAaHjVmSwtv5K0pGV57SB+M4tGRTqDIQikC0+SNXYZ8RU6FLisTQNpAP6TQRcfiRXcfOiQgJ+/Pbkas0DsQEwNzfGjvCawOy3HY7uFPHWjkQsoXgDHtJvg9NC6n3ESQ4wxb0yv2TbTP78SxOAFIIbdwgJgnTgPvNe6DOdMwBR4CD+crjqVzG+p9sxTe5x+rEB8y86bC5e+k+jcG2ohnBKJsommO/CbHN9f+jfkPItDZ3xwjqPtjMtq5tB6geAjD7Q8GO8FJWh7H7lMD+oYIprSWCdmcMAAwcDhHYPo1NIqX/kuYxLwve8ABntc/tc/tc/tc6Vu0bSpBEihTv1EckqB2ZD3Eu7iICQU/ARO3biwOi0JBl4wUY8f26v3ALhJjSveJZYPl4WMIcgwNzaIFKT7CFIRJmbpDNhnXFrbLKPLA8kNz2tDN4LhTk4ffAwJvkBPJGMMnGg0jHvOwCuW27m3K6P3Xs8jc0Q8vSBVXwyBGkmV4ajGNAxzbty2LKaBTsmSvMeWUhrtQXZKKuetTO5Ai3YgAZJakYEXut5+IqdC0Njs4PhGLZcTqXELzKOt1paRwbPlw0+JWzB9VgKUofvBE0oRZHqRsE4nmc6biSUKPMMdl/rHfSRWQucpfm9VMwazX9d+HuTyJykKWTm6sri7YelJuDR1mHAgHIWPzjM1UbZ2ArH1BCHIohzuS6M43Wfs1duYBo3Um1m2PB3MzJBkpwLI1b1TRRbbQXYO3a0UzROvCMvXHFgM8ZELUHDlbMbFitprSCm7KAJYA9eCYdzF26BrI4Bvb1McygA/TxTSKl/4gHocEVhEZSzHTjTeXpQQCjgJvDqbaqiOicC4FHW/00KQ7pFOHUiE4uJEchaWCXai8jgEt4Jx6QUjL7EmlECQh/HeZyK7YiQyLPUITFc9I+GoqgFaa2/FmJ4guI5+eCvm8DbXONbdF4ohAyeIHBQKjpUOC4MMtLQQnBKRtuufZm7vf/R8NUSDBTGbhdaEQQDo0efN4gHL4d81PVHdjnOQI4IOCAChknBLE9Hjx4dkzcP/ADTbZ2hXLjtGU0D1i9sA/gVNIqX/AIgH/Z/hX+fXtZc2vEzYVcspa+F8nYUqqkaOKfjvdWzfmR9eHsPHF/kyFaeIJcIWCpd5FLBWyvWC4D3S2p38TcLLvanAiZAVv0Z/be2we+VOqWVDjkugzQER7U9Qbk0oCxgtnAetQAwjNEVCeetFi4gMLmSIV2eyBSSXEXpqBNts0OkIPnV0YHfAbZE18NXWr6cJzavFjtPXdu3bt27dgZSfuSCpYHoGhwNpB7flgAcpYz+NU0ipf+IB1f0vn4D+wr7IH5HECTCIWtCUNDv/ABumkVL/AMQDq/pfP8BO5FNIqX/tIMsFGJXCBPYnpsWLFjmRAu7AScC7Xg+eV/S+fgKoQYM25/RfIZ2xCtFJDtt/jdNIqX/lf0vn+OtuamkVL/0cYbxeNqPcZLIzxHKos8hmp0KBb7gqcHfzlZNXYUo/RhJ4Y0MUc9uIJBZ1V/S+f4I25qaRUv8A26r7VgVFF6jNMYckgnxNeBIBHAotlWdAVYKOPW4hmetNAEABXAY4L/OA4mUTMmK6Yj3TsAz4OGcVZMR7VaSASfDs1hnujgw2mBUMNWxVuSUdwcOAqxfzpTh2PUn29Z1Qr+l8+t9ywdU+l4Awj5HO8XFsEcFWLng6L2T5miBcuoJ1K65BcEg27yWgXFUB74Dx09q6MHfhTZ88v/Gb9X2YP77vjOGWxFN2pUjy6r8AN1qI/FnhMImrSnjuUp4AIBgRrUvCZR8oWZVYnvpcMYubNMuyunEBcS61NP8AQ4mYMjiQi0NpmCOycjbTm0HbsThhVISUAjq/kZzlnCXfTxchDAs4QCvVZDRY2LZIFhOUwFxBgNvKlJXUTSfAIcoqEyBTW0Vw6WdG5WBaCXno0fAOqFQ/jXfg0v8Az53Hq777777RwauifjBXptBa3TJWPOr7ZMmkmgyNfJUb59XDgV7YPiP0lOOBXNEEQtLoDy3SCrXMWeoTh6kuO50gwUv1OVLNSXuL6wYLCszRLaevsJpMEqUSU3ja1BDYHL6PrlgNcntIsSRVrTKTx96UUXyOaX5dR1BUvL0grXlcHq8HGTgpVynrc1d9ILdwZnGEqiOkwIoH+diBwspht16e6BhiTIsHqAf4rYzsc1FGxB+A9DCAdAlfwpvjqhU6HAr2iLw1z68WRh+VMfbzCHYq8c5sdqVyl1WwiKPWF7slQJsAiB2CF+3phQoVNqIEaGkBYmP3qlOvqg8BLGlVdTBAAENGxElE6Quzv5xighAAHgCA9EKFCG9rjJDyQ4Bb9OpdtqiLK6FNAusPtx7so6P9vuH+GHVCp0OBX/h8nCKvjOeVdlMQoXw0fm2+Vlo47Naj2kGxN0JWI2boCkxGxMLCb39wHEThj2S6IqPGBZcqmlaMlCLmpkQ9E7s2C1Frpgf5DYLIBgEHnGqkFnCRUbwCYwVdtKTUaT74AjcVJNXA6u8mPYN7h5/yN7ell5VCQ719XmKGHYcdQoHuI+ruIehBFxwFQRAhS/ws6oVOhwK8lZT/AJZBVVAwXvaHH75wKp7mSTusN+XCm8bHI4sqNoGlNAl4FsRbHNEBdqxwVnN0T+n2g550u8KI1vffIC1XyoMS3N9uUyZ/BgGALx73QEmknU1zuGXio7ORRXUbs6tnahw9AQkLhEEecOaF4LAJOURuim/diWBCjUlQafbfv08VEKehAbamO5GGAbkEacC2YFpiq32nDAXXo/uyeg0NnsYVcw3sAoI4593+GHVCp0OBXlVezWrImxI5ygJponfDvIe7CL04Tjpj8oyCM7cteA/3MMFt72kjwnuUdXpE84d9yvoGPZiCOhwpDecp2PKlQp7AKDuksNPbpERWmyTmPZLtZ7uM+eVfJ3x+QekTehRgoCgma4GDUtdwaTo0Bql5XNdLpz8//qaTC1tItiFYig7rMa0lKTvYaeVc0SOlBKf6MgxPsDPMpMCiPoKSYvQTnvZ/Dp1QqdDgV/6t9tadXU3FztWWGhuNLWcjF9nTuGg6HOjRNRzoiHAAOIFbQLgKHHWvYEvdC+ZbOGDugXiCFi57nQPzT80Zd6Q8HtjyP+xgKf2vQy6iE3kh0t7X2y6pN3/opPA9r1oEirqC+BVmUe1JsoB5KPJ0nU0eIVDbury+nvuCT8x7Kw6P5+dOqFTvAvYw55AkEQI+jXr1p+mjyoQog4Jwv0UOBRVGpBJEiJwRPSCBAgTpQxOqBtIdCVlH8SQVVQMsygCm28EcKzUzn2iYJ3kBQm+gKsV1U7bEp2MeoIEGDSw6xg1KrlcPBM+FUq6I6TpChA5dJCBq3ryODPaLbaVDR6Et26ggRwj2uj2qvcr0BUzgLH1EyUpuPQFEpdxnTjWBwK84hYdye3iMo6AvoBAgUJQ/Jema08h7fCOlwtEdIUImGy7uDFVeoYF4PkjprV47A9m910j0Fu3blWitKKP3g58huh9/TZsv1qATXKfK/uvP6OQObg4zC4j2VfkTvBSKuRt3ukiLOjHjh9+zQNWlEvbDp475GZyahX0M2bOHJ9WUaBClqC3ozGrxVNOK0bA6wTyoijCtwfig/wC68flf3Xnh8MKO9gtBGD5rHjx48ePHjx48ePHjx48ePHjx48ePG9xQQJh1sajoXaHTQkyg2ji1j+VdET5Q918HuIhxzWEYPRnx4wPpNvgLys3dvhtIbQqrWlcnQC4oOdvhVuJzOa810bPsnCnS0cPurTsijNVGhiqvMGmn03p21DhwU7jzEmU5FHHOiFo8KRx6HTeIWqhv+CbkPyvyy0x3W9jhT7C6GBY9RnnEYKEpEKV6+kJGriyhgXIf+fVJxjG96y41+AE+jzit2TfxQ/7rx+V/defyfc/+TcOD5R0Nt/AWLFixYsWIT3i05yqyClNFyJoZE77z4HJdvsfMC40leXYE7yV1jhgQODjtyVEYztBRB7gOMK2R4fTzAV7AKphXETZUy04RCUrsplGc7jjdYKVsIObC8/fx3xgOA5+O8b95nduRnyjcnRkYm7HCy4xNHznhgCMiP8P28UluR10/fKg+bANvN3gGbLnFXHAwI2FA8uyn3UAoCYbOf2GFxBWfDDwLAT36w7NAd7+V/defyfeTr+m+JvTdB8AwYMGDBgx/ZeiHu8ZfnIZFSkSOg7lkRtHesJJAAVymP95Ue1ued3YCEEH3GTulMDkVoM51nrKFA4twj5az9dttMGy904C6ujYqu47nPjCmnsO9A1UPJ5GLeESpFFjt7QLNuy5Y5emmq7FJj2nq7szjfsBM9/3LjkxSRAcj9CVMw4H915/J9tO/EKRz3fZDPC6BFy0g/QaVomFGb+sArhSuVLoMDYe9QkyF2nD2RWdJCA24a8aJ0BwLGJIplOWtY7seJVDXSWkWE1v8toiHGXLYtGWT7iz4ZRU5N/FZc5VqrF2BTad92JxXhlIkEPoUyURdmd2xXu6AeeBIbDeGqlzE84TskhUMkpykKSX9xJYp4rfbBZdzuqCYM9kQe4X9BGZ4mJXFfiI+PoAcCb7kUyXlP80XePBDc6hECJU0u/hTZs2bNmzZstpRStUf7DGnwVZbWgDuGxPYoal9Aq61CwOlAVS1j5hOxlMftdchOB0sPcLkhoojHBoAZJOWKYROG+FnRYcXgOtwlVP3Soh22DUBbQnz7jiEAOA4xk2Xw13WZBVFDFzKsXUC5Th4hO6AgBbdsc6jG2EQaeBVCgYYQdgnVEfCrMzISjbIpfiLZqLaZOYewOEIp4y17VVgBIl6spfoLIOBCJ8VdnRUoiImV24EfiH3pfxpKNHqgwYMGC85nDMNFHfepwM4xAhDGqGozCQjL90FoaPXElMhAootpH1QZr/oFUUevmLyQdwzxcNxD52pR9Dz+r0EyFhUHaJM7v8ACUAZ5Gg+fnqaXPKop7J0WXj+oay75G8CJqQdaaMpkhN9ADx8H1lFeiweA7cG2R754YuXoLcGIUEZeFG5OmORNoKIGg0wqysTbJ3YjLOV3I7jBGXyQDhlPDcvaqHvNeIst7VBW569b/LsROJHEO42N4PIYBhtLZ2MwD5TUwUH6rAFjajil2bTv0xMKxgI5eyz+2eyWOj6CHAhYNYx62VDl8LUJyeeoGidbAslz/cv+s/cv+sRGBsLaKh4chOLuOYnL+s3yUIQmLj0qdLJup2f+27CWglhnCqJlmsSn56mwwDQvMxMpScJUojaFDi7xNigFzYk79LLWMIVndZZrJa+ovPzsGBkOiawraUdLFxY3mnCcu9hLjMS61SHT4xKaI4gosQJqJa1GihYxpfaT/xTagLRhrg0AKBwowpbG5gWiuTyKsJmq3fKlmQWDJKUCN+g55OgaVyZhJdng5wvbI6sQKNTHmz7WDb26ZR3VELmDj55pNTU1rSCfkfhU2oVVZXarRXuv0gOBCwPmyDwni4DTVPfKNCJYzEA2mpZDrrpi/nrAFGZuDpK4GHin7YsuR91M80plcvE0COCkFPPOL5VREPHQsGb1ToMuKvsCIds5hYMEXoC61nvSyf809nIRpwZyNWZivnHXRLs15XtihRWjxVck8BwqOOCl0mQTjCyQy4EsHskTmXaRnbubebZTFdStC92+Rm0g7nO+yaNZExW7kCXex8YJeo8z2pTMmA5xM/TeD57c6MgExVTVWuOh61DScUbkiFQrgxh+IOxIoBQHoPHj2u2sh898raMBddD1MJaMdtyEpEpjhiONCcA7BfpAOBCwPm2x/ik6f8AOIUMGGaSY7e+5RLXTJXnteJfqXy3bwfkHyp+FkoPtACRrsalr+C5XmuIi5KMEcHblm6QPbCF8kbbsYRbv7s1UYOKgS0vNREgYcDQJsXzvVkUd0m6E4hlbQW0vhk5NZcCUDV8RMD7uI288So48rN64aOuRqV3xw9uGseG/RyMyfxeLWskAh4P3DNOhM/dh2hPIwzFfNs8iX2pHcJ0SbD4hHaV1XjBXqeMzCVsTi+TvYUSl83EZt/QVBLfy/zPlVUPrjx4xbXYNC/f22X0vg4ELA+ba/7SO7OPRALNDeTqTkDB+pAekRjmLRyAqMXuRf4yX3E7ySqe7BXf0boCFhrE032iOqYA8VhoXiRccAxt83fM9D7gGPDci8HLsAI6757jk8BkLPC/IN5xUhp5n9tCD0mOFoqAMRV+MAgw0wgGTJrTpq2xrIHUVNwCtfPEVmlTgTz+Dve+j/8A/NFz2ioSr/6o+lA4ELA+ba/7WK7OHUgFvTjfT6TkCC9SA9YDHMROAxmtHIWZ9NOh9K6pBxBRGnQD1YDCjIC9wrOMEljBtwN9pW3XfFI67mMNFuA9nBWNfwRayAa9BQxOgPBE70QOMJIeOwAHuHf4VfvBwLmrVFfRynaXDUF/m+FD8Gvo+0pwV47XGAUUkaVSgXsQyt+FneT6T0ABWpAfAEQ5i2ggPJWh2eOEGcjSxzWZwr9lKuPTWGCdTw+18ZHX9zhuK+gkF30UCgAqvAG1fYMg9g7XvjaeuUXObqIu3Gttr29HhaGhcO4FPfHu8H/2+9N9/wCFX7wcD+68+h/9BUgiQV1XGZmS0TQsVDozb45owV3oyw0H7oJoJ774TJh0w6YcOz6u7Q+OB2usFUBhI0BOEpb0xEFAM3KHeNznNc9VfMh6hiHNYC0OcKlhq7IcuFmtFi6RYEymSYERrJW1yIo80pDmdWyg6H8QDwWwUwKIIGmWH1gV0gWm+RiQu1wwgstp0Zyllot8UQiWAcgTDeU62WsGjTT3OTtY220IrkKTN6H0rqknEAArlDo+dZfH27v4orm+WpqZu8fwov3g4H9159D8pbujZ0Kctv0SBSexeKndl1Q9Pnz58+TevHj/ANY1rw5x0CxXR2XkJ89HEwcFQKNS6rmrWvKSvEPw20uwcON5V4Dr1n33UBrHP1VKS38cMcXP33R9UpnDdjBSKV4hG2cAQEN6oiglp2CeWKjoERk4Duss4KdIaL3KEvFRh9aYVD0RfcDEwCq6HZjwBBNtOBfaYG2PTtJwWGvqt+8HMcIy0ahZSNaPyv7rzxb91hSwjaCmm/CZs2bNmzZs2f2XqOdUtXdG6QUMhBRwGsw4z6siRIkSITQZIxIlLLCnGRX36ICDwxKc4/vHbZAD2+tOV9DNmzZnYg9JeOCSt8iQmswB3gARqVy2AdPcvZp8FvbpbG63jlLT5XBiBh2cGEXISfb8vgf9c3mn2SxnoGSJHfo9MuQyA4a2PoYf914/K/uvP+HkDJ0P+68flfJfaAdwB3V9LBgwYGNgMVHF1X2PQwSfiDe6SI9nKVOYxvUpU5QoUlXCNSM+oiPwGDBgwYMGCgywSZ60Cjk8cMsLcPPhYAjvw+AwYMGDBgwe7ELWlGhY2RY8ehgwYH1gCTgs6CijfwUAHKE0dntfRSoN8NRGgGhXWAem4zOeDRzpsI/RTofzQmZas+W6J5+dX/nNHuQrsOOT7Q5zWrtSkL3OgLj4Nng2P3RCh9LXLG+5cnaNNYrnfB26uoM7tWucLRSBY7FgCmx46cV1HhMnm3seMIOyfOSROw0+50txd+I7uBdpIxhUTphACwvJlbc0/wCjJUkJ7eHLF9H4ej8b95L0bWkKIAWZpQUFS+ju0Iie5QPsg931E6oVOh9xMAphCg4EC/b51f8AvDG1LYfC1fZM9+x3BcPuz85u0Ik2/dq+He961UPdl79FswFG7yOTI+2TZHgS4+QB/GRu9zVvB7h5KnQbccgF0QdcX75uE+wkIjj7hZ0NEtE+LmiXs8581FvftvI/OPmc4sv5p/jGRXPDbTPNKTd4xC62eUb+nJ8PfUVWdhdtvn097MAkJW6U2q8L7fw06oVOhwK/XaQam2qt2XlYEDe6DZp3A+2hagvSIho6Q6sRrY3zSJ3t+3dd1KZCrbTWZkLvYEUGf/diTmYvYr3RXk6Q1gSMSDSgfNWpRot4Wqn5kZ21HE309ahZN4/E9lfEtUc9KMzrtac2O8OetAyU7EqOfh1u04ihaPAQc70lPVqzE1AACPnwlB6qIifyzAgOQmBj8fXrYq3CcrziHdg1k2wdT5ZPWLreVMrapz6JpXzD36O9KIee9UNJ2PuUA9/iHVCo55xYkYcz6J+AvHjx48ePB8vG8jtXYLrgPrAcCv8A1zztBuG9zX+Z4xBPJLkUHOg38Z2odceWde8ayPwuu12n/wAWOO+ssEBsGCzjI8M7c4ZOUDMEAt8bXoLVPYyjcZsTYy0Q7hbrpgCPxFkg3t+AYoc3t6V5dxBLS4TX5sOJWR/ev43HlsqHSDnVSu7hm+htipf7HmwQjY5/+DjpJA9XfU/HiciVWkKfT8Q6oV/S+cFEhrEx8YmgFF9ZEiRIkSIzcr6kmSW9IUHyhxfz4qKnyDm230GTJkykOe/tI/8AuvKr54Cv/S41QVYl7gXjfDy4pWaqDY6VBNXBMpPVG9pnycasBK/2B0bFswayFqsAFXaw6WzbvXhAckEJp9GA5CAErlNRq0OWGQkpadQArhtcO9jQEJaGgeMOn8HRyhjrRPB1HAeSbrhrwACdHq76Za2y5pSlEaIZxp3+gdTthr4YOqFf0vn4BZy+sVxPAK8/SZBjSMEgkUZXOuAHpB7vcJCIcrHWmGKhE6u3aRPmWbq0Ey763btE/hgFQkBgFk8PUy1jQ7rGnMNelmXsgoNvwlQMT/0S0O11du3cEbKmAbb44gFQthe+8jjq7d8GaDqwIJgQa0xCG82OXLt8fUZvQvbkxRehhROkCyEDd46cyHwjqhX9L5+AWcvlKgHik4a12aabMiV0bRmHypuggxmLW5Dae5kb4xuWA/lPfXA/Q3gFf+Cee6W2uBbCpz+Zu7Al151QHfDbmx9L5QXzyptdADrUUcA5xqa3EUROSzW6ZhGx8B5UZVDAoAAIdCobVipZkIJNaUya0HhCPjSPdW8vs4yr/gW+eye5I4IALDyiLp7hnbJI++RhITqmpO2DxNXCrYPHWAKhnjrGrOLBEmdw+VbBT1jgkVGfApSNN2EWORwHGQVyOzP+f2nR/BKB1Qr+l8/ALOXy1SgJgIAoIg6RM3VGVA8vUGdyKxwIQLKaocRPoTwCv/feh0Oh3iocdM+7+XAMA84adJeWvGdwyluuC7+JackJQ+mKsEdRWUAlTbpL6rTLsjCho3WFb3jSFUQ0Xquzr2WszHnhsaIhIUi67kdK9TiR8N83igcbkG0xZAjpuGsOyoW2bvwFNnzLR95yD1nVCv6Xz8As5eqqaVgQZtQAGxIl9C9evXwbVR/RTAeEG4fHKHdpvvEkotYSblxV8xzcsXIHMeGsVm3MdmyYwK1frK/9QgyvHNhyH45zA4INeHl5LFukukYbdrrKHi6x87IFRrmvKQbxA4RdxjhUbE6q/pfPqLHe6RTF6yQKTq4Sr3ARG63EVE3j+Mew1wyuAK4W2CLR5KRqeXG8tkVr6FZDt12xPI1n4DtORusk4fO+hNtveXG8aXkEu1pDQHZhP1gVP/UYpEccNi/lnEIKdnAzVHtipT7kCgG3GMzISYV9RYMDi2+IL/6ewKmstZShTMhvvsJIWiP4UJDo9sEQRESibEeEe448mtJxlhEMNmmBtTdm0swJ7CdYiZywAqGgGJRVaQhUPTfhIjhx2RZHNv6OyLgGuQHotGiQBA4Ufy3pqImgNhkP8HOvEipf+V/S+fUWAZhBAF40np2A4zcseEyIPKspduHvs4W4lTEdJnmKNW+1pvHbsBmoR/aPCtzdP1ym2YcoMSMk81hA0e7axFJE04yniYpe+J+wJpTJaaPr51UBmZ1YCYrsmEwjweRkTKvZR0A0JVA5PYFA7xEIXUgAqNLu0ajPGCoGGGpYJJ7mcKHkBIoUfNuqZrPetlpklmgQi6qS9tUrLI7y07vJhYOMGOCgQTBYXVVQKnNpgi9GuQP0hCC4ePpa7yOZRMpN0vL8tI0qSk+oTiPaRLmJi634DgPocBRF+iHXiRUv/SGWhUQhxWkmHpqVKlQGFDe1s8gUI188r+l84Y4KQttUTtgfbPSbNmzfZwWzyqz2Db3mKj8W0YiYQWBQ1kGm4LY+g86f2sbUIZrnEYNQ2+DxAclGm4oEOidbYbvxXbncVpuQY/2lWcYq8J2ZxugOoEHTR/sCxIaWz5o0jjGhEHB6eF4IQ+FUPgB01ASDLabgMQLBBXK8hDc9zC66ZQ+TOcTTLuQyc7Ow8vGtWumVhDhDGzvhBUinVg0pfdXUCEjM7v5jmQBtc544qR+Sww37EyTSwAOjxxhAeEuTXCOU+8drf0/wc68SKl/4gHV/S+fUWELOaTMUhnfS5/bBh+Qlc63m3yxTs+dYSnDFFUXO/ewR2xrH5lWj5NBgPcMKi6tkdy/Vz1Y1+BY4/wAUJ2hrCOUYazcUhg+EBH4uf2w60LeDTh4bG4YWYYMwIkDHQ3iC/BqYYaES1qTfEgRjDB6egTulQ0tyuSeqnFdCxdQoGoirOkM3impwBXiZhCGm4S4IgKJ6jghh1FBNVFfV9bQjYLTmDZ6BU5BYUlpFzZ74nUDkDJm+LSw6ky4b7c3sWypWON7mIFAccxx8p7kNoFmSU9FxK6v6aKfwc68SKl/4gHV/S+fgFnLpU2c8a2t0XyquLfxLdyI1golhr9CAHcLzUDAc7yQjmBZuKJ3LjhvbZlIdOXkS5HH7Do1XuKYQlh3qTn0AAYAqCixaFr1PVy8elNEXf0n9fhnNwU4Dj3iqnbSy3CQYsgghi9vw1aTboi2wZXExkqaYkZALBVALCtsbvYWmPMkjcEl0OA2E6DhwZAIAdvSUCIy7y8so0o8Zx6gr3g2x/wAKOBc0jUAdsFrq/gh4kVL/AMQDq/pfPwCzl0rx1c49497iHsAq3TwtbpqGGccER3aytE73MFtz5wVkr0MIEJZ9x28f4TKjL0A0CjsVeTgFk65F/tkDYEOgHfDlAUro28jRPvn2Vd3hXNaZyNLPpKHwUMredzYYJIhITZgZ/JEGZSqOfRtZ3IREKiZhJl0lCxNIzguKsWo0wqk5RBqZW6cEgp2qKTYb6lOC8+k8dRs3KtS/k9zSMUXS4vYuhk5OTfuz+DPEipf+IB1f0vn4BZy+s1xPEipf+Jwbq9XZACKvHp379+/v0kqy7JxCBynVWs650H3qrIk5V7qd3S4dXi0ZRKdd6LYDWsjYFwnckN9PzAumLe4x0eEmBj4jPkpwhkke5+MMpwd+P1OjoMFf165O/BM8dKI8tzi89k1BImJmnKhZGbQtSE2Jhv8A7J5VWSy/gyqJMVqv0Eg7gNIIEwTXLaPAWj9VWX3zZogqISioB27l3EW8owfE8X0NMReIGJ7aU0NJLqxnaZrOQY/FNKabhT4RX9L5+AWcvla600u7v9x8gTb0v/8A/wD/AHAD0zbA0UG15fnkipf+001dqgPODcJXGZnnMT5cWN82yn98jAZ57y7WCqEcoZObo89NyEjQqcAkqClxySoZOAWRQs6UlYh+DUcyWhQzIwj4a3B8EKh2MJgOA77NADYgyGwSQu1yglEscHKD0c2NhghQUm3B9V5NFbA7+RYACIbsPFg1WFDgNAP0FmJY6myh4VB2mrKirOHSneBFoUkhQ24SeqUvZdjL9mJKtRR6wxDYp0TylJxsfuaM56KTn2vJIiRG82UpGNHGjGzcNb2o6Z83fc1OQSgc2iaSDZOjRt+Er+l8/ALOX1qtNIqX/h1mnik6dGO66I/XRvKRHgKC34gOPHOzsZ7K/wDRVbZoNa4whd/zbC/QOk5x24MkQpdLdyJZzLsVLsSCrhzBvKxD+HjMRBHDQbGWIjstG1GFMsmifp9hk6G2GdUPGPO8kAqVlrQ0KYgyzThuoeD2AG0PDLwWCBdieCQUiJCdJAHLSnU65zmkOk0C64Ua2YRIEpaaehtGjLDTSjJDLpPmMireaZK8hplfjNCaGSU465Y23vSWdVnd00PNG2uT6/swToKGWoVi2wl70Q3YtoM5MEsFrKFfhFf0vnA8izFK7lTQADPWGjRo0aNGWN9qLPtHWMD9ZppFS/8ADmm9xhx+DEj4g9037oX39CPZS/lf99IxCPYvNytfxhv4Tm3ho19IC5e5cESz+BuQAvfHVwaMIO5BtwPdkhQyGTRUZSBohFVnUQUbYB/ZZkPppY1ADeUb7CvoaHAHLLhM4HrakhrMYXi1+ksx5Ej1Mma5qM/bnC9RcUKjKIogohBy8GFVu7RnK4PQZgmQWI4c60bgQZWN0ySUoqXS5VxoQ7FcWBSNWxpstVPLklN/DK0qUSJVssilEHrLly5cuXL3X+4vbCrqEjYv1mmkVL/w5yY2dkl+EwE4SeBT+j0IjwC/fPwa/PTfGzZyHz2fcGG4eTcpZIgAK4tlaP8AF57XDMUBlYXIxVQhKHN0Tx2buJSQWpHGcZNlI+CUQHOGMEXZJDho4ko+QVvq4yUamplMgo3SgagoouG3Bgw1RQQYa7RBtxMkUvGq1Cdm5uv6rs5+hRuDDEiq8BtQ+qJqWYqIjN40Wh0l8rt7p2InuUagE/hwxU7TSKl/4cwJUw8sz843qt5SOgHYLfoRdE8nLB9kfnqu4YWpkDqlSO9by3GHdLSMpijaLa9BG9ZDBoWIHL62wkYKD4y3g4eCCiInFsdDWWiyKtQgdtFOWaR9JW1Wwxu2YEXJH0dUrSiIwqKtXMbhmoqhR3qKkS0H1QtORKIJAJDW0yMo3OooaUlVw3VYGyelOlLDQgVhGEoC3f8AhKkdMgOJh8g6O2iRca4pGhlcMFk1x/DlTtNIqX/hwahURs2aHieg8oT/ABD/AJHQZmnvK3lBP48qqnaaRUv/AA4LUCB8NhyyT6EiWpdopOaze/29CNT/AHy5hr9z6vVVOywDVjkmflBiDSC0TKHjzr53XtBScodvvAYQFpBaIYMC1wjeDA+Qf7+h00ipf+HChm/eCFeMbctnogHYZ0lFHDj7326J1qzA0FT2+0fv9VqqneHUenY2ONTGoG8Lw0gTU0IB4JoMvaRoZqIeB9sPyBIdowBAOOvH9N4PodNIqX/hwe8cm8/n7j2kufq4wt94s8E9sgAB4qm4EEhSvfDFl5vWe5Q1/DoVG9Q8n3c3TMMUeF5TJPv+mf1gAYWxX8/U6qp1kCJiVq4FzAHMk4fUHE3K4BCbl6eP6bwfQqaRUv8Aw4UKpEc1xe5lHSIxGQAVvISu30MeVOgichahGoDogEBEREojpEeRxEXsMNF28o+3z2qqdCilceQdNgqCxozJPsYfokEgHqwYMGDBg1lyigkBMWyFAk+rBgwYMGBtCPeDxZKFbRxlGO62eV7DlHoeK6c9PVUgZWFCKZAOEA+xt36+P6bwdNNrGCpH9ny9sDEe5lY+xFq1YACTB7giuN88X/hwq8M3ibfPNnvZrd/J6Cgb9jLPvq6qbGkgh89773Pz9VU7L5fJVMwcV8anCN/PKMXEAq+If6Ho4AB8Dj+m8H0IOBX/AIcgyhByqAflxnqmeU4/16KuUm+7P9n56jLuG31N3C3wfP1VTsvl8jUzBxa6qMV01i+Km2PKvVRxD58Ioj4HH9N4PoYcCv8Aw70akRCUr9htxwHo5Q/Mhx+V11n2C/8A1j/O+fqqnZfL5GpmDiGvnTuv0YTNtbHweP6bwfQw4Ff+HADgSiw6B2Az8eh4IQHul37B9U2Nv2Awd8lT7Pz9VU7L5fIVMwcTDoLQBQSRfN4Mb0+ohWQ8oLq7fhcf03g+hhwK/wDDh/QfzRsPE09EtQVkb6fjunv9QlqZWrlOCr5n4+fqqnZfL5CpmDipNgQ2O3R7DE9vh8f03g+hBwK/8OigZIdyYpxeyM0lD6+hgcgsxT/FzgqMZ/kisMMsNQAri8R7Z5wJAXprhK5f7QL0sRSZp+FrPbl9/n6qp2Xy+QqZg4jAA7dVEVF0vZ4Ph8f03g+ghwK/8YgABGU83v8AUNYVwfBxBUIOfFwzf3VF5jjV6bhMBQpPABIygOfIwg7cj8DHg79eGQzefFq8E364lA6Tdxak7SEpEC7cZELD8rrXfGDNmzZs2bNmzZs2bNdnAbE3ufXRBcmqlhqHYSIhwUD8gqdlirrTMaQKSod41er9+/fv34FahIPTvjIGyAer9+/fv35+DcdCKt1u646YrYrBEUUfM/2Hw+P6bwfQA4FeIJzT9vOihEQ+AmTJkyZMmMsxAilGy25PyRatWrVq1atWrVq1atWrVqsUP9edvTy38BMmTJkyZNo61kf5E8rUSOHmcMPCsE0nQAh6pkybWyZRk6EHjuNTALwGlE2FRyXn0lixYsLePLR1NhU8E5wH94hEyANFX0lixYsJW+yV4VG1QTfodu3dDLxVOSvlG7mZLSVf9dhaKvhB73UV6ckBS1GrPXQ6bi8jxY9poh2lb9FAq+4iOPNrsAMhMbN/rP8AHyJ48ePHjx48ePHjx48ePBwsnkQCutlJsj8cj5IYqnjyEDg9Lx48eILojQg6E2hHJjLFSAVTRh9tel48ePBudnl6FU0L0E+nTLQEEwEAUEQdInwlmbNmzZs2bMGpVGgnYigQp8kuGDBgwYMGDBgwYMGDBgxDtSVBGpqaXHwM2bNmzZszLGH3EhyQWVFxy2lySFVC1gts6DBin0BcXlDGzgZqsYdH49S0hLNXBg5nH/odGQDQdIi9dLJvYgz526kaMuZw/wCi6MxHSYLty5NAxaVE29CNGjDiaPgt4zsdZyXpPiI0jUAgx6jBjMp42npzWCvcNk0zeS3nHPawJvCgX+02r08K/wAyZ1a7AmY8Mril8CTJCMtEHr48FuoyEs6ldMkjNe37UYbkBkQE6+PBgG7hhBYQdaVjdpFrwmtLTQu3UYMnMY1N0qaojQusbTn84Ihj26V1/wAa3MNpnaD4lO0yEmAmsD5U5htM7QfEp2mQkwE1gfKnMNpnaD4lO0yEmAmsD5U5eLjlw4nuANBHD1hQggkDCPztNCJeOA8Vb3dVplyL6IUKVLiRAyEjzWsONPRChQtSrYnrqNW4DrR9EKFC1FwzVJUOKMehhQoUf7E6T4UBzsHN220rZ1aL5b6woVq8wgLxI2jNZWACIU0JBPgPZO3rChAu7Di9Pke8iDN6JpeaUIGcVOsKEiEJl9ZWiaMNMY9snhRDP8UiusKFIxiUiqY1Baq2fw1U5htM7QdS80hffopFaxlLfA9Bv8YZAgBQgNqroAx2Ao+VxdHRerH/AOxOV3v9QAuIQpS4K9cCe7LFo8ET2709nGTFs91gKqQDnE3HshWGQmlb++BgcFJHXf41qOsr4QbhkSOwEaxQW4PtXp2ZUyLm69lz7KH8YTATWB8qcw2mdoMlWIElo7e4dw74ztQ6mlJsrCtKfz0IBMyG23C1UbXPKLgKEMLVPPaHcDZ2DSwMUGAxHIWQ0cnBjxdDu/SJmtz3Clps7xR6ekzBaXX88Ji3lJiWlRIXmWaaTlRmIw1RBrwajhiDgJM+PyeBR1/GoSYCawPlTmG0ztBmLTM7qIu1ANbywT5uhVR2HCiixxCfrJMAsKVzSIuC19HZVTYRqUQSEu9GtiKS04C3CUFXPfbgkQSOipmXaT4RBuHZGayogYRTE6IeBGZlWpXkHgCGZSsDeYaAwzBVW4uTvtS/wyEmAmsD5U5RXOsIR5kgXyOskmhMSdrQ7crrnhRdB4xIiDsKUPRJIIBA8TcHcNSFOXokkkmulTFtMO86UwXURLxQnBcBkwZR55+6gdgBXFSRJus3JB0RML9Us6C6bkCDJm542UMrTMhTawwcpXaLn9EUmKopkQShxiAQFzxHjOs96dXoebuIIbPm4UsVphhMvpB/ni2HEiLuIXhpMaILMkywZjxveGzDQCSweEzFoNitvWSSgCOu1woTHBkpfJuazXCk/e6pJGXIuqigs60yVjdYYYwbOzsnrJIfgOEIRAzLdG/4Iqc0en7DtH/fo/U+/wD36P0PZ/16OR35/tD+vQrbcM9i8PauJUdqivK9Tj/o1/uZtfw/gA/o68DtWe5P+rjfsgexbX5ev9qnvt/2Y2F1edq0fuzr/jn4Sf7P+BCpzDaZ2g+JTtMhJgJrA+VOYbTO0HxKdpkJMBNYHypyKsSbrFomCB2nRWOgWGApTt8LOLhPcukH1TQ6cB3wpYBIpCIMPos2bJ+Os6gpcybVd79FmzZnPNLA/YTY3ww62bNkJeXUrp6Rc6O7rZs2Re7mlLGsoId1I4D4UzeU4PL1s2WQ/AkpvlJUzoMKwtGbdg7QXNdbNkWvu2gpp3YCVcqSMLRZSSMeCvWzZipNO6gZNjlSGUVcZRinRnsbByfmTF2B1ERv36K6yt2ol9R7ddfX1S109jj/AJaDQed9WDBLqDrfcB/KIrhjwmYvsiRGjg4gv6QewAjG/Q4cOCx9huW15p7XRr0OHDgfaGSglskOmShfQ4cOFp/bFpUnlmuXo8OHCSVdqVJIGMBYGL4JHkVHqcOAG5lUdfeYtk5cRYBV/wCw6soq3q4cOIQm9TbSNoGUM7dzzbd2dCAGg6uHAzNjcjYwgUR0udu55tu7OhADQYQiBw/9neEbNHVgw2418pVRAdtJx/AX37Dw+htM7QfEp2mQkwE0BgfuvH+AvlUBadG3nipZplCgJMhR3BVobchXwgTgyUUNR16MePCkB6b4KqNs8S+jHjxttH7JkBk+e0ejHjxmZLVIssElIOK9cePGySvQiz2oVKqM3IJEDxiKJ1x46d5+mdd/g5WUw6naqcgixXsY9ceNbezbZFvIqpBcG0S7LlYKvNGInXHjv5qvoznKCsCqZ3F6J3qRwQKBMezCyAKDtd2UDr+68frzhTgssHsq+0daFAXiYustFWqrv0DFixYsWLFixYsWLFixYsWLFixYsWLFixYsWLFKOggWUEV3HrQob+tIFVKkKcIj/wCMH//aAAwDAQACAAMAAAAQAAAAAAAAAAAAAAAAAAAAAAAAAAAAAAAAAAAAAAAAAAAAAAAAAAAAAAAAAAAAAAAAAAAAAAAAAAAAAAAAAAAAAAAAAAAAAAAAAAAAAAAAAAAAAAAAAAAAAAAAAAAAAAAAAAAAAAAAAAAAAAAAAAAAAAAAAAAAAAAAAAAAAAAAAAAAAAAAAAAAAAAAAAAAAAAAAAAAAAAAAAAAAAAAAAAAAAAAAAAAAAAAAAAAAAAAAAAAAAAAAAAAAAAAAAAAAAAAAAAAAAAAAAAAAAAAAAAAAAAAAAAAAAAAAAAAAAAAAAAAAAAAAAAAAAAAAAAAAAAAAAAAAAAAAAAAAAAAAAAAAAAAAAAAAAAAAAAAAAAAAAAAAAAAAAAAAAAAAAAAAAAAAAAAAAAAAAAAAAAAAAAAAAAAAAAAAAAAAAAAAAAAAAAAAAAAAAAAAAAAAAAAAAAAAAAAAAAAAAAAAAAAAAAAAAAAAAAAAAAAAAAAAAAAAAAAAAAAAAAAAAAAAAAAAAAAAAAAAAAAAAAAAAAAAAAAAAAAAAAAAAAAAAAAAAAAAAAAAAAAAAAAAAAAAAAAAAAAAAAAAAAAAAAAAAAAAAAAAAAAAAAAAAAAAAAAAAAAAAAAAAAAAAAAAAAAAAAAAAAAAAAAAAAAAAAAAAAAAAAAAAAAAAAAAAAAAAAAAAAAAAAAAAAAAAAAAAAAAAAAAAAAAAAAAAAAAAAAAAAAAAAAAAAEkkkkgAAAAAAAAAAAAAAAAAAAAAAAAAAAAAAAAAAAAAAAAAAAAAAAAAAAAAAAAAAAAAAAAAAAAAAAAAAAAAAAAAAAAAAAAAAAAAAAAAAAAAAAAAAAAAAAAAAAAAAAAAAAAAAAAAAAAAAAAAAAAAAAAgAAAAEAAAAAAAAAAAAAAAAAAAAAAAAAAAAAAAAAAAAAAAAAAAAAAAAAAAAAAAAAAAAAAAAAAAAAAAAAAAAAAAAAAAAAAAAAAAAAAAAAAAAAAAAAAAAAAAAAAAAAAAAAAAAAAAAAAAAAAAAAAAAAAAAAAAAAAAAAAAAAAAAAAAAAAAAAAAAAAAkkkkggAAAAAAAEkkkkkgAAAAEkkgAAAAEkkkgAAAAAAAAAAAAEgAAAAEkkkkkkkkAAAAAEAAAAgAAkkgkkggAAEAAAAAAAAAAAAEkgEkkEAAAAAAEAkkkgAkAAAAgkkAkkAAgEkgEAAAAAAAAAAAAEkkEkAAAAAAAAAgAAAEAEAAAAEAAAAkEAAAAAEAAAAAAAAAAAAEkgAAAEAAAAAAAAAAAEAEAAAAEAAAAAEkgAAAEAAAAAAAAAAAAEkggAgEAAAAAAAAAAAEAEAAAAkAAAAkAggAAAEAAAAAAAAAAAAEkkgAgEAAAAAAAAAAAEAEAAAEkAAAAEgkgAAAEAAAAAAAAAAAAEkgAAAAAAAAAAAAAAAEAEAAAgEAAAAAAAgAAAEAAAAAAAAAAAAEkggAgAAAAAAAAAAAAEAEAAAgEAAAkkkkgAAAEAAAAAAAAAAAAEkkAAgAAAAAAAAAAAAEAEAAEAAkkkkkkkkkkgEAAAAAAAAAAAAEkkkEAgAAAAAAAAAAAEAEAAgAAAAAAAAAAAAEEAAAAAAAAAAAAEkgEAAAAAAAAAAAAAAEAAAAAAAAAAAAAAAAAAkAAAAAAAAAAAAEkggAgAAAAAAAAAAAAEAAAAAAAAAAAAAAAAAAkAAAAAAAAAAAAEkgAAggAAAAAAAAAAAEAAAAAAAAAAAAAAAAAAkAAAAAAAAAAAAEkkgAAgAAAAAAAAAAAEEgAkgAAEAAAkEggAAAkAAAAAAAAAAAAEkgAAgAAAAAAAAAAAAEAAgkgAAEAEkAkgAAAAkAAAAAAAAAAAAEkkAAggAgEgEgAEAAAEAEEkAAAkkAEAEkAAAAkAAAAAAAAAAAAEkgAAAggEEkAgAEAAAEAEkAAAAkEkggAEgAAAkAAAAAAAAAAAAEkgEkEEAEAEEEgkAAAEAAEAEAAgkkgAgggAAAkAAAAAAAAAAAAEkEkkAkkEEEEggAAAAEAAAgAAAgkAggAggAAAkAAAAAAAAAAAAEkAAEAAAgAEkgEgAAAEEEgAkAAAAAAAAAAAAAkAAAAAAAAAAAAEkAAEAEAgkAEgAAAAAEAAAAAAAAAAAAAAAAAAkAAAAAAAAAAAAEkAAEAAAAAAAAAAAAAEAAAAEgAAAAAAAAAAAAkAAAAAAAAAAAAEkAAEAAAAAAAAAAAAAEAAAAEgAAAAAAAAAAAAkAAAAAAAAAAAAEkkkkAAAAAAAAAAAAAEAAAAEgAAAAAAAAAAAAkAAAAAAAAAAAAEkAAAAAAAAAAAAAAAAEAAAAEAAAAAAAAAAAAAkAAAAAAAAAAAAEkAAAAAAAAAAAAAAEgkAAAAEAAAAAAAAAAAAAkAAAAAAAAAAAAEkAAAAAAgEAAAAAgAAkAAAAEAAAAAAAAAAAAEkAAAAAAAAAAAAEkAAkkAEkEEAAAEAAAkAkkkAAAAAAAAAAAAAAEAAAAAAAAAAAAEgkkEggkkEAAAAgAAAkAAAAAAAAAAAAAAAAAAEAAAAAAAAAAAAEgkgEkkAgEkAAAAAAAkAAAAAAAAAAAAAAAAAAEAAAAAAAAAAAAEkkgAEAkEgkAAEAAAAkAAAAAAAAAAAAAAAAAAEAAAAAAAAAAAAEkAgkEEgEkAAAEAAAAkAAAAAAAAAAAAAAAAAAEAAAAAAAAAAAAEgAEkEgkkgAAAkAAAAkAAAAAAAAAAAAAAAAAAEAAAAAAAAAAAAEkAAEEAgEEAAAAAAAAkAAAAAAAAAkgAAAAAAAEAAAAAAAAAAAAEkEAAkEAAEAgAAAAAAEAAAAAAAAEkgAAAAAAAEAAAAAAAAAAgAAAAAAAAAAAAAAAAAAEAAAAAAAAEgkkkAAAAAAEAAAAAAAAAAgAAAAAAAAAAAAAAgAAAEAAAAAAAEgEAgAgAAAAAEAAAAAAAAAAgAAAAAAAAAAAAAEAAAAAAAAAAAAAkgEgEEgAAAAEAAAAAAAAAAgAAAAAAAAAAAAEAAAAAAAAAAAAAggkAEEEAAAAAEAAAAAAAAAAgAAAAAAAAAAAAAAAAAAAAAAAAAEAAggEggAAAAAEAAAAAAAAAAEkkkkkAAAAgAAAAAAAAAAAAAAAAkEEAgkkAAAAAEAAAAAAAAAAAEkkgAAkAAEAAAAAAAAAAAAAAAAAEkEAAEAAAAAEAAAAAAAAAAAkAkkEkAkkgkAgAAAAAAAAAAAAAAAAAAEgAAAAAEAAAAAAAAAAAgAkgkEEkgEAgAAAAAAAAAAAAAAAAgAAAgAAAAAEAAAAAAAAAAAgAAgEkAEEEAAgAAAAAAAAAAAAAAAAAEAAAAAAAEAAAAAAAAAAAgAEAkgAEAEEgkkAAAAAAAAAAAAAAAAAAAAAAAAEAAAAAAAAAAAgEgAkEgkAkAEgAAAAAAAAAAAAAAAAAAAAAAAAAEAAAAAAAAAAAgEAAkEggAAAEAAAAAAAAAAAAAAAAAAAAAAAAAAEAAAAAAAAAAkEkAEkkgEEEEggAAAAAAAAAAAAAAAAAAAAAAAAAEAAAAAAAAAAkEAAEEAEEkkgEgAAAAAAAAAAAAAAAAAAAAAAAAAEAAAAAAAAAAgkkkkkkkkkEkkgEgAAAAEkAAAAAAAAAAAAAAAAAEAAAAAAAAAAgAAAAAAAAAAAAAAAAAAEAAAAAAAAAAAAAAAAAAAEAAAAAAAAAAkkggEkkkgEkkkkkgAAAEkAAAAAAAAAAAAAAAAAAEAAAAAAAAAAAAEkEEAgEggkAAAgAAAAkAAAAAAAAAAAAAAAAAAAAAAAAAAAAAAAEkAEEEEAgEAAAgAAAAkAAAAAAAAAAAAAAAAAAEAAAAAAAAAAAAEgkAgkEAAkEAAkAAAAkEAAAEAAAAAAAAAAAAAEAAAAAAAAAAAAEkAEkgAkEgkAAEAAAAkAAAAAAAAAAAAAAAEkgEAAAAAAAAAAAAEkAAAgAEEAAAAAAAAAkAAAAEAAAAAAAAAAgAEEAAAAAAAAAAAAEgAAgAggEgAgAAEAAAkAAAAEAAAAAAAAAAgAEEAAAAAAAAAAAAEkAgAEAAEkAAAAEAAAkAAAAEAAAAAAAAAAEkEEAAAAAAAAAAAAEkAAAAAAkAAAAAAkAAkAAAAEAAAAAgAAAAAEEgAAAAAAAAAAAAEkAAAAAAAAAAAAAAAgEAAAEAAgAkkAEAgAAEEkAAAAAAAAAAAAEkAAAAAAAAAAAAAAAAEAAAEAAggkAEEgggAEEkAAAAAAAAAAAAEkkkkAAAAAAAAAAAAAEAAAEAAAAEAkkkkAAEEkAAAAAAAAAAAAEkAAEAAAAAAAAAAAAAEAAAEgEEgAAEkAgEAEEkAAAAAAAAAAAAEkAAEAAAAAAAAAAAAAEAAAAEAEAAkAkEAAAkEkAAAAAAAAAAAAEkAAEAAAAAAAAAAAAAEAAAAEEkgkEgAAgEAAEkAAAAAAAAAAAAEkAAEAAAAAAAAAAAAAEAAAAEAAAAAAAAAAgAEkAAAAAAAAAAAAEkkkgAEAEkEgkEgAAAEAAAAEAAAAAAAAAAkkkkAAAAAAAAAAAAEkkkAAgkkAAkAAEAAAEAAAAEAAAAAAAAAAAAAkAAAAAAAAAAAAEkgEEgAEgEgkggkAAAEAEkkgAAAAAAAAAAAAAkAAAAAAAAAAAAEkkgAAEggEEEkAgAAAEAAAAAAAAAAAAAAAAAAkAAAAAAAAAAAAEkkAAAgkAAEkEkAAAAEAAAAAAAAAAAAAAAAAAkAAAAAAAAAAAAEkkAAgkggggkkgAAAAEAAAAAAAAAAAAAAAAAAkAAAAAAAAAAAAEkggAggAAAAAAAAAAAEAAAAAAAAAAAAAAAAAAkAAAAAAAAAAAAEkggAggAAAAAAAAAAAEAAAAAAAAAAAAAAEAAAkAAAAAAAAAAAAEkgAAggAAAAAAAAAAAEAAAAAAAAAAAAAAEgAAkAAAAAAAAAAAAEkgAAAkAAAAAAAAAAAEAAAAAAAAAAAAAAAAAAkAAAAAAAAAAAAEkggAAAAAAAAAAAAAAEAAEkkkkkkkEAEAAAAEgAAAAAAAAAAAAEkkAAgAAAAAAAAAAAAEAAAgAAAAAAEAkAAAAAEAAAAAAAAAAAAEkkAAAEAAAAAAAAAAAEAAAgAAAAAAEAgAAAAAEAAAAAAAAAAAAEkggAAEAAAAAAAAAAAEAAAgAAAAAAEEAAAAAAEAAAAAAAAAAAAEkgAAAEAAAAAAAAAAAEAAAgAAAAAAEAAAAAAAEAAAAAAAAAAAAEkgAAgAAAAAAAAAAAAEAAAgAAAAAAEgAAAAAAEAAAAAAAAAAAAEkkgggEAAAAAAAAAAAEAAAgAAAAAAEgAAAAAAEAAAAAAAAAAAAEkAEAAAAAAAAAEAAAAEAAAgAAEAAAkgAAAAAAEAAAAAAAAAAAAEkkkkkkkkkkkkkgkkkgEkkAAEgAAAAgAAAAAgEAAAAAAAAAAAAEgAAAEEkkkkkkkkAAAAAAAEkgkkkAAAAAAAAAEAAAAAAAAAAAAEgAAAEAAAAAAAAAAAAAgAAgAEAAEAAAkAgAEAkAAAAAAAAAAAAAAAAAAAAAAAAAAAAAAAgEAAAAAAgAkAAAEAAAkAAAAAAAAAAAAAAAAAAAAAAAAAAAAAAAgEAAAAAAgAkAAAEAAAkAAAAAAAAAAAAAAAAAAAAAAAAAAAAAAAgEAAAAAAgAkAAAEAAAkAAAAAAAAAAAAAAAAAAAAAAAAAAAAAAAEkkgEkkkgkAkgkAkgkEAAAAAAAAAAAAAAAAAAAAAAAAAAAAAAAgEAAAAEEgkEkEAEAAAkAAAAAAAAAAAAAAAAAAAAAAAAAAAAAAAgEAAAAEEAggEAAEAAAkAAAAAAAAAAAAAAAAAAAAAAAAAAAAAAAgEAAAAEEggggAAEAAAkAAAAAAAAAAAAAAAAAAAAAAAAAAAAAAAEgkkEkgEkkAEEkkkEkEAAAAAAAAAAAAAAAAAAAAAAAAAAAAAAAgEAAAAAAgAAAkAgAkAEAAAAAAAAAAAAAAAAAAAAAAAAAAAAAAAgEAAAAAAgAkAAAEAAAkAAAAAAAAAAAAAAAAAAAAAAAAAAAAAAAgEAAAAAAgAkAAAEAAAkAAAAAAAAAAAAAAAAAAAAAAAAAAAAAAAAggEgAAAgAEAkAEAgAEAAAAAAAAAAAAAAAAAAAAAAAAAAAAAAEAkAAAAgAAAgAkAAAggEAAAAAAAAAAAAAAAAAAAAAAAAAAAAAAAAEAAAAAAgAkAAAEAEAEAAAAAAAAAAAAAAAAAAAAAAAAAAAAAAAAgEkkkEkgkkkEkEkAgEAAAAAAAAAAAAAAAAAAAAAAAAAAAAAAAkkkkkkkkkkkkkkkkkkkAAAAAAAAAAAAAAAAAAAAAAAAAAAAAAAAAAAAAAAAAAAAAAAAAAAAAAAAAAAAAAAAAAAAAAAAAAAAAAAAAAAAAAAAAAAAAAAAAAAAAAAAAAAAAAAAAAAAAAAAAAAAAAAAAAAAAAAAAAAAAAAAAAAAAAAAAAAAAAAAAAAAAAAAAAAAAAAAAAAAAAAAAAAAAAAAAAAAAAAAAAAAAAAAAAAAAAAAAAAAAAAAAAAAAAAAAAAAAAAAAAAAAAAAAAAAAAAAAAAAAAAAAAAAAAAAAAAAAAAAAAAAAAAAAAAAAAAAAAAAAAAAAAAAAAAAAAAAAAAAAAAAAAAAAAAAAAAAAAAAAAAAAAAAAAAAAAAAAAAAAAAAAAAAAAAAAAAAAAAAAAAAAAAAAAAAAAAAAAAAAAAAAAAAAAAAAAAAAAAAAAAAAAAAAAAAAAAAAAAAAAAAAAAAAAAAAAAAAAAAAAAAAAAAAAAAAAAAAAAAAAAAAAAAAAAAAAAAAAAAAAAAAAAAAAAAAAAAAAAAAAAAAAAAAAAAAAAAAAAAAAAAAAAAAAAAAAAAAAAAAAAAAAAAAAAAAAAAAAAAAAAAAAAAAAAAAAAAAAAAAAAAAAAAAAAAAAAAAAAAAAAAAAAAAAAAAAAAAAAAAAAAAAAAAAAAAAAAAAAAAAAAAAAAAAAAAAAAAAAAAAAAAAAAAAAAAAAAAAAAAAAAA//xAAUEQEAAAAAAAAAAAAAAAAAAADQ/9oACAEDAQE/EFxT/8QAFBEBAAAAAAAAAAAAAAAAAAAA0P/aAAgBAgEBPxBcU//EACsQAQEAAgECBQQDAQEBAQEAAAERACExEEEgMEBRcVBhobFggfDB8ZGAoP/aAAgBAQABPxD/APmuNnEaqLRCcVHyxo0aNGjRo0aNV9iIfkPFjxin/wCIYhSIUsbrim89NX5KPL7du3bt27du3YkIg/nuwgm9b/8Al6iFIhSIUnZU3V1IAlEpiUbKMNVXQA+wAeTZs2bNmzZskn31a52WgtoQxdWNbCB9ith6Hjx48ePHjx48ePHjx48Va7btKaCtgo4fKs2bNmzZs2bNmfdKLFQbDUCZrGAVT07SFYNIEDfkcePHjx48eIG/Ugkr8iupIqOfWesuio6sNzXhs2bNmHcdoBwE20Q7vg48ePE9++cLPLOa+ChlFEO/h48ePEJEcUEUPcONO+zgcIdGDCBCB47NmzZs2WJ1lQ/tPiiJK+rvPL8v78k49G8pxOuwhilSOmmg3ZBDfb0Ny5cuXLly5cuXLly5cuFWASPijYbsNEB5aLumUA9EAhFEOHz5T5VVZBSmIKACPBcuXLhcl7rZv45ZXH3KmKi6gAiASHguXLlwCISAJe8TD3aT3yQx2Zpw47pPoQ288vy/vGsqHehBpbkRzuU/sp2EozEelxJvHRsLtMY407yY3U7DUiD6W7bD+2xCgQwE2PGEP7bEKBBARYcYzeJdoIj1ERHAmZNnGCJgBKJitJ6C/L84gliecxYsWLFixYsWLFixb5FmEUK4h7DvxOYpIvpbpHRDRJG7LEKlNPkHTp06dOnTucibU6Ed9cM4JgPLTCJMiYLh2/dDaQ1omYEwB5ARqnQdYc6LSqhHEbHJbwEis2y4DwnTp06FtyFcK0cAAeKNYND1HOiHsVmTJgQAAAg0AEAGHiTXhQP6mSDadCQwWQIPwHc2pYFwJFp9fSgVU92My6qiqquqtVWlXwnTp066Li7uqSEhoSvrRt55fl/fV24Y+SvXy1mhLYxja1R2vhD4aS4MyP8AjuRwO2xN8iIRb07AgAi63eyLlUH5wjgTctaXiOkDCHYbPULHb/28gCkuRONTzwgKIUfBI6GiAA8j8XzdFe5GzipTSShRHuUtKeR7sTA12KXt+3wQptbFkDYmd2jCwdBw7TMk0cTJyK5LsVQL56LuCKKyoUSyGp/3oNAIpf5xgXkH5EMjEUtbvAPgB2+idBt55fl/fgduIGogcQWq71t6PB7XUCZ9RCrDQb6pYAuEQqIza0XZ6iJ+L5uivcg2gVat+NdER02a8z2nhWfG7ZowtpbnZ4Jh2hiXXYmcTBlAtqEIol+iyjoNvPL8v78DtxEGKQ75CVCXZ2NvgtSEXA3Uspn5nUrkfWgojzTXt9RE/F83RXuR3aPbCw7AEb0nle04IkBT7AVf6Mhtgdu5asdbRjlMwQBEGCsQTIvmywUI3iPUOhrA5OC1WTKhagqawDMU5kWTcAeQiizg7B39E6Dbzy/L++rtwIPg2JP9nOE6Xrc8gchhafAqqR2oFf4I+HrKq4cPvJlf7vUET8XzNFe5FcSlH2chJIFbgVMUdYrjV0M8v2nv6ZKB/R8Y9agAAAAAAgBoANAHREn6kuCORWFBEJHL5SUzu/kBYQFK32jtBRlIS+h9Bt55fl/fV24RlAhoUyIQNxxOKgSVriqX3XwME8uHQ+nbb/8AOoPAQtFYMCY209tenifi+Xor3I+LQUGBfuH2jht3PWqKOTyXEXvldp3tVA+UH/55CxBER7rdQVRL9E6Dbzy/L++rtxUQZmgMRoJM104OdjwEeOjwOeSKuhTQvI+09uqORCDD402Mb0Lv6iJ+L5WivcjwgE0LD+OAMARs3+1seIj5UU9pDKnF0jbxSHjDyHyjEDYzc014RYsWLF2GcQPeKMoQbgneExYZrMMPO+ieg288vy/vq7cGUJU2UU7TuyeoF6Ue6GNd+BDgu6tEaWEBx1mA4EFUArQRJ5V9RE/F8nRXuS/bcBxCNq5fCS8xUc8sBc8ojWvag1XoKEUq8UqVKlSpQzvGDoiMYkhlnkKlSpUqVKnDxHSbpIAUZV8cqVKlSpW57aqeSViCkW19YdvPL8v76u3CABEAUQiOkTGIhAhmi9PeT2zQ8WzzHwLLk5ewsFXWkP3mGJlDKhA5Sxm29lDIYnvY4Wg0th6ERTOHktg039jh90SoJwb7uzFVfURPxfHor3JrCcFwKToHcBVmXwEu0/zVUzONF8hA3z2sCd9WBiQeFpKVzUHLIuQVWzaYclIAy/L6HvtPchD1V55fl/fgduI0KeD2jxFMNoWCyJMUhMSg/OKp2BL02GFKezk+bB/gAjUDQ0YFfq2zLjap3ol6FvuvFicNVXsjvPUxPxfBor5jWl7XY1qBBkisjIJskeDKi0EaGBmNLFEg2gM203mtZ4thGJQUAF+tUPv688vy/vwO3EIxMsuhi2FFbgeBEJ2zMcmtLRT1sx+g8O1VCXJtJxij6iJ+L/AdFoff155fl/fgduJvWLsj00K9Vdq+B30KcQLdoD2qnfpwUDgezSz/AHD39TE/F/gOi0Pv688vy/vq7ce4+TO4Lo3Ydu0h1tMP7t4FDqyohF64G2auu3R8iBgbJoUFy+pifi9MRtVbMQmxC7jz12N73tRFCdyWeBixY+5MbQuqMa2OPzcJEwK1busw4fQeOeHJsZIdkELWTKSSKCngaMisjHzCzAw6ZlE9Rp/COKH4yhzgEa4CnIUT90PAR0QZAQSMpM3kIGC+sJLvyWCZktO2ib659LLSUWCgxIew1ifXskODgXVgRJEoZbzh+F0qrCS8gSzg48br5oEVMAXKXluml+a+POAnBlrzNREFehEljwOApaFNH5BXRG4RSZze14wZiDca6vNDTKkNCCmAWJz9Doff155fl/fV24XxqNcvBsKYBRYlAyVVAHgSP5EpwT7a/wCOhYAIKoDyEU9MUZPUxPxfBopR/g0zAKJo1Ox11dr1YyU9Y/K3C+FWZyyIxtaHu+LqtkauwajLjwDIHmljJP6dO9wIIaAlJiR2JelanSQVd+BI4ojiaRJI++Rc6CP/ADsmPD+KW5H8FWD6PTbaqORiPLihvpKMpbK+8vY//DR7GNMsbR+QGF1E4u8ETZbyeBe3il/MDuRHlngQ3bBaNi7s8SgBD7Az9x+1JVxf4ubUIaDecCKLa5AQpAUeC10xdCW+NWa6w8UKBPDzMdK5yPGQ/RKH39eeX5f31duJAEhQIqpI3wxVW0xwBNq9vA6MOeU7bqk52PRsnnTtlLoVIhl0ASxnhNN2VAby+g2Y51wSQBQo53aAGuCVBILvaZ0MWTRr2RTwZiqSPwcYFQoVKxxtNJjA1BmDmIHtvvxkZR4FdncswlCEBzXAsutZS+bd/Gze5KnrWUO07FBCJKgfxGHqxhPBlJ1nxCEuVuyr8Ldc+SQRCpDxdC2WddIxEXS48wFKaF0iU+P8XwaKURtduN2dyCuAKm+xVURG/lnCoKRc4icsSSGeKpXuP0W/QyOCAytQCfLH5uftjhNAloi9JhVjgo1Ohot8D+85XwA5lCHqN8YO8DklRg+YBqs8C6mlfRKLL8OrvB9PmrBdQhRQxBL/APilNCAIirrFOGVKaxR808MCI+FaUJtHaawjOfoZwjVOaEskq+6SE0PMJqxqja0tFUlnlwnfBHrTV70oIY07cVSPqr4YFmA80SHblhFQtBWornBQDJlxKJ9umJkh851DwftOUpHu19EU5lD7+vPL8v76u3AtADRyMxgJ4EV2Y2mg7CbkMQHhjqFPriCiHWj9MEASLVLvWjTEAUsUbfA0dCZwg2iLHn1foVzFktERWEiPrXYGe9qrQFqKqawVcoLScNLlA07d/dxdf7Bb4WmsQGXXC3Qy9g6pVXHnrXDNYKF/lyLZw2weTas8MMHHKxtCgDCMKghgPIfTNoKWzWu1ojHe0/gAk58L3D7u4JjKg2U/OsIYSQo0fkDrAZDUBNQ4W63mnMRMEtcm9Ta4h4gmAfI/F8GilEHfNcZKGbfDAOvK7MdXmEwe5JZnpkQ6pxAjm7apFyUq2SuDHeqvWDL4NM+KrnCgSw5SNaM5JXAzFh9MGLpbRGCfyxmVxyY0pBQ1HsUrAsayDPW/dUbj/lHGFdqxecsRVARLitkzR0VXI+oFtC96F2QGmfAlWHNQjiVdeMXbN0Io2A7cIMW0D0VJLOGmgEiMEhbLiKrpcE3O9aU9L4bFNEF415AGSwZgOFG2uQ8YmwOiJqR3lvGpEB+iBQ+/rzy/L++jvg59X4RFgwpABWibOtIghHRQNCTfkBlchqSv44QB86CjaPODwRQCLkmX723fOG0jstFCzDaJuYBKIKjePZpKp0UJJE/gLFrhPAKPEYqGPaQFUCPnOOQRIuRYQmEzQtiIH+5UpN4fWaWMuWNfXEFdtT0hN9YDQaGXFijK98t2WnDQRjaHHmIVD2iTpp0ic904ayKyywXt4sfmP3Aed0AFDFkIYQjuyUfhyGda/FJ43wKPR7LOVYmCm/kohtVNtUKU1q0nOi5WDV6CL1nMSEmsmwcBwgNkQzs/3NrICios8j8XwaKUCOrD5mT/APTw9OWdH7Et6Qy7kbgSvK6zJ3KJo0PtZjrE6TVECix3fecwxQypHa5gqrvPBx4U1BL/ANbYoRTt7Z/KBxw/0AxBMICLjPkOlCUyc+zwAfaWiTgd4ByF/aXMiTFEqjb8qrXtCWYbaXgJv8RwsAAKvFrUeTB9TAnUGFjAlUAuk2PRoCn0W49E0gJUnyiMDWjMJvI9eM5vNGOVbYJXvw01dsSHEvAXZEfknMADDciIaWW5xKtH0Sh9/Xnl+X99HZn9sID0HoHIUV8ChQoUccflWkJKLcAetZBrUYKEwm6QDJoaJWiIJlW3ZM1n+ku4Ng0gYGKt00SYWO2jlFxSty3lfKG17oDHjY2nGVLtkjTjLo3zeQ/gILeeOS16YSIBB8GXB2rw/IdHAKWl2G8mUoy+FPazgP0VagxCugeW5c3ybYcNbq/yDlEWgGs1vwNErEjOIaEzICRnG92TBWCbzhvwYmKVSjDOnE5tg3glOGlx23GXC0hBFfI/F8GilGuAuIvQDiYjAb1iC5txY8wfAlZ//X8JUqYC6YKbTNASU6op3x8NZPQwFvjhIBQCAIjtI/bC2a1d129fnws1NCROMR8G2zNDmhky7duiHDRpkU77vFYABEklmwx7XiPnKQRY1xMq6iz8b6LZsa97Qxg5B78w1SsD8RPJ4h8b68GIopSEIvvUQViBorBf1uPW30kmTDAeoHtHc5PVeyPXeOVjlpETWonm6oUWVmsGTUDUFGHiKTeOpbGS6GjTSBX0Roff155fl/flu8/wPJTmyKTVTwd4v6XG1fIO4MgILufTXIwB2wYS8oYRhV4qSWHL2+PSmC3iQYQIjgeNiF6FC32YBAAABABoAOlf65j9j3i4cjLVtYARvtSGET50M7HpaX7SYcI71iXdIVjYsoFPPr1QBkqE93+YXy1eMBjDqDp0tPNdwHOmB2eARLIpDVCqleVSq/dfJ/F6Z2Y3/Yl7lMpHeHCkzb58TuZqUDKYBXCU4UcmAD1Yq9ERWESPgjx47KUsiQGcXG5YKf2Lliw40gMz6tQ+/rzy/L+/Ld5/nF3oWHrVZW7p6Iq2jsSm95KAWZ2RDB6M/wDm1KzqzrCERN8omWjynEDl1ouICJpEtRVVXAODyFGeumhnDGI7BxLQ9yX1zdXTh2QjFU5uDq524DLgGlS5QNprG7PQmcgE1RblnQhGGNH0w5MH2/KPJH8yd+W+wvx/p+gFMJzYFWndKQ8uyDMPJDepfI/F6YHVqvSK1LB/s+Q4cOHDhw4UZ8oaSp+jbRgT1V5xJUQaGuH6soff155fl/f0N3n+fi+Vu3A7FPdld4o/vJ/XeW8MMH4Cp+q0Pv688vy/v6G7z/Pxf4DuyvXQ+/rzy/L++jt9voVIrCulUofAOHDh0d3NpWMNWwiI+s/F8rdheoJEhc1+ODrGRFsAiyGhSHb6tQ+/rzy/L+/obv8AF/gO7CMND7+vPL8v79c7KgSKZxiF6NzAQzerlUECHAg5Ugku3fV+VZpFuI60RHlVIyJNar17nXFBKGaQWZ+L/Ad2EYaH39eeX5f34XYCaOwBSYY5SQSRe8aK5MBcRCmxsoQifdbbxhPEwKv5rMUgC9OrcNDXoK/u1BQzbfGVj2ORnfmUWQbEPIh5Q2H7mbUZ2XoQwwjaWOtx/SEYuPYh1jgakgFtXwRdv4vk7sMpOuNH7bC3LhBs4pX5paPEvLaqyOr+DASgx9SOpXYx8t3F4cFgzp1FNrpyAFQlmXlPfe+4Cnqrzy/L++rvdUUAPZYQlBFGIni8cXAUwuAFmAkbwBQN27hsBAi919s4rXBd/HS/2juU5BwDBwMGlRKxZgxkUMI/eEUvjAdZrjqJ90+MuLy2WzBxgaqS+1hYNkIbNgfOcXFU1BhSwsqwEX04VeGVqv5hZIpcTgucNEzMOs7Fe+g4btbM2tZQIzyVIEeuRFrTtA1s/O9U+NZTxpIu38XpnSttFKa9m8nX/k8f+Tx/5PH/AJPH/k8f+TxJK1jgh9ZIP4tnIByg/rfkWAq7GWsb1SIlSyv1bqdvPL8v7xfYL0KIYgggFyu9JWXTpx/nOAlLyw1trMHJ71pkziK0ZSlawibkL1mTC/8AJaCSMqxGyZYQx9YmZgcejUMEP7A49+qzIqTE25wDalNhu/gpeg50qJUXJjdbby9Vipa4c5VQnjekBCu7rpMUTQEAMdxlCIjgXTyq6rBi3kXHYzHwt45dRwwPOGkzN0klL4MSohV7+Ved4EXb+L/AdF6Dbzy/L+8aUG4AQ/2FIiY4JlKVzE+oRygcykFTv1z5Fho9NiAqQCqkAbVWQDF3YJS/2YIBjF4PDs2bLvGuqUQBQ8QM3sF/HPIoI9XoHYVxQcRerqJpOmzdwARsBUGbxTBnsEK4GA9jwbNmw8MwQG9854BXw8m+QDvzsQ4oEhu6j0CqjQAILyIu38X+A6L0G3nl+X99HdjqGInGnAivZcQkbrWUNyi4onsZZCJK3ujaKBGZzHXu6vAkthNYz6h4LKPcBsjvndIKwt1t5JjxiIZZJThxAAJLmogjJk7ZxmQ9TVeqNxCwtD3gBLioztERyPYcAhg5z/ImSN8g0oYr+3FvjIwUr2JmmnPjp1J5ig4D0NY/7YxgJqsIYaSrAWC0OR7j4g5bP1tblpWGILykXb+L/AdF6Dbzy/L+8VTQipwUAwKuUu0FOlEGkQwhAI09vsTi7aDjBdOGaGDKgu1BQNhfNczEQtAJ0OLqmzDRl0Wf3muGMgV1RyCKZrDMjgz1sLSNrnLDqR7eHrYtVaEEYBKZ5qzwHB1WqAiomckc+3GFU6AVN8SdKIWTTeLBSyGEyBDpGtFoxWokMIaltOizkYOgOrAFVeAOa5QautUWLEiDQJC3wV2cNwEFlQdYAGUymOHUMTPA14gUSlBSER2YtsmpGshFtaXNnyYu38X+A6L0G3nl+X942RaGq/mCwOzJ+CmLXG1ygX2xNZAUNTwaktLtVEfJeM0F8IxwZmWIVgDz5p3gQkQUaICJwj3Zt6NwTzgEWgxknF1Q/oINTsAwGT1t16zKCg2oHLITd3E+dTw4RKjbHNordKlJdA6Ucs0OTkDJMXIee7lADElegXHYiULYiwKfCdSPMWiLHO0jGmHKyQ2YxRJq6zUTVBWucpWB6ujVGGlj9ecVVA9Qhd+AM8a3bbtKB7LqmAAAAAABADQAaAPKi7fxf4DovQbeeX5f30dlMtRYHzAqXdNRx67T5XQUtuunQz8fjewB47UiTpwIht/mtTBIQDGEzmQBQSg4DQuel1G04gDxNDTCUb09hRxwxGo2yChChQYuQLeD5nT3ClI9cQDjUdMZJaAiSelUUeIa1MvjO7egbgFTICCCA14DpEIxXgFTGMFxGEqslC/OeEOKNFLe8NUIdoR9vKi7fxfRaLMUKFfRAIE1F4LNmyfMyK9IVRIhA30ToNV02Ww+KuEdiTwgQIEDqfFxPEAV5UDvjy/L+8VTZGlgUAwKuAbcJzGRlPaJYIw+EKNlE0g6E6AVzAFXWSraMU7KdQIEU5LBKibrVqquIWnqfZ9AyhEnTCh0Y6JhhMuuuuFDeAOTegFmWpPQCBKQlWHLGgRWV5VvQCmhmgVAo5SCAxegEIEzAIstV1QAKp5EDSIKhSkLJAfABAgV3k0+DfvEG+aXyYpweljlleEeHGlkwKI9CdS2In0WLOiGFVLTtQV7NmzDp8LnM+PqNujIWoUhn2sFAA+t3eYaIS2lG7hLUq30EV3eyBl04mRoE9PHycEDTUmjAqNZoTC9UMy1KrCzwevXpLgyY3mBdAe0WejuMpmlU5oZVQzkEyKHa1AVWfQ+l26V1ZmE0vtASoeq4sWLFixYsWLFixYsWLFixYsWLFixYg7xAjkd8UIW9AGIBpWKwbUd5MuOQYPCjEItHkhN/ER2kl5IVxNTiU0xpmkYn3OrFi9kmr4fTEqEPLTPaK/KkikCABq7jWraIRUICujCM2vcpjNxRKALXw1opXeog+mUw8+dZPcOYygEQpi0qBTGYKaUOVzr28luZgYQ1kC+8xR0s8v9XkA/xYqAIA0XdBc5SBEBjHHRILCupMpSBe1wco1ZFoRMU1R/JuIJePRfVOl26lD1xRafbgiJETyOHDhw4cOCs4pqkAcChyU6MqEPozDaTUKo7PUhisqdrtDZe2CdF9pqTAPkHnRPYNQuYWEyNdGzors4U5ADoGYtd1KCC+CATUKqZZIlivZTcNJxgJBos6LSccYxWgZimiMpSXmaxGrsGDRFv5Y2ExBVfk3OZsxAqF1t7yt8kC6C6Jsi9v24d4AdOj1SFaJ+gKEVHnJLJQvXWDvDcbl/MZ2A+V0V0qJrOAsQ2Eg+j3UtNhtAzCZIgV0PkAwYMGDBgySckSEQ95HMSs59WP62ftr3/blgMZCdSI1QNCUAuxIGXcF4CMmKRNXpw6S0AqyGL2qhMKpQ8rk3mkoV42UGmG1rZnlfe0vwsGVgkK8GhrWN5PLExDPQiS82NqagxBTzRKgfwoJJrT2J/PKzMBJR5I8raoQB88T5uYNJJRRAqI+hSWvQbZ/+s/7SD5X0UiBdDG5IiGwpEHN3CLpgLPzTeBx9Bf8A1eOPyrMiALj6Qt8bb2pj1EYKbQU8kYG0bBVZPlXIdUIN87fNzu/irySYZ3Ju0iSwBjowssoJekTtCk4cftk4Lpr0UJOB6bAadovOgMZGS2sVo+2odJRhsrB4bGtrT4678I8MjcSVkUGhHz7jGgVsccxqWVlWgqRJGLiZZmsgRQIwwDEXD7HRNuV9A6DRYqWneIAt8HMVvx35v20B8kefPnz58+fMmHm2oBbpADHXkzoKXMrXBSE2s+giAHgdPTaSc9Nxc0PBs6GCxeaTMWw4yqBSiiBLI8LyDZYQRmSBmNC9d0yx4wGs0dyU0+QBcj36tF1DQAAIEwuLn74YyvRFYeOhtVBQkE+2NXgsd7fPLi0ZY30cgotPNc80p7vlphLa3KJcUkBWc9ZmRTpNZkBUHkbbY2YxMr7U4uj6Eeg6DUEVH/kB6BcyIjixSVVVFXaq0q5euSmWSlx6EeI+fPnz4f5jtx94SJsDeFQbVzoBAIkIcZBvd3vtFF2J6N/6uclyRKoWYbI6dAjTRKPQYA50gJhErQwVejrKrkaBBCC+ErBtLOhBsTfVx9AB788+ncrotAMI4LhfmsBmp+UeSFtAfKJk3DD+ECzZBXwWMqx5sgbTYnnoYldd8z/qbC0Rm02Jr6esGlQOgJ36ADi4ghZi8XOyKm8jwjyokWPYAp26MjDkLDcky6dDZTgxJzoD6XOp2SRQt+oXpgarKY/n2fdaTf0eMkSIigQOAtV7dxY0ZpShEykGfoV0GoJuHKocz/tr1bK9uK7g3W8CXqUKEStF/g1IEk5pc2/g+8VlJlmKhLk02tm5hldOvrfbl5rF+GG8HfFWezlNzhH41nF/UakIzNPVCuefR2wT8z+6Ea6/vxECF0kt8hDNTHxLdnJQTR2CjiYHSU6xbm0DVmdd4e8qXFVHTMOLMtZGiNaS8RF3YJFsBxHYFRbKapFzhywUWuT7b9LOmmWY7LC2MvahBofXwzr3gAJOcSS/Y5XC499OlUZyaCBKAVax8zkDolxCnHrUdjcStpiMQJ3HyrrnnvUmgqhqu1+kdBqCYbQs6WgkjEwgoQtwsErppN9itKYs7O9qwRsEqlv5OkrxKbQnjLRYoN4xXnV/gMfDsqAjKqob0YYXItvRIweFy5JsLfpjai3KDOPNF1w+CrZdawWMOFKUl4MFQDJB/j7O+/nX1FldNSIKuFfIkjF/D6fh6iaB0i2upVhiJREzAOYzFuLQQeBcTBFAaR7UZ1BAkh/oMcwmKf3HN5cJ/wCW9E0YBVQLtP1U5rSm+uLJN0iQ0dM5ZzrA/HolJr+d1gVDeLm/m5RizcAU34A4cOQxf6Jg58SPgFgdI/Oj8UPADJGgRF3V6I0QHYP0joNQTDaGzbtI/pYVE6EP6XmIcpfqA0bywxCaFZZVVmLwdDDe1LpfSXBMEC8gBCUtGa9IyKAvaALiANngyFvC0kwHeIb3PBAJTjE7C+A3hLlcMRWs45/HhPZ2JC0EDRANLWpUJwuGWKN2hsMIIfsBIAJwBlz54eXAo2ZW7YuHTei1lMLiUZA8QWfAJgKvYJyXCQlJ9Evvlhh49IHNnFJvyO56XUZ+l9g9nKRhOIbYrHA9k/sPhnw30oAsf0SqMAkJ7TJxLoUKCwzRYtEmWMsfpXQagmG0NFdvBwZIV3PAOAvQFuxU7w7gb04RYGm5hhfk1vCUtXiT6ca6p0PABtFiXiPtVpMF6G7JySxQUdRsUlQI00h3OTjE7fBGVs8jEJG65U0g7jFO4+1zUggf56aAM2G6AqMzLTtvBLmRqXZSZ1Au6Za05AmwRxAjXT86tvZVNKB3bBfXUrqoOEAaN5B8HDDCsa+Lol63EsT6VOg1BMNoJZ7a/gyRqmeDcFdwD9AJ3j3I3pxIlsPAVgR7bNTU1/EXohJyIj05zPYQ+QV1CYfO0P8A/wDKuEiwd9CDoCtVIIrKmQHFgdXPUELRgIa8GtW95ypmJoCRcSM8IPgaBScj/CkAboNQVOKbA1o1hNRy+4fqMV50CmydBs053lLNWAoWbCWk3QAwKLzKwLNgBcCR/kZgT04k5Hha6QE97MEUaRAVF580xxZxE2kQ1tkGI3ugRqQnk4zKmOi71P4S6DqDoBXJci4EgdH2BmdDjOpQpIr0gqtjfgExuIgneg0JxMoZQm0Kqj3bL+T+GIA3Qbd2F13W9/tzUAgLUyM3ac3QgBkQiXMkrKtHWVsJrK1jxz8n2x4DqdOmV/eqTrt43cvKnQAkzQiGoE1BBTo4CCkTq0vUVb0I+fcllrpwKZVaz6gnzjtAR3hLVnpq4kRERHGh6/yM8OG2Z5JBIDC4Y1yXR/GAI9r5+5ikRHP/AIwCw8MobPc5yBXFhCJKmhTi7BGz5r/Uq2VCImb27B+8wreRCIwLjB1TDLlcuP5r+cvRADkAXLnUYlvyPY19xEhUKhB0SSEB4QpDX8MQBug27sX8bgpQabGrA8EI1OuyRPDb3izdu3bt9eqyxK+2lRtJ6dFMEyIwUtEkE4jYbQ2c0mkpfpxMGVCu2iEEGyKeKhRabxHo/TWgiIIiIlEdIjpEy8vzWhP8/wA3YKy9xLrzkIKJTIxTxB0WfixcO8xLEFdgEExnjitMnvdAZyU4iqoff5AQ4CFsNs3sHGRrOpL8FxDhdtLTO9NzGZv1sc3ANogAH1VAG6a9KHWfXc42keluqmU/KI6DPRCHGjBLoVZ2rFfJFixYsWLFi9Fs/wAeAWOCQF4S+SdyUrXQEXi3z58+fK+E0fWCzWIHr1x5hf8ATBG+agvdpjMNJEiIDwkWLFi1eXsdvWtNkacm91nq7uT1kCLlfdskMjlBp3sZSIDhzppAUmmW3pj+0jJrJTVJeTYWpXP/ALJxix4xoyV1UZ2rFevz5eHMKqNsRRfREPQ0HYkj3/nLdx3IvS6h2Wj2QP6BqDatfDr169fN80rMZWiwPZ4x0p98VPepXRjcQ14sJp1+F7dBkDF8YKboh8LCA0fI169evXr1jGtbV06j8cYTJHAkX5v0kxr49evXr169bi8sU2thyhLCK669etkJ9qGE9WqNCHkLjke/d4QDoeOMxRV/WzaAgVynJUdVU4xNqo+jUXpaj2Qk1WAgSpBfVXnl+X99HbKGwgEl1UrCGYyN/T3AomidknRLIy95BvGNAAMLLrX2iaIgV6hwNQ199GBNqUtBVLlAiHLlYAVYotzW76hFhxS8shGZKA/YiPuHoAHZ9r/ClkCqhQ/4shdy985xRVByoOIr0BrNuZaeS4j+DcxNAg48hLBuOUAVwPhQH3sddT+wGDVR+Dy4u38X6NovRiXcSV8sJIKgvB6u88vy/vo7J3eJGj7GvcCdS2bCMIDFwGi98JUOcIqkgjh++WecoJsbWpm7FduXrP0IcYlE3CLDGBFsgPOGypbI2SQ7KarPPFPpAEmxMQgfy/vDYXRK6MW8mnygBSZZB36BtmIzADaKSm9776khqCYaC4Gmu9yamD7209qCO64jGo6Wk21wAFDHH1JI1Vp1VzBioCOwHCzAUKHLwh2YeILjedmleDfLi7fxf4DovQbeeX5f3nwXb1cPESCSmKEmQ2fLS690QYY6y4C9TwtAsY3Dwxz6ewBD1NRaBYIpBzBQZkQgVQakSG46acOGRaLR6raGIQDKdaG93Ikp4DhoaVFfllWzBYXK8X6hcPOi5lTMc7kppkZKMLkxHSV7iGO7C1HzYopECLfxY0BQoqOIAjHl320CRYGSbtzOZIK6J3HDEbEku9wk7VNNXJI5qDprUDUMSfBqsopEONnCj1t1rwGGE8RDiJcujiK7jBYDjeh5UXb+L0xIRDGjEMwp4XxlSpUqVKlVJx/uRCGaQoH1d9Bt55fl/fR2kE6gHVaUHNRKeGSEOoc7PVck4ZAVgjyYwILppGmLbRQm6UIv4HCGqmAwZfBywsMON45CcEtu0UGmOgLvTj5htlc7x7PrRXqyUBKp9dV9PEv27J12QcYY2bgw9QHl4hi1H3aD8BbljFQwDBEG2l2nuzLAR7quQQ0khJ6A3hjMcn+UEYpGAeABhBonf14g6RmJIr3vlMnBPkxdv4vXduwDsg5TjGuh8YECBAgQI3xhZcsKP0t+eduKr0dr6DAD4DVq1Hej3g/m5mhskO26I8bb61I288vy/vo716Ypq5YSIKikwO7dqzgsaXQi0FAbq5S4FkKG6jX8hEuSAIYIIYnjQUd6uXsXa9AJKkoQHeeTIJ4Ktg6QNJWGCQgHBw6vA/jQfQdRcMo5BUHCMAAAMsluDYC0cRoFAOm5bhszxcHkR8YDlNoV0jXoZ6nGB/Lay3EFGnvkxRdv4v8AAd25SHDkbeeX5f3hbJczx1Q5VQmKp/VdKZ4qwixH8bdxPBhP1FOseO3XcsZwomdItkPSPHbsDK4QjaqoAVx/dhr72FiyroNJuztUP1uPHIayRly765NkJPSPHARkmqKNAANvtm58TCJgbuSTnrHjx95fYOhOd/WDP3P7lkkTkJ8QI96H1w8w6GdGjJ4+fLX3Ox44u38X127cpFFR67i7hdk6rgjMLn30tTKhMqAwCvDK5twcmqaYlVnUHYMaa+gORt55fl/fV2wgf5MpXhXxmDzxmFNIqI7ZXpHMnqJcU5+aQIwtYwr3vUupu+DT0GmXrNLijRBWVC2wyhigADpHDYCAhCUo7CcpA6Ek0utkbsTCWNQstjCQ4FtDtUABe0DktrokOosWgKTzNtDzJBVsgRzL4gRvJGjxoPu3MXI1hY5U1Dj9QPXkBRDtihJmi9Wc2sl9rObB4wN9Iu38X6Bu3KRDQB8xEJK5EREch+mJwj7AY7ZtpwqT+cDtbDKv15yNvPL8v78Ds2KKyYDgJ3TGJYgq29+2JLK1IbUYhNQdprURWA3QW0o5SLOOVnVwFgBApRDw7Dvh1knXdCLCKhSiJ4HGa8MlrCi20KWxrRm4+EBDkUCWBVV8q358Xk4oMQCAd8MuRoo8bXjCQWCxJFvqBXNPhi7fxfQbtykGbcLFsvGsBKfCKlSpXcYX40Gt1NutPOh7TpUoWrpSDTQoIEISvsRsjzeVBsEtIMzoRuwHT1V55fl/frndxzj0RuyS3oo4PT9H3Z22VSDoNCZ4NX5e38DAc0atVtRSSjlFCRAukD57UGeCw7M/F8jduUHx+W3TDGCFXD+A4dKTX+VAOOt2GGhqhxwAuUqXkn7yQHBYWKf2ExAI8ASlJMSX/wDETTyQIw7x9Mnb3kku0MGiRRGoIgyg5CpBcCtdgHvoYVAFazbpeOF4PpsIpNrMlrM1J2gJuY4ARrqIuVQQiybaGlmYWpI4zz3MMK+NoCXDArlbqCgRABSYCZywAoFANE5w1MWjYY23GyjNElEF7n8GIlD9gZnGENqqgBXON7I/pzKsUWQbeeQc02gmVCXplQYli4jmPOQ5YehxvojsdbB9B23Pv688vy/v6G7/ABfI3bkSMMXOyHIYUiDjrdN2rjZhUSivMezyHmJypERw0h0fe/J3VPbAMQZFHixFRY+LZ7a/ANg8A3KjCng8cPxKIFTsmLbnSsubtkNQQorqV7XSUKg4UaEssQiunxIJqqhxcXPrQBpmGS1d5uTLkftNhcfYcZQfmxY0kjeQqPdw+x5MPlmjB1gUxE4mI0WpBAnmzjQNSoOFjMJEQBWYCbrr5M3rG5UdYcKkAboQ/Bo1l7jbN59AFUMkL6UBX4VNpT4rzlMc3o1wFgLNAkfhKMSbxAwelRHjQ+xB9B23Pv688vy/vo7WuFb3X/4LACHhfPnz4GKOHCK28toip6v8Xruzo6Dt4Svg23uh8CVKlSvJCCsRqpSjK9pi6xO0tSfeYYM0KlDtTdIrevQEdIZwnEUCJMGziqlkQ1fPEopYzlNib5aQ92GGCwlqnbvcY+8+YAbD4iJ8mu428kQCoKmYu1Fp78XQpYtUNNS8a8F4AeYOUEfIhozckMYXQ1bZtEN91xVk77FZiNvO4/dyn0kLmhdsIO3TrJr+C5xpNc4H4OdJZMOJiQ0cNAM6TXPKHgetoVAbEQ5WW6dc3Fk5xxKFz/3gr90rQ7DeJs6tQyrIZMAR1giwQDXifZ0/Qttz7+vPL8v7+hu8/wA/F8jduSiROt3/ALE+5SvHmIPiQHzKACd5Fjg+W9tpHoiChQ9uH0JYxvwMa6fUCUdaImxWsZwN9/eemeyXt84z5xlevCXD+jkWMBLdLyEH3MAIdJwDJW6+9wRvWMsVUfcwLe2Ls2K2cypynkkSmEmWupI8Tkv5SIqXZ0OGqK6qFsITUhEEHSsNtA/825cdvee9OaymaPtnE88TvRkk378ZnbTAwNd0kj6IljkZPXzCMmEUCQw1c3b+YMrN8GpBl3LPEMJRCA5QNtVsXRT4nNS0a2lKRLsB9C23Pv688vy/v6G7z/PxfM3blIHXAbJBIhGYC20OZSgRrHRgjiH2tloYxI2EIDsVNggIsty0LUuwVRdJzzLuFSs2A4rPauBuUMS3ocHtADFBo6ueXlpXGsZXGn5fFux4WQuvlKHulFnwlnONrBJTC7QoZjwXS+rsnCqoDHVvgyUesUnPACW8claPSX3HKuidNwMDAAS7FIWiQAAA14Yep37CmrOva6slmRITXbJ465EpKUvh72kHiCBx6+59/Xnl+X9/Q3ef5+L5m7cpG5bBJDexRqrirfBUS9ZXb8bOpL8rMYDjKomjeSiemsHgLFJzMFFpcbuf0PQ6UdSqF8ZxnmeIFgkCkgYlfeqNic/cC+UjYqY7zd7JiqZELq9kpg0kAxPZuCKjhoiLwLWaTM2K5jI9wmSa+Xz1neZ0AydRxS1nnbIiT7h14c6rcnwaS6Z+dVUKqYugPpVihCV8o5w6YjArgFGn7JKSjm8SVk6JW/QVz7+vPL8v7+hu8/z8X+A7tykOLn39eeX5f30dsxDmD82ShQag8Dp06dD9CBdwA4btKB66pPUkBfsJ0DG8RyMnGH/EUKErCdHrdUxX73DJ/le8CJ2OS10BATeMyqzAaqwyELenuoCXBdwOSSo4MPInzQxIUOZR+QzmXbmfX89u1Nwzu7icl+EZD9rjoJKb+sYioUtt0VwidxVBGbZmjc4Te4O2wejA6Ipgn+m8WmF99nhEA2DXMRlsw26UduBs3cpadpJ4CgTKAYSiu384hK/kX4vr925SA3Dq9VnsWQoXh/379+pT6J9qjlt3j1p9/Xnl+X99HYjSPB2p1c0soAnlSezd3uZCHSKnBxQuzk2g9EgyjCwhFQC336BCXaNuHF8oEguLdMe8CbbQKQemY2pqBKyKclaca5RApVI0OYmcDtycjvGgQFoTP5PAB2bnbcK8KLXDDEXDEJq15kZ5fcNuSyb/APWJ52Mml285CLKOA1kFVFowzYLoCqF9NjZyQXzt080t7vJdfzpg+2t0NLc0RMkk89xdVgzCOIvLqPepKRGZiFqe2S4tyHhZKDHoBqAJ75jUfMxG8AH95BWVF6BVcMBTQAeR+L/Ad25SKH39eeX5f31duLzGw0cQTU7h06hF/iOpvckkj5ILfUPiI9NYkkS1Uz2VhtDZ7QMJHqVXXbUtSBxRvPGbmJkEyugu2pAVCKIYoRHhCGi9Hb0QYISJZUM9LrlcOExtL9DzvgBQK30zzY4j6l3DHMrUPjE4k8Dhk6Ap/m92/bkBI0Kz07Zf9KAAar6J0BaxL+HGagLhaw8xwoj2Qki12McbuBrYNL9Nw2w5F511rsxLJFRuGHzdkVKLLaAMa8dI8YjhL9VywQb0CMnmL6KJPRPwqnRSPL81AGsOgm+QET8XruxcJlDRc2NuzHxvv379+/QrV+1f+Jm+rvDoff155fl/fV244Q853D9b7htiYwEfgCnABS+B2SFJuP3e9uhbQ/WV3o0QsNsOCH25xN7RnhjIzN65nQd9mkIeEqkP328R1yLzYdPlg+a6DxJcUXu/MIklVCxRsnrOCkwZk+fEsFylGFReblURYSs/2M7fI1O8U9s2Vhlt0v8AyCgA8nQqFdzCNg3N52xr/tEhGNGSzq3XZR0DLgwOOQgffhqbDsJgR69k4CTiztZrmBXWGZZUPI/F6ZcU3g5uZBNgPkMmTJkyZMk/0nAnkkNUE+rvQ+/rzy/L++rtwkHk6HLdUDn4nFUAcAeAJla3GpH20Xv03nfBCTjSING3GTtnRaUwxSALnH1wvAfBxaL4J8SuJsFBXmZN4VsADVHJXOo7P4Y/FjZPziwsX/x3VPFW+flWm6WGnuObkhumvptQXgGY+DUviEXpWcIz3QWxnmgRIDA9SpcG8xxrcjnoXJ2DoHRRmzO4FrQfqCDq4Td2IPktgNQwHCzr5nMWxX/CXE379lx/sfJ/F/gOi0Pv688vy/vq7caQE6Muh01EzZxTqb6qsAOxE8D2oAURZLsEIR+D1MCP5OmsKqIEpAEgXkZXVxkhg5Exs9HD7jn0JZRtr0kBN4SoiySvGbxu6QRAvhEUOc7T9QDbIUfpr5wKO3k2GjnznEYomGQEArkqcTUiplJzhZ1VBX8xMUjWiWU3gsUgrYy6hX3/AJkexSn2Kgl7NsLUXKr8IfW8XDDguwdq9KrjBfFM4ZjWjGh+AFgDAHkfi/wHRaH39eeX5f34HbiVryRAmhZYHYJ4Eiu5dC1hKkEaUTkego3kIpsnApvdT1MT8X+A6LQ+/rzy/L+/A7cQxfhUO9JRKyTwNnF/N5VA0YQRrlhsXF1HUN2I0PUkT8X12ivdk2oBeIghLzg7QKNwJySGuUzZMCR8VcEHNGlZ8AnneoAYkwTHEDR5ACD99+voff155fl/fgduIjefIQ+gjVBcEPAmELk0K1BNyuZnQaiSHBlDNCNAbl9RE/F9ZotKaBBUeorK6KKL5cqZvb5EVDWGWDLaQ0DTWDrVS/iQcAAEPoWEtQ+/rzy/L+/A7cRz7GDqpDQ+Thy4amiKagbSq+2pgNIIFnDO0AnrlvYGGCoDdagSqdScNsu8YVCDx1dM9lwvZCLWlyoZSdzZuF/b1CJ+L6vRTEG94VV5gvEGd+JOGByJ2YfRfwlqH39eeX5f31duJSmlBQKNCtL7YbSZkYFAqK6UfAux4eDkMUW3CYdBzw5AEAxHSZrGYd0mk+0R22+nifi+LRUqA0GabHKCHC3C4NEv9CuTx9DBgwYMGGXDEvHcpUbMeMwYMGDBhvVXqGwiZQjhXJPpwfHKhqg34LZLcg6hvcrZy6spcEEWBRVVXyMJZCAu5LVWvEeaEP8Ajjv47M7RtTWI5DeJq9KN66vq7zy/L++rtwTwjgqVAjRN8I4NoUQBClrxo7a8GpLy+bSOBo9QdSCaxluoN4aOFtX08T8X1Oip5HXk4G5OEhvBdT0UTJpPopjSs4AD6PhLdBt55fl/fV24b9JlHlUKkwARxUAyEEFHgCFJ9ki1q6iddYBBC0hXXOSbA7+oifi+o0VPI68nF53TFbKgJCmbHfBKtTzFPPpGVXCW6Dbzy/L++rtx7Wcg9sXTs5y8MiqGkRTj3bwBFo4tChuwrkg779YsLw0B7Cqm9k9/qIn4vqNFTyOvJw7/AIVQ6AXhfpJ5MJboNvPL8v78DtxJcmKJAiZY7NPBNapq2V+AXtt9+oeYoSX+UJqESSRvp4n4vp9FTyOvJwmr9NUxSJmLRE0T/dCKHqDYpH6ThLdBt55fl/fgduIrIkUXvaioyaXU8CO+hJzYRVjdZHboxKHU0I2I1xQXT6hE/F9PoqeR15OGYFVGH1QXlF7CfScJboNvPL8v76u3CqMyC9kltEAeTBqeGPvBw27XCP1cGmWApVO5lEkk1NOjr7DhHQB/qi1STaZG3cKyLQHmkzqRkKXJxxQjNS+f94Pso/Y13PJ/F9PoqeR15OCSIUV2kFhorcn0owlug288vy/vo7YCNMmT8YBLeOChWJqkYmr7BxZaNez6FegIRwv22LiWy2BJcCORMnhGM7o3CdbxpeFQDPO0K4KEohtSyDOZMwm3xBlZFw2C2ALmywELGtAY8qw84mTJkyZMmTJkyZMmSyYNEP5fLj/gCyMhWxByZbTyPxfHoqdZw9xiQ0LuIvjuDBgwYMCBmA0gILhp8eQwYMGDBgXMLWRl0QJIaJjiBXP4EXvOPsnb6VhLdBt55fl/ePsWxHAx5QmEj47169evXrwOan1xtCKwopMfafsaPttvoRYsWLFixYsWLFixYsWLkyrISDjj3WNnkXr169evXikqT4NRLpJR9YbZYFsngcqjN69eX+mt2ZAmOByQuiMbWW2kwFCvBmzZsyQ2+Zf8JJiKgf3Kt0qWQIDlXfhzZs2ZlIHzrrm2kYHqBAgdKx8jjq7IpsAFBlP7WT80oKvla2krriCFxOfEEBMAKjAhVavS9cx4FaO9qEIb+tDbTy/L5LF5mF16Sm8FSLSlVZuLXQBvseh169evXr169evXr169etljquKYURyFAfPTPBIWg2vEUAQ8OvXr1pjV5UUwReoQUxlXp6YBdugAOPDr169cVO5I/bVtakR8DsvY8rYKoAqrABlV0AevOoA+YiElciIiOLKqqqqqq1VaVfJYMGDBgwYMCCHuVEQVUSCDiu1l2rv9CqVKlSpUqVKlSpUqVKlQYa2ewwGMAih35DBgwYMGDBejtVF8yJRqI87e+k9QYBUw6kaM8VvqEKLUsciY+7osZaN4BONdBGIGEdMR5AgAAB06v9ol5BqQ7zuT1Zsygcb0HFmCUIiOHEJfl1zyPy0OubNmHzeDlgIkvQA5Vqso4Yf1RAinVGjPc/tfweoMRjk92giS6BBHduf2olZDVNrTcwi5GZw7u7VburAC8+9OE/W9JQ6ESJqq+0VEbwoKmOR7erXr2qQYIiRIWQ2MDrPpAmWnaYFYD0YXq6kaMz+yWnzdRABgUtxTkPE0/KqJ/BqnseV/2ff/ACSAadc9CAQ1jqn/ANU9jyv+z7/5JANOuehAIax1T/6p7Hlf9n3/AMcgGnXPQgENY6p/9UiikAgWiiUPy3Q+fPm9oKYyPbACO8bWhiJT/QQTEI6Hz6gna7X/AK9+Ri9PWj/Uggef1Pnz9acuSEtExogD4M+fPj2P8hM5EL0pA0ff7T/rrPn2HY7BOGTWPKrgOde/ugQ6FuzvvqfPhik31S6ZgkI2Wa9LGcIRkMCL0Pn1Mkun31/IxUh9OUqoMRFWhQOh8+wB7ygIj4WmKjW9pGdDKIxpHrPn18g53LVnRqWFT+D/AKp7Hlf9n3+GBzVbzgrQYnYEC4LNm3mq5xadTAX1AIq8DqroMADBKNKKQUgtq+V/cpdLcqQmKiyrbc3KnCAmdutYoTi9xBojjO7SMZE4KZUAuSF+IuSxFEGjeHnzyHEd7IgZQB563UylNvYQI4YG7+xBY6HunDBmoB3RP7H+JhDWOqf/AFT2PK/7Pv8ADAPKOcxMrXBeCQphOfXtRZ8p4qBbF4WgQJwdceG5YLPO2TyKAYgtFFGhKE5kFx/y+OLI0YdhPVDX9YNHRD8RdjcQ4E+Mg8GMA8a9i7Upiij1ujucMQfYJDH4OC69bGha3h6U0O2JqPexMH+JkAhrHVP/AKp7Hlf9n3+GD3h95C9k93N4ug2MQ05sIAGZ7yvaX2QV1tt05j3LPkSY1AQTMNyIr4yzTMVgb6tXazV295g/Sw9AcC2x2vZzaz6HpGR7Jcy15VzAuaEE5vj+DP5IJDbFc76zipCa9p3+5c4rSQP4YQCGsdU/+qEwbcUallJTDTP9v/zP9v8A8wC/m8EaaWNTcQyhVVk72cJqMIz/AG//ADP9v/zGLr+7M+dGCoOXj6U9PkOX+3/5n+3/AOZ/t/8AmWRSLcW5UKg72YNGY1vKD7KAAjSwgFgz6FUijgMWXrLOFYTEJeImo8JGBPkd7jxZwDRodIi+g+E2NVCIQMmvTriiKQYmsrSrhAxZjKghw/aWW83vZYYaKeei2201DKpMzNfOvuB9zJ5qRqKK70Abrb2atZqGGZWcQv2Dn+3/AOZ/t/8AmPUC/wD+3UG1JQwKyFgdjM6AHcf9v/zP9v8A8zSR9x/jWoNIOKsBUfoY0wnAWf7f/mf7f/mIy57pFaxyE0D+Afqn5x/aF+YHVxDSOJ2z1I0ND35T3lT2vgcn3N+42H3IH5PBwxzy99q391PjwOG0EBpFCE2K2e3gYaQOVRFg6ErOKvviGKEFQ6q7VerWxg4XQgQcCDfeGNUlQiqwE32AD2DqnYaZTEBJwoU9q4w1UIKojQPAs67q9WgigMXQCidwJ+Qc3CgVMBAcAEXvD26tIqVU7gD7iI+5/CP1T2PK/wCz7/5JANOuehAIax1T/wCqex5X/Z9/8cgGnXPQgENY6p/9UUNYt9L5ka1BMLFmkUIwCFBUC84m7KJGHZuBAscEBH3x22hoQ7Ho0aIj7feX9+zIzfG4PnD5M0HgtGjQbEUbn9QMBWj4Jo0aX9XopP6bkylZexLtesaNOS5LGBi5bjsUnKYAFrAwe6n3eerRpe3m2L0WLuQlB7vtPVTCl4IAOjRoFPlVchT40A5A6+E9FASaKAdWjRey+aOFonwsBYdsNttfw5PuVKLjEoCYYgj36FgRXdcu4qL7K0P178cQUY1gzg2zTXRKlUVZ5/OHkNXS4Fkr8jekPCERMDOCrNwRQgAmE6lSpVY1rW9KyOBVik8BUqV0UBfPIMUvgATqVKlUwS1fY49UFgC4ttRdq7OoqVdyp0XErYleEPdgR1xAhV7a6lSpwR3FeHl8D7cvU+GQx7hEUlehUqmqeCS3YgoSUB/VunFNIzJkA6FSpRfxYd78/BoCH9W6cU0jMmQAfdaDw1nYvaYdGqVjUpNCb50BNiJ/B+2ceV/2ff8Ax6Aadc9CAQ1jNVrvYkXAKsaapRGDB0htgnwHeWIA4y7WCuqISNOs6nj3+O/TcX24ME0ZURIjB4Dx49p7t6SHyicFCnU8ePC8LZFjUmBRWCClopSLO5rp6njyybl70w0WIGHCDBtyi8jDFKcvU8efY+bCtMGClxOpMVHcF/yS4HqePOYvP38sCQRCbg07tjjk8BCOh48DfyhhzKZAQxF/hA06EN8bhnNzsr5OyhqSJX+AXaZRcF2n7tKN6+PCRAua6WUsjzX6BKlSpUqVKlSpUqVKlSpUqVKlSpUqVKlSpUqVKTpf9WAOB6WdfHjgWSJ/v94AaRNf/wAwf//Z;" vertex="1" parent="1">
          <mxGeometry x="460" y="-700" width="800" height="1122" as="geometry" />
        </mxCell>
        <mxCell id="u3QtzKqVrMGiRj0KE6UX-5" value="" style="endArrow=none;dashed=1;html=1;entryX=0.561;entryY=0.286;entryDx=0;entryDy=0;entryPerimeter=0;exitX=0.768;exitY=0.201;exitDx=0;exitDy=0;exitPerimeter=0;" edge="1" parent="1" source="u3QtzKqVrMGiRj0KE6UX-3" target="u3QtzKqVrMGiRj0KE6UX-3">
          <mxGeometry width="50" height="50" relative="1" as="geometry">
            <mxPoint x="1070" y="-400" as="sourcePoint" />
            <mxPoint x="1120" y="-450" as="targetPoint" />
            <Array as="points">
              <mxPoint x="1060" y="-220" />
            </Array>
          </mxGeometry>
        </mxCell>
      </root>
    </mxGraphModel>
  </diagram>
</mxfile>
